<?xml version="1.0" encoding="utf-8"?>
<!-- Generator: Adobe Illustrator 18.0.0, SVG Export Plug-In . SVG Version: 6.00 Build 0)  -->
<!DOCTYPE svg PUBLIC "-//W3C//DTD SVG 1.1//EN" "http://www.w3.org/Graphics/SVG/1.1/DTD/svg11.dtd">
<svg version="1.1" id="Layer_1" xmlns="http://www.w3.org/2000/svg" xmlns:xlink="http://www.w3.org/1999/xlink" x="0px" y="0px"
	 viewBox="0 0 595.3 841.9" enable-background="new 0 0 595.3 841.9" xml:space="preserve">
<path fill="#4EB748" d="M425.9,491H187.8c-10.1,0-17.9-7.7-17.9-17.9V318.3c0-10.1,7.7-17.9,17.9-17.9h238.1
	c10.1,0,17.9,7.7,17.9,17.9v154.8C443.8,482.6,436,491,425.9,491z M431.9,318.3c0-3.6-3-6-6-6H187.8c-3.6,0-6,3-6,6v-6.5h250V318.3z
	 M431.9,311.8h-250v160.7c0,3.6,3,6,6,6h238.1c3.6,0,6-3,6-6V311.8z"/>
<g>
	<path fill="#FFFFFF" d="M395.9,341.8h-250v160.7c0,3.6,3,6,6,6h238.1c3.6,0,6-3,6-6V341.8z"/>
	<path d="M389.9,521H151.8c-10.1,0-17.9-7.7-17.9-17.9V348.3c0-10.1,7.7-17.9,17.9-17.9h238.1c10.1,0,17.9,7.7,17.9,17.9v154.8
		C407.8,512.6,400,521,389.9,521z M395.9,348.3c0-3.6-3-6-6-6H151.8c-3.6,0-6,3-6,6v-6.5h250V348.3z M395.9,341.8h-250v160.7
		c0,3.6,3,6,6,6h238.1c3.6,0,6-3,6-6V341.8z"/>
	<g>
		<path fill="#4EB748" d="M331.4,433.7c3.6,0,6-2.4,6-6c0-3.6-2.4-6-6-6h-35.7c-3.6,0-6,2.4-6,6c0,3.6,2.4,6,6,6H331.4z"/>
		<polygon fill="#4EB748" points="209.3,379.5 170.7,439.6 248,439.6 		"/>
		<path fill="#4EB748" d="M367.1,392h-71.4c-3.6,0-6,2.4-6,6c0,3.6,2.4,6,6,6h71.4c3.6,0,6-2.4,6-6C373,394.4,370.7,392,367.1,392z"
			/>
		<path fill="#4EB748" d="M361.1,463.4H176.6c-3.6,0-6,2.4-6,6c0,3.6,2.4,6,6,6h184.5c3.6,0,6-2.4,6-6
			C367.1,465.8,364.7,463.4,361.1,463.4z"/>
	</g>
</g>
</svg>
