<?xml version="1.0" encoding="utf-8"?>
<!-- Generator: Adobe Illustrator 18.0.0, SVG Export Plug-In . SVG Version: 6.00 Build 0)  -->
<!DOCTYPE svg PUBLIC "-//W3C//DTD SVG 1.0//EN" "http://www.w3.org/TR/2001/REC-SVG-20010904/DTD/svg10.dtd">
<svg version="1.0" id="Layer_1" xmlns="http://www.w3.org/2000/svg" xmlns:xlink="http://www.w3.org/1999/xlink" x="0px" y="0px"
	 viewBox="0 0 100 100" enable-background="new 0 0 100 100" xml:space="preserve">
<path d="M47.5,72.8l-0.1,0l-16.9-3l-5.9-6v-7c0,0,1.4-4.9,4-5c2.6-0.1,1,0,1,0h8.2h11.8c1.7,0,5,0.1,5,4c0,0.8-0.1,1.4-0.4,2
	c16.4-3.2,16.5-3.2,16.6-3.2c2,0,3.7,1.8,3.7,3.8c0,2.3-1.4,3.1-1.6,3.2c-2.6,1.5-13.7,7.3-17.9,9C50.1,72.7,47.6,72.8,47.5,72.8z
	 M26.5,62.8l5,5l16,3c0.3,0,2.8-0.5,6.7-2.1c3.9-1.6,14.4-7.1,16.8-8.5c0,0,0.5-0.3,0.5-1.4c0-0.9-0.7-1.7-1.6-1.7
	c-1,0.2-11.5,2.2-18.5,3.6l-0.1,0l-10.8,1.1c-0.3,0-0.3,0-1,1l-2-0.9c1.2-1.8,3.5-3.1,3.6-3.1l0.4,0l9.5,0c1.1-0.4,1.5-1.3,1.5-2.5
	c0-2.7-1.6-2.5-2-2.5c0,0-19.6-0.1-22,0c-2.4,0.1-2,3-2,3V62.8z"/>
<g>
	<g>
		<path fill="#4EB748" d="M31.1,40.7c-0.3-0.4-0.9-0.5-1.3-0.2l-1,0.8c0.4-2.6,2.6-4.6,5.3-4.6c1.7,0,3.2,0.8,4.2,2.2
			c0.3,0.4,0.9,0.5,1.3,0.2c0.4-0.3,0.5-0.9,0.2-1.3c-1.4-1.8-3.4-2.9-5.7-2.9c-3.6,0-6.5,2.7-7.1,6.2l-0.8-1.1
			c-0.3-0.4-0.9-0.5-1.3-0.2c-0.4,0.3-0.5,0.9-0.2,1.3l2,3c0.2,0.3,0.5,0.4,0.8,0.4c0.2,0,0.4-0.1,0.5-0.2l2.9-2.1
			C31.3,41.7,31.4,41.2,31.1,40.7z M43.3,43.6l-2-3c-0.1-0.2-0.4-0.3-0.6-0.4c-0.2,0-0.5,0-0.7,0.2l-2.9,2.1
			c-0.4,0.3-0.5,0.9-0.2,1.3c0.3,0.4,0.9,0.5,1.3,0.2l1-0.8c-0.4,2.6-2.6,4.6-5.3,4.6c-1.7,0-3.2-0.8-4.2-2.2
			c-0.3-0.4-0.9-0.5-1.3-0.2c-0.4,0.3-0.5,0.9-0.2,1.3c1.4,1.8,3.4,2.9,5.7,2.9c3.6,0,6.5-2.7,7.1-6.2l0.8,1.1
			c0.2,0.3,0.5,0.4,0.8,0.4c0.2,0,0.4-0.1,0.5-0.2C43.5,44.6,43.6,44,43.3,43.6z"/>
	</g>
</g>
<g>
	<g>
		<path fill-rule="evenodd" clip-rule="evenodd" fill="#4EB748" d="M58.3,39.1l-1.9-0.5c-0.1-0.4-0.3-0.7-0.4-1.1l1-1.6
			c0.1-0.1,0-0.2,0-0.3l-1.3-1.3c-0.1-0.1-0.2-0.1-0.3,0l-1.6,1c-0.3-0.2-0.7-0.3-1.1-0.4L52.2,33c0-0.1-0.1-0.2-0.3-0.2h-1.8
			c-0.1,0-0.2,0.1-0.3,0.2l-0.5,1.9c-0.4,0.1-0.7,0.3-1.1,0.4l-1.6-1c-0.1-0.1-0.2,0-0.3,0l-1.3,1.3c-0.1,0.1-0.1,0.2,0,0.3l1,1.6
			c-0.2,0.3-0.3,0.7-0.4,1.1l-1.8,0.5c-0.1,0-0.2,0.1-0.2,0.3v1.8c0,0.1,0.1,0.2,0.2,0.3l1.9,0.5c0.1,0.4,0.3,0.7,0.4,1.1l-1,1.6
			c-0.1,0.1,0,0.2,0,0.3l1.3,1.3c0.1,0.1,0.2,0.1,0.3,0l1.6-1c0.3,0.2,0.7,0.3,1.1,0.4l0.5,1.9c0,0.1,0.1,0.2,0.3,0.2l1.8,0
			c0.1,0,0.2-0.1,0.3-0.2l0.5-1.9c0.4-0.1,0.7-0.3,1.1-0.4l1.6,1c0.1,0.1,0.2,0,0.3,0l1.3-1.3c0.1-0.1,0.1-0.2,0-0.3l-1-1.6
			c0.2-0.3,0.3-0.7,0.4-1.1l1.9-0.5c0.1,0,0.2-0.1,0.2-0.3v-1.8C58.5,39.2,58.4,39.1,58.3,39.1z M51,43.8c-1.9,0-3.5-1.6-3.5-3.5
			s1.6-3.5,3.5-3.5c1.9,0,3.5,1.6,3.5,3.5S52.9,43.8,51,43.8z"/>
	</g>
</g>
<g>
	<g>
		<path fill-rule="evenodd" clip-rule="evenodd" fill="#4EB748" d="M66.5,36.8c-4.4,0-8,3.6-8,8c0,4.4,3.6,8,8,8c4.4,0,8-3.6,8-8
			C74.5,40.3,70.9,36.8,66.5,36.8z M66.5,50.8c-3.3,0-6-2.7-6-6c0-3.3,2.7-6,6-6c3.3,0,6,2.7,6,6C72.5,48.1,69.8,50.8,66.5,50.8z
			 M69.5,44.8h-2v-4c0-0.6-0.4-1-1-1s-1,0.4-1,1v5c0,0.6,0.4,1,1,1h3c0.6,0,1-0.4,1-1C70.5,45.2,70.1,44.8,69.5,44.8z"/>
	</g>
</g>
</svg>
