<?xml version="1.0" encoding="utf-8"?>
<!-- Generator: Adobe Illustrator 18.1.1, SVG Export Plug-In . SVG Version: 6.00 Build 0)  -->
<svg version="1.0" id="Isolation_Mode" xmlns="http://www.w3.org/2000/svg" xmlns:xlink="http://www.w3.org/1999/xlink" x="0px"
	 y="0px" viewBox="0 0 50 50" enable-background="new 0 0 50 50" xml:space="preserve">
<path fill="#50B848" d="M18.4,29.8c-0.3,0-0.6-0.1-0.8-0.4l-2-2.9c-0.3-0.4-0.2-1,0.2-1.3c0.4-0.3,1-0.2,1.3,0.2l1.5,2.1l2.1-1.5
	c0.4-0.3,1-0.2,1.3,0.2c0.3,0.4,0.2,1-0.2,1.3l-2.9,2C18.8,29.7,18.6,29.8,18.4,29.8"/>
<path fill="#50B848" d="M18.7,28.6c-0.5,0-0.9-0.4-0.9-0.9c0-4,3.3-7.2,7.2-7.2c2.3,0,4.4,1,5.8,2.9c0.3,0.4,0.2,1-0.2,1.3
	c-0.4,0.3-1,0.2-1.3-0.2c-1-1.4-2.6-2.1-4.3-2.1c-3,0-5.4,2.4-5.4,5.4C19.6,28.2,19.2,28.6,18.7,28.6"/>
<path fill="#50B848" d="M33.6,30.5c-0.3,0-0.6-0.1-0.8-0.4L31.4,28l-2.1,1.5c-0.4,0.3-1,0.2-1.3-0.2c-0.3-0.4-0.2-1,0.2-1.3l2.9-2
	c0.2-0.1,0.5-0.2,0.7-0.2c0.2,0,0.5,0.2,0.6,0.4l2,2.9c0.3,0.4,0.2,1-0.2,1.3C34,30.5,33.8,30.5,33.6,30.5"/>
<path fill="#50B848" d="M25,35.1c-2.3,0-4.4-1-5.8-2.9c-0.3-0.4-0.2-1,0.2-1.3c0.4-0.3,1-0.2,1.3,0.2c1,1.3,2.6,2.1,4.3,2.1
	c3,0,5.4-2.4,5.4-5.4c0-0.5,0.4-0.9,0.9-0.9c0.5,0,0.9,0.4,0.9,0.9C32.2,31.9,29,35.1,25,35.1"/>
<path fill="#50B848" d="M36.2,43.2H13.8c-2.6,0-4.7-2.1-4.7-4.7c0,0,0-0.1,0-0.1L11,16.9c0-2.6,2.1-4.6,4.7-4.6h18.8
	c2.6,0,4.6,2.1,4.7,4.6l1.9,21.6c0,0,0,0.1,0,0.1C40.9,41.2,38.8,43.2,36.2,43.2 M11,38.6c0,1.5,1.3,2.8,2.8,2.8h22.5
	c1.5,0,2.8-1.2,2.8-2.8L37.2,17c0,0,0-0.1,0-0.1c0-1.5-1.3-2.8-2.8-2.8H15.6c-1.5,0-2.8,1.3-2.8,2.8c0,0,0,0.1,0,0.1L11,38.6z"/>
<path fill="#50B848" d="M31.3,13.5c-0.5,0-0.9-0.4-0.9-0.9V8.1c0-0.4-0.3-0.6-0.6-0.6h-9.5c-0.4,0-0.6,0.3-0.6,0.6v4.5
	c0,0.5-0.4,0.9-0.9,0.9c-0.5,0-0.9-0.4-0.9-0.9V8.1c0-1.4,1.1-2.5,2.5-2.5h9.5c1.4,0,2.5,1.1,2.5,2.5v4.5
	C32.3,13.1,31.8,13.5,31.3,13.5"/>
</svg>
