<?xml version="1.0" encoding="utf-8"?>
<!-- Generator: Adobe Illustrator 18.1.1, SVG Export Plug-In . SVG Version: 6.00 Build 0)  -->
<svg version="1.0" id="Isolation_Mode" xmlns="http://www.w3.org/2000/svg" xmlns:xlink="http://www.w3.org/1999/xlink" x="0px"
	 y="0px" viewBox="0 0 60 60" enable-background="new 0 0 60 60" xml:space="preserve">
<g>
	<polyline points="5.4,34.8 9.7,39.1 12.7,36.2 11.7,35.2 9.8,37 6.5,33.7 	"/>
	<polygon points="10.9,31 11.7,31.7 13.2,30.2 14.1,31.1 12.6,32.6 13.5,33.6 15.4,31.7 16.3,32.5 13.3,35.6 8.9,31.2 11.9,28.2 
		12.8,29.1 	"/>
	<path d="M20.6,28.2l-3-0.8l0,0c0.3-0.7,0.2-1.5-0.4-2.1c-0.6-0.6-1.7-0.6-2.5,0.1l0,0l-2.2,2.2l4.4,4.4l1.1-1.1l-3.5-3.5l0.7-0.7
		c0.3-0.3,0.8-0.3,1.1,0c0.3,0.3,0.3,0.8,0,1.1l-0.6,0.7l3.8,1.1L20.6,28.2z"/>
	<path d="M18.6,21.3c1.4-1.4,3.2-1.2,4.4,0c1.3,1.3,1.4,3.1,0,4.5c-1.4,1.4-3.2,1.2-4.4,0C17.4,24.4,17.3,22.6,18.6,21.3 M19.5,22.1
		c-0.7,0.7-0.5,1.5,0.4,2.4c0.8,0.8,1.7,1.1,2.4,0.4c0.7-0.7,0.5-1.5-0.4-2.4C21,21.7,20.2,21.4,19.5,22.1"/>
	<polygon points="24.4,19 23.6,16.5 24.9,15.2 25.9,19.4 27.7,21.1 26.6,22.3 24.9,20.6 20.8,19.3 22,18.1 24.4,19 	"/>
	<polygon points="44.5,34 48.9,29.7 47.7,28.5 43.4,32.9 	"/>
	<polygon points="27.9,17.3 31.3,15.7 28.8,18.2 29.8,19.2 34.1,14.8 32.7,13.4 29.5,15 29.5,15 31.1,11.8 29.7,10.4 25.3,14.7 
		26.3,15.7 28.8,13.2 27.2,16.6 	"/>
	<polygon points="35.4,17.9 34.7,18.7 36.4,20.3 35.5,21.2 33.8,19.6 32.8,20.5 34.9,22.5 34,23.4 30.9,20.3 35.2,15.9 38.3,19.1 
		37.5,20 	"/>
	<polygon points="39.6,29.1 42.6,32.1 43.6,31.1 41.7,29.2 45.1,25.8 44,24.7 	"/>
	<polygon points="51.4,32.1 50,36.8 50,36.8 53,33.7 54,34.8 49.6,39.2 48.3,37.8 49.5,33 49.5,33 46.5,36 45.5,35 49.8,30.6 	"/>
	<path d="M38.8,28.3l0.8-3l0,0c0.6,0.3,1.5,0.2,2.1-0.4c0.6-0.6,0.6-1.8-0.1-2.5v0L39.3,20L35,24.4l1.1,1.1l3.5-3.5l0.8,0.9
		c0.3,0.3,0.3,0.8,0,1.1c-0.3,0.3-0.8,0.3-1.1,0l-0.8-0.8l-0.9,3.9L38.8,28.3z"/>
	<polygon fill="#50B848" points="10.5,40 48.8,40 29.7,20.8 	"/>
	<path fill="#E4412B" d="M34.1,49.4c-0.1,0-0.2-0.1-0.2-0.2c-0.1-0.1,0-0.3,0.1-0.4c2.8-1.3,8.8-2.8,13.7-2c0.1,0,0.2,0.2,0.2,0.3
		c0,0.1-0.2,0.2-0.3,0.2c-4.9-0.8-10.7,0.7-13.4,1.9C34.2,49.4,34.2,49.4,34.1,49.4"/>
	<path d="M12.9,45.6c-0.9,1.5-1.3,2.2-1.3,2.5c0,0.2,0.1,0.3,0.5,0.3c1.2-0.1,3-1.2,2.9-2.6c-0.1-0.6-0.6-0.9-2-0.7
		c-0.5,0-0.7,0.1-1.3,0.3c-0.1,0-0.3,0.1-0.3,0.2c0,0,0,0,0,0c0,0,0.2,0.1,0.3,0.1c-0.4,0.2-0.6,0.3-1,0.4c-0.1,0-0.1,0-0.2,0
		c-0.1,0-0.1-0.1-0.1-0.2c-0.1-0.7,0.1-1,0.8-1.3c0.6-0.3,1.2-0.5,1.9-0.5c0.6-0.1,2-0.1,2.2,1.5c0.2,2.1-2.4,3.5-3.7,3.6
		c-0.3,0-0.5,0-0.6-0.6c-0.1-0.7,1-2.2,1.7-3.5L12.9,45.6z"/>
	<path d="M17.2,47c0,0.1,0,0.2,0,0.2c0,0.2-0.1,0.4-0.2,0.6c0,0,0,0,0,0.1c0,0,0.1,0.1,0.2,0.1c0.2,0,0.1-0.1,0.3-0.1
		c0.1,0,0.1,0,0.1,0c0,0.1-0.3,0.4-0.6,0.5c0,0-0.1,0-0.1,0c-0.3,0.4-0.6,0.5-0.8,0.6c-0.5,0.1-0.8-0.5-0.8-0.9
		c-0.1-0.6,0.8-1.6,1.5-1.7c0.2,0,0.4,0.1,0.4,0.2c0,0,0,0.1,0,0.2C17.2,46.6,17.2,46.8,17.2,47 M16.4,47.9c0-0.2,0-0.3,0-0.4
		c0.1-0.4,0.2-0.5,0.2-0.5c0,0-0.1-0.1-0.1-0.1c-0.1,0-0.5,0.3-0.6,0.5c-0.2,0.3-0.4,0.5-0.3,0.8c0,0.3,0.3,0.3,0.4,0.3
		c0.2,0,0.4-0.2,0.5-0.3C16.4,48.1,16.4,48,16.4,47.9"/>
	<path d="M20.9,46.1c0.1,0,0.2,0.2,0.3,0.3c0,0.2-0.2,0.3-0.3,0.5c-0.1,0.1-0.3,0.4-0.3,0.6c0,0.2,0.2,0.2,0.2,0.2
		c0.1,0,0.3-0.1,0.4-0.3c0.1-0.2,0.2-0.2,0.2-0.2c0,0,0.1,0,0.1,0.1c0,0.1-0.2,0.3-0.2,0.4c-0.2,0.3-0.6,0.7-0.9,0.8
		c-0.3,0-0.4-0.1-0.4-0.3c0-0.4,0.3-0.7,0.5-1.2c-1,0.7-1.4,1.6-1.6,1.6c-0.1,0-0.1-0.2-0.2-0.4c0-0.1,0.1-0.3,0.2-0.6
		c0.2-0.4,0.2-0.6,0.2-0.6c0-0.5-0.9,1.6-1.5,1.6c-0.2,0-0.3-0.2-0.3-0.4c0-0.3,0.3-0.9,0.5-0.9c0,0,0.1,0,0.1,0
		c0,0.1-0.1,0.2-0.1,0.6c0,0.1,0,0.2,0.1,0.2c0.1,0,0.4-0.6,0.9-1.1c0.2-0.2,0.8-0.9,1-0.9c0.1,0,0.2,0.1,0.2,0.4
		c0,0.1-0.1,0.2-0.1,0.3c-0.3,0.4-0.4,0.6-0.3,0.8l0,0.1C20.6,46.3,20.8,46.2,20.9,46.1"/>
	<path d="M24.2,48.6c-0.3,0.7-0.6,1.4-0.9,1.5c0,0-0.2,0-0.3-0.5c-0.1-0.9,0.3-1,1-1.5c0.1-0.3,0.3-0.7,0.4-1
		c-0.6,0.6-0.9,0.9-1.1,0.9c-0.3,0-0.7-0.6-0.7-0.8c-0.1-0.8,1.6-1.7,2.3-1.8c0.2,0,0.4,0.1,0.4,0.6c0,0.2,0,0.2,0,0.2L24.5,48
		l1.1-0.6c0,0,0.2-0.1,0.2,0c0,0.1,0,0.1-0.1,0.1l-1.4,0.9L24.2,48.6z M23.3,47.5c0.3,0,1.6-1.2,1.6-1.5c0,0,0-0.1-0.1-0.1
		c-0.2,0-0.8,0.3-1.1,0.6c-0.3,0.2-0.5,0.5-0.5,0.8C23.2,47.5,23.2,47.5,23.3,47.5C23.2,47.5,23.3,47.5,23.3,47.5 M23.2,49.5
		c0,0,0,0.1,0,0.1c0.3-0.1,0.3-0.3,0.5-0.8l0.1-0.3C23.1,48.8,23.2,49.5,23.2,49.5"/>
	<path d="M25.8,47.9c-0.1,0-0.3-0.2-0.3-0.4c0-0.3,0.2-0.9,0.4-0.9c0.1,0,0.1,0,0.1,0c0,0,0,0,0,0.1c-0.1,0.2,0,0.3,0,0.5
		c0,0.1,0,0.2,0.1,0.2c0.1,0,0.4-0.6,0.9-1.1c0.1-0.1,0.7-0.7,0.9-0.8c0.1,0,0.2,0.2,0.2,0.3c0,0.1-0.1,0.2-0.3,0.5
		c-0.1,0.2-0.3,0.4-0.2,0.6c0,0.1,0.1,0.2,0.2,0.1c0.4,0,0.3-0.5,0.6-0.5c0,0,0.1,0,0.1,0.1c0,0.1-0.3,0.5-0.4,0.6
		c-0.2,0.3-0.4,0.5-0.7,0.6c-0.2,0-0.4-0.1-0.4-0.5c0-0.1,0-0.4,0.4-1C26.3,46.9,27,47.7,25.8,47.9"/>
	<path d="M30.7,45.7C30.7,45.7,30.7,45.7,30.7,45.7c0,0.1,0,0.2,0,0.2c0,0.3,0,0.3-0.2,0.4c-0.1,0.1-0.4,0.3-0.3,0.6
		c0,0.1,0.1,0.1,0.2,0.1c0.1,0,0.2-0.1,0.4-0.2c0.1-0.1,0.1-0.1,0.2-0.1c0.1,0,0.1,0,0.1,0.1c0,0.2-0.8,0.8-1,0.8
		c-0.2,0-0.3-0.1-0.3-0.2c0-0.1,0-0.1,0-0.2c0-0.2,0.1-0.5,0.2-0.7c-0.1,0.1-0.2,0.2-0.3,0.2c-0.6,1.2-1.1,1.6-1.5,1.6
		c-0.1,0-0.3,0-0.3-0.1c0-0.1,0.3-0.6,0.3-0.7c0.1,0.1,0.2,0.1,0.2,0.1c0.3,0,0.6-0.5,0.8-0.8c-0.2,0.1-0.4,0.2-0.5,0.2
		c-0.2,0-0.3,0.1-0.4-0.6c0-0.2,0-0.4,0.6-1c0.3-0.4,0.8-0.7,1.1-0.7c0.2,0,0.3,0.2,0.4,0.6c0,0.2-0.1,0.4-0.4,0.8
		C30.4,45.9,30.6,45.7,30.7,45.7 M29.9,45.5c0-0.1-0.1-0.1-0.2-0.1c-0.4,0-1.1,0.6-1.1,0.8c0,0.1,0.1,0.1,0.3,0.1
		c0.2,0,0.4,0,0.6-0.1C29.9,45.7,29.9,45.6,29.9,45.5"/>
	<path d="M35.1,43.4c-0.9,1.5-1.3,2.2-1.3,2.5c0,0.2,0.1,0.3,0.5,0.3c1.2-0.1,3-1.2,2.9-2.6c-0.1-0.6-0.6-0.8-2-0.7
		c-0.5,0-0.7,0.1-1.3,0.3c-0.1,0-0.3,0.1-0.3,0.2c0,0,0,0,0,0c0,0,0.2,0.1,0.3,0.1c-0.4,0.2-0.6,0.3-1,0.4c-0.1,0-0.1,0-0.2,0
		c-0.1,0-0.1-0.1-0.1-0.2c-0.1-0.7,0.1-1,0.8-1.3c0.6-0.3,1.2-0.5,2-0.5c0.6-0.1,2-0.1,2.2,1.5c0.2,2.1-2.4,3.5-3.7,3.6
		c-0.3,0-0.5,0-0.6-0.6c-0.1-0.7,1-2.2,1.7-3.5L35.1,43.4z"/>
	<path d="M39.3,44.8c0,0.1,0,0.2,0,0.2c0,0.2-0.1,0.4-0.2,0.6c0,0,0,0,0,0.1c0,0,0.1,0.1,0.2,0.1c0.2,0,0.1-0.1,0.3-0.1
		c0.1,0,0.1,0,0.1,0c0,0.1-0.3,0.4-0.6,0.5c0,0-0.1,0-0.1,0c-0.3,0.4-0.5,0.5-0.8,0.6c-0.5,0.1-0.8-0.5-0.8-0.9
		c-0.1-0.6,0.8-1.6,1.5-1.7c0.2,0,0.4,0.1,0.4,0.2c0,0,0,0.1,0,0.2C39.3,44.5,39.3,44.7,39.3,44.8 M38.5,45.8c0-0.2,0-0.3,0-0.4
		c0.1-0.4,0.2-0.5,0.2-0.5c0,0-0.1-0.1-0.1-0.1c-0.1,0-0.5,0.3-0.6,0.5c-0.2,0.3-0.4,0.5-0.3,0.8c0,0.3,0.3,0.3,0.4,0.3
		c0.2,0,0.4-0.2,0.6-0.3C38.6,46,38.5,45.9,38.5,45.8"/>
	<path d="M43.1,44c0.1,0,0.2,0.2,0.3,0.3c0,0.2-0.2,0.3-0.3,0.5c-0.1,0.1-0.3,0.4-0.3,0.6c0,0.2,0.2,0.2,0.2,0.2
		c0.1,0,0.3-0.1,0.4-0.3c0.1-0.2,0.2-0.2,0.2-0.2c0,0,0.1,0,0.1,0.1c0,0.1-0.2,0.3-0.2,0.4c-0.2,0.3-0.6,0.7-0.9,0.8
		c-0.3,0-0.4-0.1-0.4-0.3c0-0.4,0.3-0.7,0.5-1.2c-1,0.7-1.4,1.6-1.6,1.6c-0.1,0-0.1-0.2-0.2-0.4c0-0.1,0.1-0.3,0.2-0.6
		c0.2-0.4,0.2-0.6,0.2-0.6c0-0.4-0.9,1.6-1.5,1.6c-0.2,0-0.3-0.2-0.3-0.4c0-0.3,0.3-0.9,0.5-0.9c0,0,0.1,0,0.1,0
		c0,0.1-0.1,0.2-0.1,0.6c0,0.1,0,0.2,0.1,0.2c0.1,0,0.4-0.6,0.9-1.1c0.2-0.2,0.8-0.9,1-0.9c0.1,0,0.2,0.1,0.2,0.4
		c0,0.1-0.1,0.2-0.1,0.3c-0.3,0.4-0.4,0.6-0.3,0.8l0,0.1C42.7,44.2,43,44,43.1,44"/>
	<path d="M45.9,44.1c0,0.1-0.1,0.2-0.2,0.5c-0.1,0.2-0.2,0.4-0.2,0.6c0,0.2,0.2,0.2,0.3,0.2c0.1,0,0.2-0.1,0.5-0.3
		c0.1-0.1,0.2-0.2,0.2-0.2c0,0,0,0,0,0c0,0.1-0.1,0.2-0.4,0.5c-0.3,0.3-0.5,0.6-0.8,0.6c-0.2,0-0.4-0.1-0.4-0.3
		c0-0.3,0.1-0.5,0.2-0.9c-0.9,1.1-1.1,1.2-1.2,1.2c-0.2,0-0.4-0.5-0.5-0.8c0-0.5,0.4-1,0.8-1.3c0.4-0.3,1-0.7,1.3-0.7
		c0.2,0,0.3,0.1,0.3,0.2c0,0.1-0.1,0.2-0.2,0.2C45.8,43.9,45.9,44,45.9,44.1 M43.9,45.6C44,45.6,44,45.6,43.9,45.6
		c0.5-0.1,1.4-1.1,1.4-1.4c0-0.1-0.1-0.1-0.1-0.1c-0.6,0.1-1.4,0.7-1.3,1.3C43.8,45.5,43.9,45.5,43.9,45.6"/>
	<path d="M46.7,45.7c0-0.1,0.1-0.6,0.3-0.6c0.1,0,0.4,0.1,0.4,0.3c0,0.1-0.1,0.6-0.2,0.6C47,46,46.8,45.9,46.7,45.7 M48.5,41.8
		c0.1,0,0.4,0.1,0.4,0.2c0,0.1-0.1,0-0.9,1.4c-0.4,0.8-0.4,1.3-0.6,1.4c-0.1,0-0.3-0.1-0.4-0.4c0-0.5,0.7-1.8,1.2-2.4
		C48.2,41.9,48.3,41.8,48.5,41.8"/>
</g>
</svg>
