<?xml version="1.0" encoding="utf-8"?>
<!-- Generator: Adobe Illustrator 18.0.0, SVG Export Plug-In . SVG Version: 6.00 Build 0)  -->
<!DOCTYPE svg PUBLIC "-//W3C//DTD SVG 1.0//EN" "http://www.w3.org/TR/2001/REC-SVG-20010904/DTD/svg10.dtd">
<svg version="1.0" id="Layer_1" xmlns="http://www.w3.org/2000/svg" xmlns:xlink="http://www.w3.org/1999/xlink" x="0px" y="0px"
	 viewBox="0 0 100 100" enable-background="new 0 0 100 100" xml:space="preserve">
<g>
	<g>
		<path fill-rule="evenodd" clip-rule="evenodd" fill="#4EB748" d="M71.5,31.7c0.5,0,1,0.5,1,1l0-1H71.5z M31.5,31.7h-1l0,1
			C30.5,32.2,31,31.7,31.5,31.7z M71.5,29.8h-40c-1.7,0-3,1.3-3,3v2.7l2,0l0-2.7c0,0,0,0,0,0v-1.1h42v1.1c0,0,0,0,0-0.1l0,26
			c0,0.6-0.5,1-1,1h-3v2h3c1.7,0,3-1.3,3-3v-26C74.5,31.1,73.2,29.8,71.5,29.8z M55.5,51.8c0.6,0,1-0.4,1-1c0-0.6-0.4-1-1-1h-6
			c-0.6,0-1,0.4-1,1c0,0.6,0.4,1,1,1H55.5z M35,42.7l-6.5,10.1h13L35,42.7z M61.5,44.8h-12c-0.6,0-1,0.4-1,1c0,0.6,0.4,1,1,1h12
			c0.6,0,1-0.4,1-1C62.5,45.2,62.1,44.8,61.5,44.8z M60.5,56.8h-31c-0.6,0-1,0.4-1,1c0,0.6,0.4,1,1,1h31c0.6,0,1-0.4,1-1
			C61.5,57.2,61.1,56.8,60.5,56.8z"/>
	</g>
</g>
<path fill-rule="evenodd" clip-rule="evenodd" d="M65.5,66.8h-40c-1.7,0-3-1.3-3-3v-26c0-1.7,1.3-3,3-3h40c1.7,0,3,1.3,3,3v26
	C68.5,65.4,67.2,66.8,65.5,66.8z M66.5,37.8c0-0.6-0.5-1-1-1h-40c-0.6,0-1,0.5-1,1v-1.1h42V37.8z M66.5,36.7h-42l0,27
	c0,0.6,0.5,1,1,1h40c0.6,0,1-0.5,1-1L66.5,36.7z"/>
</svg>
