<svg version="1" xmlns="http://www.w3.org/2000/svg" viewBox="0 0 213.8 130.8"><path fill="#D1D1D1" d="M185.1 19.9h28.7V113h-28.7z"/><path fill="#4CBC38" d="M2.3 128.1c0-.3 0-.8-.5-.8s-.5.5-.5.8v.9c0 .3 0 .8.5.8s.5-.5.5-.8v-.9zm0-2.8c0-.3 0-.8-.5-.8s-.5.5-.5.8v.5c0 .3 0 .8.5.8s.5-.5.5-.8v-.5zm1 .7c0 .4-.1.7-.5 1.1.5.4.5.8.5 1.2v.9c0 .2 0 1.6-1.5 1.6s-1.5-1.4-1.5-1.6v-.9c0-.4-.1-.9.5-1.2-.4-.4-.5-.7-.5-1.1v-.8c0-.2 0-1.6 1.5-1.6s1.5 1.4 1.5 1.6v.8zM4.2 127.2h2.2v.9H4.2zM9.5 128.1c0-.3 0-.8-.5-.8s-.5.5-.5.8v.9c0 .3 0 .8.5.8s.5-.5.5-.8v-.9zm0-2.8c0-.3 0-.8-.5-.8s-.5.5-.5.8v.5c0 .3 0 .8.5.8s.5-.5.5-.8v-.5zm1 .7c0 .4-.1.7-.5 1.1.5.4.5.8.5 1.2v.9c0 .2 0 1.6-1.5 1.6s-1.5-1.4-1.5-1.6v-.9c0-.4-.1-.9.5-1.2-.4-.4-.5-.7-.5-1.1v-.8c0-.2 0-1.6 1.5-1.6s1.5 1.4 1.5 1.6v.8zM13.6 128c0-.2 0-.3-.1-.4-.1-.1-.2-.2-.4-.2-.1 0-.3 0-.4.2-.1.1-.2.2-.2.4v1.2c0 .1 0 .3.1.4.1.1.2.2.4.2s.3-.1.4-.2c.1-.1.1-.3.1-.5V128zm.6-4.3l-1.2 3c.1-.1.4-.1.5-.1.2 0 .5.1.8.4.1.1.3.4.3.9v1.4c0 .6-.2.9-.4 1.1-.3.3-.7.4-1.1.4-.4 0-.8-.1-1.1-.4-.4-.4-.4-.8-.4-1.2v-1c0-.7.2-1 .4-1.4l1.2-3.1h1zM15.7 125c0-.3.1-.8.5-1.1.3-.2.6-.3 1-.3s.8.1 1.1.3c.2.2.5.6.5 1.1v1c0 .3-.1.8-.6 1 .6.2.6.8.6 1.3v.7c0 .6 0 1-.4 1.4-.3.3-.8.4-1.2.4-.4 0-.8-.1-1.1-.4-.2-.2-.4-.5-.4-1v-.7h1v.5c0 .2 0 .4.1.5.1.1.2.2.4.2s.5-.1.5-.6v-1c0-.2 0-.3-.1-.5-.1-.1-.3-.1-.4-.1H17v-.9h.2c.1 0 .3 0 .4-.2.1-.2.2-.4.2-.5v-.9c0-.2-.1-.3-.2-.4-.1-.1-.2-.1-.4-.1s-.3.1-.4.2c-.1.2-.1.3-.1.5v.4h-1v-.8zM19.7 127.2h2.2v.9h-2.2zM22.9 125.2c0-.6.2-1 .4-1.2.4-.4.8-.4 1.1-.4.4 0 .8.1 1.2.5.2.3.4.7.4 1.1v.4c0 .2 0 .4-.1.6-.1.3-.2.4-.2.6l-1.6 3H26v.9h-3.1v-.9l1.8-3.3c.1-.1.2-.4.2-.5 0-.2.1-.4.1-.6v-.2c0-.2-.1-.4-.2-.5-.1-.1-.2-.2-.4-.2s-.4.1-.4.2c-.1.2-.1.4-.1.6v.3h-1v-.4zM29 125.3c0-.2 0-.4-.1-.6-.1-.1-.2-.2-.4-.2s-.3.1-.4.2c-.1.2-.1.4-.1.6v3.7c0 .2 0 .4.1.6.1.2.3.2.4.2.2 0 .3-.1.4-.2.1-.2.1-.4.1-.6v-3.7zm-2-.1c0-.3 0-.9.5-1.3.3-.2.7-.3 1.1-.3.4 0 .8.1 1.2.5.4.4.4.8.4 1.2v4c0 .4 0 .9-.5 1.3-.3.2-.7.4-1 .4-.5 0-.8-.1-1-.3-.5-.4-.5-.8-.5-1.3v-4.2zM33.4 123.7l-1.5 5h1v-2h1v2h.5v.9h-.5v1.1h-1v-1.1h-2v-.8l1.5-5.1M37.5 123.7l-1.5 5h1v-2h1v2h.5v.9H38v1.1h-1v-1.1h-2v-.8l1.5-5.1M41.6 123.7l-1.5 5h1v-2h1v2h.5v.9h-.5v1.1h-1v-1.1h-2v-.8l1.5-5.1M45.5 128c0-.2 0-.3-.1-.4-.1-.1-.2-.2-.4-.2-.1 0-.3 0-.4.2-.1.1-.2.2-.2.4v1.2c0 .1 0 .3.1.4.1.1.2.2.4.2s.3-.1.4-.2c.1-.1.1-.3.1-.5V128zm.6-4.3l-1.2 3c.1-.1.4-.1.5-.1.2 0 .5.1.8.4.1.1.3.4.3.9v1.4c0 .6-.2.9-.4 1.1-.3.3-.7.4-1.1.4-.4 0-.8-.1-1.1-.4-.4-.4-.4-.8-.4-1.2v-1c0-.7.2-1 .4-1.4l1.2-3.1h1zM49.6 128c0-.2 0-.3-.1-.4-.1-.1-.2-.2-.4-.2-.1 0-.3 0-.4.2-.1.1-.2.2-.2.4v1.2c0 .1 0 .3.1.4 0 .1.2.2.4.2s.3-.1.4-.2c.1-.1.1-.3.1-.5V128zm.7-4.3l-1.2 3c.1-.1.4-.1.5-.1.2 0 .5.1.8.4.1.1.3.4.3.9v1.4c0 .6-.2.9-.4 1.1-.3.3-.7.4-1.1.4-.4 0-.8-.1-1-.4-.4-.4-.5-.8-.5-1.2v-1c0-.7.2-1 .4-1.4l1.2-3.1h1zM55.6 126.4c.4 0 .8.3.8.8 0 .4-.3.8-.8.8-.4 0-.8-.3-.8-.8 0-.4.4-.8.8-.8zM61.2 123.7l.6 4.3.8-4.3h.8l.8 4.3.6-4.3h1l-1.1 7h-.9l-.8-4.5-.8 4.5h-.9l-1.1-7M67.1 123.7l.6 4.3.8-4.3h.8l.8 4.3.6-4.3h1l-1.1 7h-.9l-.8-4.5-.8 4.5h-.9l-1.1-7M73 123.7l.6 4.3.8-4.3h.8l.8 4.3h.1l.5-4.3h1.1l-1.1 7h-.9l-.8-4.5h-.1l-.8 4.5h-.9l-1.1-7M77.6 129.6h1.1v1.1h-1.1zM80.8 123.7v6h2.1v1h-3.1v-7M83.8 123.7h3v.9h-2v2.1h1.7v.9h-1.7v2.1h2v1h-3M88.7 126.8h.6c.2 0 .4-.1.6-.2.2-.2.2-.4.2-.6v-.5c0-.3-.1-.5-.2-.6-.2-.2-.4-.2-.7-.2h-.5v2.1zm.3-3.1c.5 0 1.2 0 1.7.6.2.3.4.7.4 1.2v.5c0 .5-.2.9-.4 1.1-.2.2-.3.3-.5.4l1.1 3.2h-1l-1-3h-.6v3h-1v-7H89zM94.5 125.4c0-.2 0-.4-.2-.6-.1-.1-.3-.2-.5-.2s-.4.1-.5.2c-.2.2-.2.4-.2.6v3.6c0 .2 0 .4.2.6.1.1.3.2.5.2s.4-.1.5-.2c.2-.2.2-.4.2-.6v-3.6zm-2.5.1c0-.5 0-1 .5-1.5.3-.3.7-.4 1.2-.4s.9.2 1.2.4c.5.5.5 1 .5 1.5v3.3c0 .5 0 1-.5 1.5-.3.3-.7.4-1.2.4s-.9-.2-1.2-.4c-.5-.5-.5-1-.5-1.5v-3.3zM98.3 127.7v3h-1v-3l-1.4-4H97l.8 2.8h.1l.8-2.8h1.1M100.4 123.7h1l1.4 3.8h.1l1.3-3.8h1v7h-1v-4.4h-.1l-1 3.2h-.6l-1-3.2h-.1v4.4h-1M106.3 123.7h3v.9h-2v2.1h1.8v.9h-1.8v2.1h2v1h-3M111.2 126.8h.6c.2 0 .4-.1.6-.2.2-.2.2-.4.2-.6v-.5c0-.3-.1-.5-.2-.6-.2-.2-.4-.2-.6-.2h-.5v2.1zm.3-3.1c.5 0 1.2 0 1.7.6.2.3.4.7.4 1.2v.5c0 .5-.2.9-.4 1.1-.1.2-.3.3-.5.4l1.1 3.2h-1l-1-3h-.6v3h-1v-7h1.3zM115.6 123.7v6h2.1v1h-3.1v-7M118.6 123.7h1v7h-1zM121.7 123.7l1.7 4.4v-4.4h1v7h-1l-1.7-4.4v4.4h-1v-7M125.5 129.6h1.1v1.1h-1.1zM128.7 126.8h.6c.2 0 .4-.1.6-.2.2-.2.2-.4.2-.6v-.5c0-.3-.1-.5-.2-.6-.2-.2-.4-.2-.7-.2h-.5v2.1zm.3-3.1c.5 0 1.2 0 1.7.6.2.3.4.7.4 1.2v.5c0 .5-.2.9-.4 1.1-.2.2-.4.3-.5.4l1.1 3.2h-1l-1-3h-.6v3h-1v-7h1.3zM133.1 123.7v5.3c0 .5.2.8.7.8s.7-.3.7-.8v-5.3h1v5.2c0 1.5-.9 1.9-1.7 1.9s-1.7-.4-1.7-1.9v-5.2h1zM139.5 123.7l-2.9 7h-.8l2.9-7M142.2 125.4c0-.2 0-.4-.2-.6-.1-.1-.2-.2-.5-.2-.1 0-.3 0-.5.2s-.2.5-.2.7c0 .2 0 .5.2.7.1.2.3.2.5.3l.6.2c.3.1.6.2.9.6.3.4.3.8.3 1.2v.2c0 .7-.2 1.2-.5 1.6-.3.3-.7.5-1.3.5-.7 0-1.2-.3-1.4-.6-.3-.4-.3-1.1-.3-1.2v-.2h1v.2c0 .2 0 .4.2.6.2.2.4.2.6.2.4 0 .6-.1.6-.2.2-.2.2-.5.2-.7v-.3c0-.2 0-.5-.2-.7-.1-.2-.4-.3-.5-.3l-.7-.3c-.4-.1-.7-.3-.9-.8-.1-.3-.2-.7-.2-1v-.2c0-.6.2-1 .5-1.3.3-.3.8-.4 1.2-.4 1 0 1.7.7 1.7 1.8v.2h-1v-.2zM146.5 125.3c0-.1 0-.3-.1-.5-.1-.1-.2-.2-.5-.2s-.4.1-.5.2c-.2.2-.2.5-.2.7v3.5c0 .2 0 .4.1.6.1.1.2.2.5.2.2 0 .4-.1.6-.2.1-.1.1-.2.1-.6v-.2h1v.3c0 .7-.2 1.1-.4 1.3-.2.2-.6.5-1.3.5-.7 0-1-.3-1.3-.5-.4-.4-.4-.9-.4-1.3v-3.6c0-.5.1-1 .5-1.4.3-.3.8-.4 1.1-.4.4 0 .9.2 1.2.4.2.2.4.7.4 1.2v.5h-1v-.5zM149.5 125.6l-.5 2.7h1.1l-.6-2.7zm1 5.1l-.3-1.5h-1.3l-.3 1.5h-1l1.5-7h.9l1.5 7h-1zM153.3 126.8h.6c.2 0 .4-.1.6-.2.2-.2.2-.4.2-.6v-.5c0-.3-.1-.5-.2-.6-.2-.2-.4-.2-.7-.2h-.5v2.1zm.3-3.1c.5 0 1.2 0 1.7.6.2.3.4.7.4 1.2v.5c0 .5-.2.9-.4 1.1-.2.2-.4.3-.5.4l1.1 3.2h-1l-1-3h-.6v3h-1v-7h1.3zM157.7 129.7h.5c.2 0 .5 0 .7-.2.2-.2.2-.6.2-.8v-3.1c0-.2 0-.4-.2-.6-.2-.2-.4-.2-.6-.2h-.5v4.9zm.4-6c.4 0 1 0 1.5.4.5.5.5 1.2.5 1.5v3.1c0 .5-.1 1-.4 1.4-.4.5-1 .5-1.4.5h-1.5v-7h1.3zM.9 101.6h.3c.1 0 .3 0 .5-.2.1-.2.1-.4.1-.5v-.2c0-.2 0-.4-.2-.5-.1-.1-.2-.1-.4-.1H.9v1.5zm0-2.2h.3c.2 0 .4-.1.4-.2.1-.1.1-.3.1-.4v-.3c0-.1-.1-.2-.1-.3-.1-.1-.2-.2-.4-.2H.9v1.4zm.2-1.9c.2 0 .6 0 .9.2.4.3.4.8.4 1.1 0 .3 0 .5-.2.7-.1.1-.2.2-.3.2.2.1.3.2.3.3.1.2.1.4.1.6v.4c0 .2 0 .7-.4 1-.1.1-.4.2-.8.2h-1v-4.8h1zM4.7 98.6c0-.1 0-.2-.1-.3 0 0-.1-.2-.4-.2-.2 0-.3.1-.4.2-.1.1-.1.3-.1.5v2.3c0 .2 0 .3.1.4 0 .1.2.2.3.2.2 0 .3-.1.4-.2 0-.1.1-.2.1-.4v-.2h.7v.2c0 .5-.2.7-.3.9-.1.2-.4.3-.9.3s-.7-.2-.9-.4c-.2-.3-.2-.6-.2-.9v-2.5c0-.3 0-.7.4-.9.2-.2.5-.3.8-.3.3 0 .6.1.8.3.2.2.3.5.3.8v.3h-.6v-.1zM6 97.5h2v.6H6.7v1.4h1.2v.6H6.7v1.5H8v.6H6M8.6 97.5h2.1v.6H9.3v4.1h-.7M11.7 98.1v.4c0 1.2-.1 1.8-.1 2.2-.1.3-.1.6-.3 1h1v-3.6h-.6zm1.6 3.5v1.3h-.6v-.7h-1.8v.7h-.6v-1.3h.3c.2-.3.3-.7.3-1.1.1-.7.1-1.8.1-2.7v-.3h1.9v4.1h.4zM14.7 98.8l-.4 1.8h.7l-.3-1.8zm.7 3.4l-.2-1h-.9l-.2 1h-.7l1-4.8h.6l1 4.8h-.6zM20.3 97.5v4.7h-.7v-4.1h-.9v4.1H18v-4.7M21.7 99.7h.4c.1 0 .3 0 .5-.2.1-.2.1-.3.1-.5v-.3c0-.2 0-.4-.2-.6-.2-.1-.4-.1-.5-.1h-.2v1.7zm-.7-2.2h1c.3 0 .7 0 1 .3.3.3.3.7.3 1.1v.1c0 .3 0 .7-.3 1-.3.3-.6.4-.9.4h-.4v1.9H21v-4.8zM23.9 97.5h2v.6h-1.3v1.4h1.2v.6h-1.2v1.5H26v.6h-2.1M27.6 98.1v.4c0 1.2-.1 1.8-.1 2.2-.1.3-.1.6-.3 1h1v-3.6h-.6zm1.6 3.5v1.3h-.6v-.7h-1.8v.7h-.6v-1.3h.3c.2-.3.3-.7.4-1.1.1-.7.1-1.8.1-2.7v-.3h1.9v4.1h.3zM30.8 101.6h.3c.2 0 .6 0 .6-.7v-.3c0-.2 0-.4-.2-.5-.1-.1-.2-.1-.4-.1h-.3v1.6zm.3-2.2c.3 0 .6 0 .9.3.3.3.3.6.3.8v.6c0 .2 0 .5-.2.8-.1.2-.4.5-1 .5h-1v-4.1h-.9v-.6h1.5v1.9h.4zM34.2 98.1c-.1 0-.3 0-.4.1-.1.1-.2.2-.2.4v.4c0 .2 0 .3.1.4.1.1.3.2.4.2h.4v-1.5h-.3zm1 4.1h-.7v-2.1h-.4l-.6 2.1h-.7l.7-2.2c-.2-.1-.3-.2-.3-.3-.1-.2-.2-.5-.2-.7v-.4c0-.4.1-.6.2-.8.3-.4.8-.4 1.2-.4h.9v4.8zM36.6 101.6h.3c.1 0 .3 0 .5-.2.1-.2.1-.4.1-.5v-.2c0-.2 0-.4-.2-.5-.1-.1-.2-.1-.4-.1h-.3v1.5zm0-2.2h.4c.2 0 .4-.1.4-.2.1-.1.1-.3.1-.4v-.3c0-.1-.1-.2-.1-.3-.1-.1-.2-.2-.4-.2h-.3v1.4zm.3-1.9c.2 0 .6 0 .9.2.4.3.4.8.4 1.1 0 .3 0 .5-.2.7-.1.1-.2.2-.3.2.2.1.3.2.3.3.1.2.1.4.1.6v.4c0 .2 0 .7-.4 1-.2.1-.4.2-.8.2h-1v-4.8h1zM41.2 102.2h-.7V98H40v.7c0 .8 0 1.2-.1 1.6 0 .5-.1.8-.1.9 0 .2-.1.5-.3.7-.3.3-.5.3-.8.3h-.2v-.6h.1c.1 0 .2 0 .3-.1.2-.1.2-.3.2-.3.1-.2.1-.9.1-1.2v-2.6h1.9v4.8zM43.1 98.1c-.1 0-.3 0-.4.1-.1.1-.2.2-.2.4v.4c0 .2 0 .3.1.4.1.1.3.2.4.2h.4v-1.5h-.3zm1 4.1h-.7v-2.1H43l-.6 2.1h-.7l.7-2.2c-.2-.1-.3-.2-.3-.3-.1-.2-.2-.5-.2-.7v-.4c0-.4.1-.6.3-.8.3-.4.8-.4 1.2-.4h.9v4.8zM47 96.4c0 .3-.1.5-.2.5-.1.1-.4.2-.6.2-.3 0-.5-.1-.6-.2-.1-.1-.2-.3-.2-.5v-.1h.5v.1c0 .1 0 .1.1.2s.1.1.2.1.1 0 .2-.1.1-.1.1-.2v-.1l.5.1zm-1.4 1.1v2.9l1.1-2.4v-.5h.7v4.8h-.7v-2.9l-1.1 2.4v.5h-.7v-4.8h.7zM50.2 97.5v.6h-.9v4.1h-.7v-4.1h-.8v-.6M50.5 97.5h2.1v.6h-1.4v1.4h1.2v.6h-1.2v1.5h1.4v.6h-2.1M55.4 101.6h.3c.1 0 .3 0 .5-.2.1-.2.1-.4.1-.5v-.2c0-.2 0-.4-.2-.5-.1-.1-.2-.1-.4-.1h-.3v1.5zm0-2.2h.3c.2 0 .4-.1.4-.2.1-.1.1-.3.1-.4v-.3c0-.1-.1-.2-.1-.3-.1-.1-.2-.2-.4-.2h-.3v1.4zm.2-1.9c.2 0 .6 0 .9.2.5.3.5.8.5 1.1 0 .3 0 .5-.2.7-.1.1-.2.2-.3.2.2.1.3.2.3.3.1.2.1.4.1.6v.4c0 .2 0 .7-.4 1-.1.1-.4.2-.8.2h-1v-4.8h.9zM58.7 98.8l-.4 1.8h.7l-.3-1.8zm.6 3.4l-.2-1h-.9l-.2 1h-.7l1-4.8h.7l1 4.8h-.7zM60.4 97.5h.7v4.1h.8v-4.1h.6v4.1h.8v-4.1h.7v4.7h-3.6M65.1 97.5l.7 2.3c0-.3.1-.7.2-1l.3-1.4h.7l-.8 3.2c-.1.5-.2 1.1-.6 1.4-.2.1-.4.1-.6.1h-.2v-.6h.2c.1 0 .3-.1.3-.1.1-.1.1-.2.1-.3l.1-.4-1.1-3.3h.7zM69.5 97.5v2h.4c.1 0 .2 0 .3-.1.1-.1.1-.3.2-.6v-.4c0-.3.1-.5.3-.7.2-.2.5-.2.6-.2h.1v.5h-.1c-.1 0-.1 0-.2.1s-.1.2-.1.5l-.1.5c0 .2 0 .4-.1.5 0 .1-.1.2-.2.2l.7 2.5h-.7l-.6-2.1h-.5v2.1h-.7v-4.8h.7zM72.9 98.8l-.4 1.8h.7l-.3-1.8zm.6 3.4l-.2-1h-.9l-.2 1h-.7l1-4.8h.6l1 4.8h-.6zM75.3 99.7h.4c.1 0 .3 0 .5-.2.1-.2.1-.3.1-.5v-.3c0-.2 0-.4-.2-.6-.2-.1-.3-.1-.5-.1h-.2v1.7zm-.7-2.2h1c.3 0 .7 0 1 .3.3.3.3.7.3 1.1v.1c0 .3 0 .7-.3 1-.3.3-.6.4-.9.4h-.4v1.9h-.7v-4.8zM79.3 97.5v.6h-.8v4.1h-.7v-4.1h-.9v-.6M80.1 97.5l.7 2.3c0-.3.1-.7.2-1l.3-1.4h.7l-.8 3.2c-.1.5-.2 1.1-.6 1.4-.2.1-.4.1-.6.1h-.2v-.6h.2c.1 0 .3-.1.3-.1.1-.1.1-.2.1-.3l.1-.4-1.1-3.3h.7zM84.5 97.5v2h.9v-2h.7v4.7h-.7v-2.1h-.9v2.1h-.7v-4.7M87.8 98.8l-.4 1.8h.7l-.3-1.8zm.7 3.4l-.2-1h-.9l-.2 1h-.7l1-4.8h.6l1 4.8h-.6zM91.8 97.5v2h.4c.1 0 .2 0 .3-.1.1-.1.1-.3.2-.6v-.4c0-.3.1-.5.3-.7.2-.2.5-.2.6-.2h.1v.5h-.1c-.1 0-.1 0-.2.1s-.1.2-.1.5l-.1.5c0 .2 0 .4-.1.5 0 .1-.1.2-.2.2l.7 2.5H93l-.6-2.1h-.6v2.1h-.7v-4.8h.7zM95.2 98.8l-.4 1.8h.7l-.3-1.8zm.6 3.4l-.2-1h-.9l-.2 1h-.7l1-4.8h.6l1 4.8h-.6zM98.5 98.6c0-.1 0-.2-.1-.3 0 0-.1-.2-.4-.2-.2 0-.3.1-.4.2-.1.1-.1.3-.1.5v2.3c0 .2 0 .3.1.4 0 .1.2.2.3.2.2 0 .3-.1.4-.2 0-.1.1-.2.1-.4v-.2h.7v.2c0 .5-.2.7-.3.9-.1.2-.4.3-.9.3s-.7-.2-.9-.4c-.2-.3-.2-.6-.2-.9v-2.5c0-.3 0-.7.3-.9.2-.2.5-.3.8-.3.3 0 .6.1.8.3.2.2.3.5.3.8v.3h-.7v-.1zM101.3 98.6c0-.1 0-.2-.1-.3 0 0-.1-.2-.4-.2-.2 0-.3.1-.4.2-.1.1-.1.3-.1.5v2.3c0 .2 0 .3.1.4 0 .1.2.2.3.2.2 0 .3-.1.4-.2 0-.1.1-.2.1-.4v-.2h.7v.2c0 .5-.2.7-.3.9-.1.2-.4.3-.9.3s-.7-.2-.9-.4c-.2-.3-.2-.6-.2-.9v-2.5c0-.3 0-.7.3-.9.2-.2.5-.3.8-.3.3 0 .6.1.8.3.2.2.3.5.3.8v.3h-.7v-.1zM102.6 97.5h2v.6h-1.4v1.4h1.2v.6h-1.2v1.5h1.4v.6h-2M107.4 97.5v2.9l1.1-2.4v-.5h.7v4.7h-.7v-2.9l-1.1 2.4v.5h-.7v-4.7M113.8 97.5v4.7h-.7v-4.1h-.9v4.1h-.7v-4.7M115.2 99.7h.4c.1 0 .3 0 .5-.2.1-.2.1-.3.1-.5v-.3c0-.2 0-.4-.2-.6-.2-.1-.3-.1-.5-.1h-.2v1.7zm-.6-2.2h1c.3 0 .7 0 1 .3.3.3.3.7.3 1.1v.1c0 .3 0 .7-.3 1-.3.3-.6.4-.9.4h-.4v1.9h-.7v-4.8zM118.1 97.5v2.9l1.1-2.4v-.5h.7v4.7h-.7v-2.9l-1.1 2.4v.5h-.7v-4.7M123.9 98.6c0-.1 0-.3-.1-.4-.1-.1-.2-.1-.4-.1s-.3.1-.4.1c-.1.1-.1.3-.1.4v2.5c0 .1 0 .3.1.4.1.1.2.1.4.1s.3-.1.4-.1c.1-.1.1-.3.1-.4v-2.5zm-1.7.1c0-.4 0-.7.4-1 .2-.2.5-.3.8-.3.4 0 .6.1.8.3.3.3.4.7.4 1v2.3c0 .4 0 .7-.4 1-.2.2-.5.3-.8.3-.4 0-.6-.1-.8-.3-.3-.3-.4-.7-.4-1v-2.3zM127.3 101h.2c.1 0 .3 0 .5-.2.1-.2.1-.3.1-.5v-1c0-.2 0-.4-.2-.6-.2-.1-.3-.1-.5-.1h-.1v2.4zm-.8-2.4c-.2 0-.4 0-.5.1-.2.2-.2.4-.2.6v1c0 .2 0 .3.1.5.2.2.3.2.5.2h.2l-.1-2.4zm.8-.6h.2c.3 0 .7 0 1 .3.3.3.3.7.3 1.1v.8c0 .3 0 .7-.3 1-.3.4-.7.4-.9.4h-.2v.6h-.7v-.6h-.2c-.2 0-.6 0-.9-.4-.3-.3-.3-.7-.3-1v-.8c0-.4 0-.8.3-1.1.3-.3.7-.3 1-.3h.2v-.6h.7v.6zM131 98.6c0-.1 0-.3-.1-.4-.1-.1-.2-.1-.4-.1s-.3.1-.4.1c-.1.1-.1.3-.1.4v2.5c0 .1 0 .3.1.4.1.1.2.1.4.1s.3-.1.4-.1c.1-.1.1-.3.1-.4v-2.5zm-1.7.1c0-.4 0-.7.4-1 .2-.2.5-.3.8-.3.4 0 .6.1.8.3.3.3.4.7.4 1v2.3c0 .4 0 .7-.4 1-.2.2-.5.3-.8.3-.4 0-.6-.1-.8-.3-.3-.3-.4-.7-.4-1v-2.3zM133.1 99.7h.4c.1 0 .3 0 .5-.2.1-.2.1-.3.1-.5v-.3c0-.2 0-.4-.2-.6-.2-.1-.3-.1-.5-.1h-.2v1.7zm-.7-2.2h1c.3 0 .7 0 1 .3.3.3.3.7.3 1.1v.1c0 .3 0 .7-.3 1-.3.3-.6.4-.9.4h-.4v1.9h-.7v-4.8zM135.3 97.5h.7l.9 2.6.9-2.6h.7v4.7h-.7v-2.9l-.7 2.1h-.4l-.7-2.1v2.9h-.7M141.5 102.2h-.7V98h-.5v.7c0 .8 0 1.2-.1 1.6 0 .5-.1.8-.1.9-.1.2-.1.5-.3.7-.2.3-.5.3-.8.3h-.2v-.6h.1c.1 0 .2 0 .3-.1.2-.1.2-.3.2-.3.1-.2.1-.9.1-1.2 0-.4 0-.7.1-1.3v-1.3h1.9v4.8zM142.3 97.5h2v.6H143v1.4h1.1v.6H143v1.5h1.3v.6h-2M145.6 97.5v2h.9v-2h.7v4.7h-.7v-2.1h-.9v2.1h-.7v-4.7M148.7 97.5v2.9l1.1-2.4v-.5h.7v4.7h-.7v-2.9l-1.1 2.4v.5h-.7v-4.7M151.9 97.5v2.9L153 98v-.5h.7v4.7h-.7v-2.9l-1.1 2.4v.5h-.7v-4.7M156.4 97.5l.7 2.3c0-.3.1-.7.2-1l.3-1.4h.7l-.8 3.2c-.1.5-.2 1.1-.6 1.4-.2.1-.4.1-.6.1h-.3v-.6h.2c.1 0 .2-.1.3-.1.1-.1.1-.2.1-.3l.1-.4-1.1-3.3h.8zM160.1 98.6c0-.1 0-.2-.1-.3 0 0-.1-.2-.4-.2-.2 0-.3.1-.4.2-.1.1-.1.3-.1.5v2.3c0 .2 0 .3.1.4 0 .1.2.2.3.2.2 0 .3-.1.4-.2 0-.1.1-.2.1-.4v-.2h.7v.2c0 .5-.2.7-.3.9-.1.2-.4.3-.9.3-.4 0-.7-.2-.9-.4-.2-.3-.2-.6-.2-.9v-2.5c0-.3 0-.7.3-.9.2-.2.5-.3.8-.3.3 0 .6.1.8.3.2.2.3.5.3.8v.3h-.7v-.1zM163.6 102.2h-.7V98h-.5v.7c0 .8 0 1.2-.1 1.6 0 .5-.1.8-.1.9 0 .2-.1.5-.3.7-.3.3-.5.3-.8.3h-.2v-.6h.1c.1 0 .2 0 .3-.1.2-.1.2-.3.2-.3.1-.2.1-.9.1-1.2v-2.6h1.9v4.8zM164.8 97.5l.7 2.3c0-.3.1-.7.2-1l.3-1.4h.7l-.8 3.2c-.1.5-.2 1.1-.6 1.4-.2.1-.4.1-.6.1h-.2v-.6h.2c.1 0 .2-.1.3-.1.1-.1.1-.2.1-.3l.1-.4-1.1-3.3h.7zM166.9 97.5h2.1v.6h-1.4v4.1h-.7M4.9 2.4v9.9H3.5V3.7H1.6v8.6H.2V2.4M7.9 7.1h.8c.3 0 .6 0 .9-.4.3-.3.3-.7.3-1v-.6c0-.3 0-.8-.4-1.2-.3-.3-.7-.2-1.1-.2h-.5v3.4zM6.5 2.4h2.1c.6 0 1.4 0 2 .7.7.7.7 1.5.7 2.3v.3c0 .6-.1 1.4-.6 2-.6.7-1.3.8-2 .8h-.8v3.9H6.5v-10zM12.5 2.4h4.2v1.3h-2.8v2.9h2.5v1.3h-2.5v3h2.9v1.4h-4.3M19.4 2.4v6.1l2.4-5V2.4h1.4v9.9h-1.4V6.2l-2.4 5v1.1H18V2.4M24.8 2.4h1.4l2 5.4 1.9-5.4h1.4v9.9h-1.4V6.1H30l-1.5 4.5h-.7l-1.5-4.5h-.1v6.2h-1.4M33.9 2.4l1.4 4.9c.1-.5.2-1.4.4-2l.6-2.8h1.5l-1.7 6.8c-.3 1.1-.5 2.4-1.3 2.9-.4.3-.8.3-1.2.3h-.5v-1.3h.4c.3 0 .5-.1.7-.2.1-.1.2-.4.3-.6l.2-.8-2.2-6.9h1.4zM39.9 11h1.5V2.4h1.4V11h1.6V2.4h1.4V11h.9v2.8h-1.4v-1.5h-6.9V2.4h1.5M47.5 2.4h4.2v1.3h-2.8v2.9h2.5v1.3h-2.5v3h2.9v1.4h-4.3M56.2 4.6c0-.2-.1-.5-.2-.7-.1-.1-.3-.4-.7-.4-.4 0-.6.2-.7.3-.2.3-.2.6-.2 1v4.9c0 .3 0 .6.2.9.1.1.3.4.7.4.3 0 .6-.1.8-.3.1-.1.2-.3.2-.8v-.4h1.4v.5c0 1-.3 1.5-.6 1.8-.3.3-.9.7-1.9.7-.9 0-1.5-.4-1.8-.8-.5-.6-.5-1.3-.5-1.8V4.8c0-.6.1-1.4.7-1.9.4-.4 1.1-.6 1.6-.6.6 0 1.3.2 1.7.6.4.4.6 1 .6 1.6v.7h-1.4v-.6zM62.8 2.4v1.3H61v8.6h-1.4V3.7h-1.7V2.4M65 11h.6c.2 0 .7 0 1-.4.2-.3.3-.8.3-1v-.5c0-.5-.1-.8-.4-1.1-.2-.2-.4-.3-.8-.3H65V11zm0-4.5h.7c.5 0 .8-.2.9-.4.2-.2.3-.5.3-.8v-.6c0-.3-.1-.5-.3-.7-.2-.2-.5-.3-.9-.3H65v2.8zm.5-4.1c.4 0 1.2 0 1.9.5.9.6.9 1.7.9 2.3 0 .7-.1 1.1-.4 1.5l-.5.5c.4.2.6.4.7.6.3.5.3.8.3 1.2v.8c0 .4 0 1.4-.8 2.1-.3.2-.8.5-1.7.5h-2.1v-10h1.7zM71.8 5.1l-.7 3.8h1.5l-.8-3.8zm1.4 7.2l-.5-2.1h-1.8l-.5 2.1H69l2.2-9.9h1.2l2.2 9.9h-1.4zM81.9 4.6c0-.2-.1-.5-.2-.7-.1-.1-.3-.4-.7-.4-.4 0-.6.2-.7.3-.3.4-.3.8-.3 1.1v4.9c0 .3 0 .6.2.9.1.1.3.4.7.4.3 0 .6-.1.8-.3.1-.1.2-.3.2-.8v-.5h1.4v.5c0 1-.3 1.5-.6 1.8-.3.3-.9.7-1.9.7-.9 0-1.5-.4-1.8-.8-.5-.6-.5-1.3-.5-1.8V4.8c0-.6.1-1.4.7-1.9.4-.4 1.1-.6 1.6-.6.6 0 1.3.2 1.7.6.4.4.6 1 .6 1.6v.7h-1.4v-.6zM84.6 2.4h4.2v1.3H86v2.9h2.4v1.3H86v3h2.8v1.4h-4.2M91.5 7.1h.8c.3 0 .7 0 .9-.4.3-.3.3-.7.3-1v-.6c0-.3 0-.8-.4-1.2-.3-.3-.7-.3-1.1-.3h-.5v3.5zm-1.4-4.7h2.1c.6 0 1.4 0 2 .7.7.7.7 1.5.7 2.3v.3c0 .6-.1 1.4-.6 2-.6.7-1.3.8-2 .8h-.8v3.9h-1.4v-10zM97.5 11h.6c.2 0 .7 0 1-.4.2-.3.3-.8.3-1v-.5c0-.5-.1-.8-.4-1.1-.2-.2-.4-.3-.8-.3h-.7V11zm0-4.5h.7c.5 0 .8-.2.9-.4.2-.2.3-.5.3-.8v-.6c0-.3-.1-.5-.3-.7-.2-.2-.5-.3-.9-.3h-.7v2.8zm.5-4.1c.4 0 1.2 0 1.9.5.9.6.9 1.7.9 2.3 0 .7-.1 1.1-.4 1.5l-.5.5c.4.2.5.4.7.6.3.5.3.8.3 1.2v.8c0 .4 0 1.4-.8 2.1-.3.2-.8.5-1.7.5h-2.2v-10H98zM103.6 2.4v6.1l2.4-5V2.4h1.4v9.9H106V6.2l-2.4 5v1.1h-1.4V2.4M112.2 4.6c0-.2-.1-.5-.2-.7-.1-.1-.3-.4-.7-.4-.4 0-.6.2-.7.3-.2.3-.2.6-.2 1v4.9c0 .3 0 .6.2.9.1.1.3.4.7.4.3 0 .6-.1.8-.3.1-.1.2-.3.2-.8v-.4h1.4v.5c0 1-.3 1.5-.6 1.8-.3.3-.9.7-1.9.7-.9 0-1.5-.4-1.8-.8-.5-.6-.5-1.3-.5-1.8V4.8c0-.6.1-1.4.7-1.9.4-.4 1.1-.6 1.6-.6.6 0 1.3.2 1.7.6.4.4.6 1 .6 1.6v.7h-1.4v-.6zM116.3 2.4v4.2h1.9V2.4h1.4v9.9h-1.4V7.9h-1.9v4.4h-1.4V2.4M124.6 4.8c0-.3 0-.6-.3-.9-.2-.2-.4-.3-.8-.3s-.6.1-.8.3c-.3.3-.3.6-.3.9v5.1c0 .3 0 .6.3.9.2.2.4.3.8.3s.6-.1.8-.3c.3-.3.3-.6.3-.9V4.8zm-3.5.2c0-.8.1-1.5.7-2.1.4-.4 1-.6 1.7-.6s1.3.2 1.7.6c.8.6.8 1.3.8 2.1v4.7c0 .8-.1 1.5-.7 2.1-.4.4-1 .6-1.7.6s-1.3-.2-1.7-.6c-.7-.6-.7-1.4-.7-2.1V5zM131.8.2c0 .6-.2.9-.4 1.1-.3.3-.8.4-1.3.4-.6 0-1-.1-1.3-.4-.2-.2-.4-.6-.4-1.1V0h1.1v.1c0 .1 0 .3.2.4.1.1.3.1.4.1.2 0 .3 0 .4-.1.2-.1.2-.3.2-.4V0h1.1v.2zm-2.9 2.2v6.1l2.3-5V2.4h1.4v9.9h-1.4V6.2l-2.3 5v1.1h-1.4V2.4h1.4zM138.9 2.4v4.2h.8c.2 0 .4-.1.5-.3.2-.3.2-.6.3-1.3l.1-.9c.1-.5.1-1.1.6-1.5.4-.4.9-.4 1.3-.4h.2v1.3h-.2c-.1 0-.3.1-.4.2-.2.1-.2.4-.3 1l-.1 1c0 .4-.1.7-.2 1.1-.1.2-.2.3-.3.4l1.5 5.1h-1.5L140 7.9h-1.1v4.4h-1.4V2.4h1.4zM145.9 5.1l-.7 3.8h1.5l-.8-3.8zm1.4 7.2l-.5-2.1H145l-.5 2.1h-1.4l2.2-9.9h1.2l2.2 9.9h-1.4zM151 7.1h.8c.3 0 .7 0 .9-.4.3-.3.3-.7.3-1v-.6c0-.3 0-.8-.4-1.2-.3-.3-.7-.3-1.1-.3h-.5v3.5zm-1.5-4.7h2.1c.6 0 1.4 0 2 .7.6.7.7 1.5.7 2.3v.3c0 .6-.1 1.4-.6 2-.6.7-1.3.8-2 .8h-.7v3.9h-1.4v-10zM159.3 2.4v1.3h-1.8v8.6h-1.4V3.7h-1.7V2.4M167.4 2.4v9.9H166V2.4h1.4zm-5.9 8.6h.6c.4 0 1.2-.1 1.2-1.5V9c0-.5-.1-.8-.4-1.1-.2-.2-.4-.3-.8-.3h-.7V11zm0-8.6v4h.7c.6 0 1.3 0 2 .6.6.6.6 1.3.6 1.6v1.2c0 .5 0 1-.4 1.6-.3.4-.8.9-2.1.9h-2.2V2.4h1.4zM170.3 10.8v1.5h-1.5v-1.5h1.5zm0-5.5v1.5h-1.5V5.3h1.5z"/><path d="M35.2 24.4v3l1.1-2.4v-.6h.7v4.8h-.7v-2.9l-1.1 2.4v.5h-.7v-4.8M39.2 25.5c0-.1 0-.2-.1-.3 0 0-.1-.2-.4-.2-.2 0-.3.1-.4.2-.1.1-.1.3-.1.5V28c0 .2 0 .3.1.4 0 .1.2.2.4.2s.3-.1.4-.2c0-.1.1-.2.1-.4v-.2h.7v.2c0 .5-.2.8-.3.9-.1.2-.4.3-.9.3s-.7-.2-.9-.4c-.2-.3-.2-.6-.2-.9v-2.5c0-.3 0-.7.3-.9.2-.2.5-.3.8-.3.3 0 .6.1.8.3.2.2.3.5.3.8v.3h-.7v-.1zM42.3 24.4v.7h-.9v4.1h-.7v-4.1h-.8v-.7M44.2 25.6c0-.1 0-.3-.1-.4-.1-.1-.3-.2-.4-.2-.2 0-.3.1-.4.1-.1.1-.1.3-.1.4V28c0 .1 0 .3.1.4.1.1.2.1.4.1s.3-.1.4-.1c.1-.1.1-.3.1-.4v-2.4zm-1.7.1c0-.4 0-.7.4-1 .2-.2.5-.3.9-.3s.6.1.8.3c.3.3.4.7.4 1V28c0 .4 0 .7-.4 1-.2.2-.5.3-.8.3-.4 0-.6-.1-.9-.3-.3-.3-.4-.7-.4-1v-2.3zM46.2 26.7h.4c.1 0 .3 0 .5-.2.1-.2.1-.3.1-.5v-.3c0-.2 0-.4-.2-.6-.2-.1-.4-.1-.6-.1h-.2v1.7zm-.7-2.3h1c.3 0 .7 0 1 .3.3.3.4.7.4 1.1v.2c0 .3 0 .7-.3 1-.3.3-.7.4-1 .4h-.4v1.9h-.7v-4.9zM49 24.4v3l1.1-2.4v-.6h.7v4.8h-.7v-2.9L49 28.7v.5h-.7v-4.8M52.7 25c-.1 0-.3 0-.4.1-.1.1-.2.3-.2.4v.3c0 .2 0 .3.1.4.1.1.3.2.4.2h.4V25h-.3zm1 4.2H53v-2.1h-.4l-.6 2.1h-.7L52 27c-.2-.1-.3-.2-.3-.3-.1-.2-.2-.5-.2-.7v-.4c0-.4.1-.6.3-.8.3-.4.8-.4 1.2-.4h.9v4.8zM58 24.4v4.8h-.6V25h-.9v4.2h-.7v-4.8M60.4 25.6c0-.1 0-.3-.1-.4-.2-.1-.3-.2-.5-.2s-.3.1-.4.1c-.1.1-.1.3-.1.4V28c0 .1 0 .3.1.4.1.1.2.1.4.1s.3-.1.4-.1c.1-.1.1-.3.1-.4v-2.4zm-1.8.1c0-.4 0-.7.4-1 .2-.2.5-.3.8-.3.4 0 .6.1.8.3.3.3.4.7.4 1V28c0 .4 0 .7-.4 1-.2.2-.5.3-.8.3-.4 0-.6-.1-.8-.3-.3-.3-.4-.7-.4-1v-2.3zM62.3 24.4v2.1h.4c.1 0 .2 0 .3-.1.1-.1.1-.3.2-.6v-.4c0-.3.1-.6.3-.7.2-.2.5-.2.6-.2h.1v.5H63.9c-.1.1-.1.2-.1.5v.5c0 .2 0 .4-.1.5 0 .1-.1.2-.2.2l.7 2.5h-.8l-.6-2.1h-.6v2.1h-.7v-4.8h.8zM65 24.4l.7 2.4c0-.3.1-.7.2-1l.3-1.4h.7l-.8 3.3c-.1.5-.2 1.2-.6 1.4-.2.1-.4.1-.6.1h-.2v-.7h.2c.1 0 .3-.1.3-.1.1-.1.1-.2.1-.3l.1-.4-1.1-3.4h.7zM69.4 24.4v4.8h-.7V25h-.9v4.2h-.7v-4.8M71.7 25.6c0-.1 0-.3-.1-.4-.1-.1-.2-.1-.4-.1s-.3.1-.4.1c-.1.1-.1.3-.1.4v2.5c0 .1 0 .3.1.4.1.1.2.1.4.1s.3-.1.4-.1c.1-.1.1-.3.1-.4v-2.5zm-1.7.1c0-.4 0-.7.4-1 .2-.2.5-.3.8-.3.4 0 .6.1.8.3.3.3.4.7.4 1V28c0 .4 0 .7-.4 1-.2.2-.5.3-.8.3-.4 0-.6-.1-.8-.3-.4-.3-.4-.7-.4-1v-2.3zM73.7 24.4v2.1h.4c.1 0 .2 0 .3-.1.1-.1.1-.3.2-.6v-.4c0-.3.1-.6.3-.7.2-.2.5-.2.6-.2h.1v.5h-.1c-.1 0-.1 0-.2.1s-.1.2-.1.5v.5c0 .2 0 .4-.1.5 0 .1-.1.2-.2.2l.7 2.5h-.8l-.6-2.1h-.6v2.1H73v-4.8h.7zM35.2 35.2h.3c.1 0 .3 0 .5-.2.1-.2.1-.4.1-.5v-.2c0-.2 0-.4-.2-.5-.1-.1-.2-.1-.4-.1h-.4v1.5zm0-2.2h.3c.2 0 .4-.1.4-.2.1-.1.1-.3.1-.4v-.3c0-.1-.1-.2-.1-.3-.1-.1-.2-.2-.4-.2h-.3V33zm.2-2c.2 0 .6 0 .9.2.4.3.4.8.4 1.1 0 .3 0 .5-.2.8-.1.1-.2.2-.3.2.2.1.3.2.3.3.1.2.1.4.1.6v.4c0 .2 0 .7-.4 1-.1.1-.4.2-.8.2h-1V31h1zM41.1 35.8h-.7v-4.2h-.6v.7c0 .8 0 1.2-.1 1.6 0 .5-.1.8-.1.9 0 .2-.1.5-.3.7-.3.3-.5.3-.8.3h-.2v-.7h.1c.1 0 .2 0 .3-.1.2-.1.2-.3.2-.3.1-.2.1-.9.1-1.2v-2.6h1.9v4.9zM42.4 31v3l1.1-2.4V31h.7v4.8h-.7v-2.9l-1.1 2.4v.5h-.7V31M47 31v4.8h-.7v-2c-.1.1-.3.1-.5.1-.5 0-.7-.2-.8-.3-.2-.2-.2-.6-.2-.9V31h.7v1.6c0 .1 0 .4.1.6.1.1.2.1.3.1.1 0 .3 0 .4-.1V31h.7zM48.4 31v2.1h.9V31h.7v4.8h-.7v-2.1h-.9v2.1h-.7V31M52.3 32.2c0-.1 0-.3-.1-.4-.1-.1-.2-.1-.4-.1s-.3.1-.4.1c-.1.1-.1.3-.1.4v2.5c0 .1 0 .3.1.4.1.1.2.1.4.1s.3-.1.4-.1c.1-.1.1-.3.1-.4v-2.5zm-1.7.1c0-.4 0-.7.4-1 .2-.2.5-.3.9-.3s.6.1.8.3c.3.3.4.7.4 1v2.3c0 .4 0 .7-.4 1-.2.2-.5.3-.8.3-.4 0-.6-.1-.9-.3-.3-.3-.4-.7-.4-1v-2.3zM53.6 31h.7l.9 2.7 1-2.7h.6v4.8h-.6v-3h-.1l-.7 2.2H55l-.7-2.2v3h-.7M59.6 31v2.1h.4c.1 0 .2 0 .3-.1.1-.1.1-.3.2-.6V32c0-.3.1-.6.3-.7.2-.2.5-.2.6-.2h.1v.6h-.1c-.1 0-.1 0-.2.1s-.1.2-.1.5v.5c0 .2 0 .4-.1.5 0 .1-.1.2-.2.2l.7 2.5h-.8l-.6-2.1h-.6V36h-.7v-5h.8zM62.9 32.4l-.4 1.8h.7l-.3-1.8zm.7 3.4l-.2-1h-.9l-.2 1h-.7l1.1-4.8h.6l1.1 4.8h-.8zM65.2 35.2h.3c.1 0 .3 0 .5-.2.1-.1.1-.3.1-.5v-.3c0-.2 0-.4-.2-.5-.1-.1-.2-.1-.4-.1h-.4v1.6zm1.4-4.2v.7h-1.4V33h.3c.3 0 .7 0 1 .3.3.3.3.6.3.8v.6c0 .2 0 .5-.2.8-.1.2-.4.5-1 .5h-1.1v-5h2.1zM68 31v3l1.2-2.4V31h.7v4.8h-.7v-2.9L68 35.3v.5h-.7V31M71.2 31v2.1h.9V31h.7v4.8h-.7v-2.1h-.9v2.1h-.7V31M73.5 31h2v.7h-1.3v1.4h1.2v.6h-1.2v1.5h1.3v.6h-2M78 31v.7h-.8v4.1h-.7v-4.1h-.9V31M78.3 31h2v.7H79v1.4h1.2v.6H79v1.5h1.4v.6h-2.1M35.2 37.6v2.1h.9v-2.1h.7v4.8h-.7v-2.1h-.9v2.1h-.7v-4.8M38.4 39l-.4 1.8h.7l-.3-1.8zm.7 3.4l-.2-1H38l-.2 1h-.7l1.1-4.8h.6l1.1 4.8h-.8zM43.1 38.7c0-.1 0-.2-.1-.3 0 0-.1-.2-.4-.2-.2 0-.3.1-.4.2-.1.1-.1.3-.1.5v2.4c0 .2 0 .3.1.4.1.1.2.2.4.2.1 0 .3-.1.4-.2 0 0 .1-.2.1-.4v-.2h.7v.2c0 .5-.2.8-.3.9-.1.2-.4.3-.9.3s-.7-.2-.9-.4c-.2-.3-.2-.6-.2-.9v-2.5c0-.3 0-.7.4-.9.2-.2.5-.3.8-.3.3 0 .6.1.8.3.2.2.3.5.3.8v.4h-.7v-.3zM45.3 39l-.4 1.8h.7l-.3-1.8zm.6 3.4l-.2-1h-.9l-.2 1h-.7l1.1-4.8h.6l1.1 4.8h-.8zM49 36.5c0 .3-.1.5-.2.6-.1.1-.4.2-.6.2-.3 0-.5-.1-.6-.2-.1-.1-.2-.3-.2-.6v-.1h.5v.1c0 .1 0 .1.1.2s.1.1.2.1.1 0 .2-.1.1-.1.1-.2v-.1l.5.1zm-1.4 1.1v3l1.1-2.4v-.6h.7v4.8h-.7v-3l-1.1 2.4v.6h-.7v-4.8h.7zM52.1 37.6v.7h-.8v4.1h-.7v-4.1h-.9v-.7M52.4 37.6h2v.7h-1.3v1.4h1.2v.6h-1.2v1.5h1.3v.6h-2"/><path fill="#4CBC38" d="M21.9 42.6H9.6c-.3 0-.6-.2-.7-.5 0-.1-3.2-12.5-4.3-16.6-.9-3.4-3.5-3-3.8-2.9-.4.1-.7-.2-.8-.5-.1-.4.2-.7.5-.8 0 0 4.2-.8 5.4 3.9 1 3.6 3.5 13.7 4.1 16.1h11.8c.4 0 .7.3.7.7.1.3-.2.6-.6.6z"/><path fill="#4CBC38" d="M21.7 42.6c-.9 0-1.6.7-1.6 1.6 0 .9.7 1.6 1.6 1.6.9 0 1.6-.7 1.6-1.6.1-.9-.6-1.6-1.6-1.6zm0 4.6c-1.7 0-3-1.3-3-3s1.3-3 3-3 3 1.3 3 3c.1 1.7-1.3 3-3 3zM11 42.6c-.9 0-1.6.7-1.6 1.6 0 .9.7 1.6 1.6 1.6.9 0 1.6-.7 1.6-1.6 0-.9-.7-1.6-1.6-1.6zm0 4.6c-1.7 0-3-1.3-3-3s1.3-3 3-3 3 1.3 3 3-1.4 3-3 3zM8.8 39.6c-.3 0-.6-.2-.7-.5L4.9 26.5c-.1-.4.1-.7.5-.8.4-.1.7.1.8.5l3.1 12.1h14.1l2.5-11.8c.1-.4.4-.6.8-.5.4.1.6.4.5.8l-2.6 12.4c-.1.3-.3.5-.7.5l-15.1-.1z"/><path fill="#4CBC38" d="M16.2 36.5c-2.4 0-4.6-1.5-5.5-3.7-.1-.3 0-.7.4-.9.3-.1.7 0 .9.4.7 1.7 2.3 2.8 4.2 2.8 2.5 0 4.5-2 4.5-4.5s-2-4.5-4.5-4.5c-1.6 0-3.1.8-3.9 2.2-.2.3-.6.4-.9.2-.3-.2-.4-.6-.2-.9 1.1-1.8 3-2.9 5.1-2.9 3.2 0 5.9 2.6 5.9 5.9-.1 3.3-2.8 5.9-6 5.9z"/><path fill="#4CBC38" d="M14.6 28.9h-3.9V25M16.2 32.1c-.1 0-.3 0-.4-.1-.2-.1-.3-.3-.3-.5V28c0-.4.3-.7.7-.7.4 0 .7.3.7.7v2.6l1.7-.5c.4-.1.7.1.8.5.1.4-.1.7-.5.8l-2.5.6c-.1.1-.2.1-.2.1z"/><path d="M132.2 28.6h.3c.1 0 .3 0 .5-.2.1-.2.1-.4.1-.5v-.2c0-.2 0-.4-.2-.5-.1-.1-.2-.1-.4-.1h-.3v1.5zm0-2.2h.3c.2 0 .4-.1.4-.2.1-.1.1-.3.1-.4v-.3c0-.1-.1-.2-.1-.3-.1-.1-.2-.2-.4-.2h-.3v1.4zm.3-2c.2 0 .6 0 .9.2.4.3.4.8.4 1.1 0 .3 0 .5-.2.8-.1.1-.2.2-.3.2.2.1.3.2.3.3.1.2.1.4.1.6v.4c0 .2 0 .7-.4 1-.2.1-.4.2-.8.2h-1v-4.8h1zM136 25.6c0-.1 0-.3-.1-.4-.1-.1-.2-.1-.4-.1s-.3.1-.4.1c-.1.1-.1.3-.1.4v2.5c0 .1 0 .3.1.4.1.1.2.1.4.1s.3-.1.4-.1c.1-.1.1-.3.1-.4v-2.5zm-1.7.1c0-.4 0-.7.4-1 .2-.2.5-.3.8-.3.4 0 .6.1.9.3.3.3.4.7.4 1V28c0 .4 0 .7-.4 1-.2.2-.5.3-.9.3s-.6-.1-.8-.3c-.3-.3-.4-.7-.4-1v-2.3zM137 25.4c0-.2 0-.5.4-.8.2-.1.4-.2.8-.2.3 0 .6.1.8.2.1.1.4.3.4.8v.4c0 .3 0 .5-.2.8-.1.1-.2.2-.3.2.2.1.3.2.3.3.1.2.1.4.1.6v.6c0 .3 0 .6-.3.8-.3.2-.6.3-.9.3-.3 0-.6 0-.8-.3-.1 0-.3-.3-.3-.7V28h.7v.3c0 .1 0 .3.1.3.1.1.2.1.4.1s.3-.1.3-.1c.1-.1.1-.3.1-.4v-.4c0-.1 0-.4-.2-.6 0 0-.2-.1-.4-.1h-.2v-.6h.2c.2 0 .3-.1.4-.2.1-.1.1-.3.1-.4v-.3c0-.1 0-.3-.1-.4-.1-.1-.2-.1-.3-.1-.1 0-.2 0-.3.1-.1.1-.1.2-.1.3v.3h-.7v-.4zM140.5 28.6h.3c.1 0 .3 0 .5-.2.1-.2.1-.4.1-.5v-.2c0-.2 0-.4-.2-.5-.1-.1-.2-.1-.4-.1h-.4v1.5zm0-2.2h.3c.2 0 .4-.1.4-.2.1-.1.1-.3.1-.4v-.3c0-.1-.1-.2-.1-.3-.1-.1-.2-.2-.4-.2h-.3v1.4zm.3-2c.2 0 .6 0 .9.2.4.3.4.8.4 1.1 0 .3 0 .5-.2.8-.1.1-.2.2-.3.2.2.1.3.2.3.3.1.2.1.4.1.6v.4c0 .2 0 .7-.4 1-.2.1-.4.2-.8.2h-1v-4.8h1zM143.3 26.7h.4c.1 0 .3 0 .5-.2.1-.2.1-.3.1-.5v-.3c0-.2 0-.4-.2-.6-.2-.1-.3-.1-.5-.1h-.2v1.7zm-.7-2.3h1c.3 0 .7 0 1 .3.3.3.4.7.4 1.1v.2c0 .3 0 .7-.3 1-.3.3-.7.4-.9.4h-.4v1.9h-.7v-4.9zM145.9 25.8l-.4 1.8h.7l-.3-1.8zm.7 3.5l-.2-1h-.9l-.2 1h-.7l1.1-4.8h.6l1.1 4.8h-.8zM149.2 24.4v.7h-.8v4.2h-.7v-4.2h-.9v-.7M132.2 31v3l1.2-2.4V31h.7v4.9h-.7v-3l-1.2 2.4v.6h-.6V31M136.1 31h2.1v.7h-1.4v4.2h-.7M138.8 32.4l-.4 1.8h.7l-.3-1.8zm.7 3.5l-.2-1h-.9l-.2 1h-.7l1.1-4.8h.6l1.1 4.8h-.8zM141.1 33.3h.4c.1 0 .3 0 .5-.2.1-.2.1-.3.1-.5v-.3c0-.2 0-.4-.2-.6-.2-.1-.4-.1-.5-.1h-.2v1.7zm-.6-2.3h1c.3 0 .7 0 1 .3.3.3.4.7.4 1.1v.1c0 .3 0 .7-.3 1-.3.3-.7.4-1 .4h-.4v1.9h-.7V31zM143.8 32.4l-.4 1.8h.7l-.3-1.8zm.6 3.5l-.2-1h-.9l-.2 1h-.7l1.1-4.8h.6l1.1 4.8h-.8zM146.1 31v2.1h.9V31h.7v4.9h-.7v-2.2h-.9v2.2h-.7V31M150.3 31v.7h-.8v4.2h-.7v-4.2h-.9V31M151.2 31v3l1.2-2.4V31h.7v4.9h-.7v-3l-1.2 2.4v.6h-.6V31M155.8 30c0 .3-.1.5-.2.6-.1.1-.4.2-.6.2-.3 0-.5-.1-.6-.2-.1-.1-.2-.3-.2-.6v-.1h.6v.1c0 .1 0 .1.1.2s.1.1.2.1.1 0 .2-.1.1-.1.1-.2v-.1l.4.1zm-1.4 1v3l1.1-2.4V31h.7v4.8h-.7v-3l-1.1 2.4v.6h-.7V31h.7zM157.5 31v2.1h1V31h.6v4.9h-.6v-2.2h-1v2.2h-.7V31M161.4 32.2c0-.1 0-.3-.1-.4-.1-.1-.2-.1-.4-.1s-.3.1-.4.1c-.1.1-.1.3-.1.4v2.5c0 .1 0 .3.1.4.1.1.2.1.4.1s.3-.1.4-.1c.1-.1.1-.3.1-.4v-2.5zm-1.7.1c0-.4 0-.7.4-1 .2-.2.5-.3.8-.3.4 0 .6.1.9.3.3.3.4.7.4 1v2.3c0 .4 0 .7-.4 1-.2.2-.5.3-.9.3s-.6-.1-.8-.3c-.3-.3-.4-.7-.4-1v-2.3zM162.7 31h2v.7h-1.3v1.4h1.2v.6h-1.2v1.5h1.3v.7h-2M133.2 38.8c0-.1 0-.3-.1-.4-.1-.1-.2-.1-.4-.1s-.3.1-.4.1c-.1.1-.1.3-.1.4v2.5c0 .1 0 .3.1.4.1.1.2.1.4.1s.3-.1.4-.1c.1-.1.1-.3.1-.4v-2.5zm-1.7.1c0-.4 0-.7.4-1 .2-.2.5-.3.8-.3.4 0 .6.1.8.3.3.3.4.7.4 1v2.3c0 .4 0 .7-.4 1-.2.2-.5.3-.8.3-.4 0-.6-.1-.8-.3-.3-.3-.4-.7-.4-1v-2.3zM135.1 41.8h.3c.1 0 .3 0 .5-.2.1-.1.1-.3.1-.5v-.3c0-.2 0-.4-.2-.5-.1-.1-.2-.1-.4-.1h-.3v1.6zm1.4-4.2v.7h-1.4v1.3h.3c.3 0 .6 0 1 .3.3.3.3.6.3.8v.6c0 .2 0 .5-.2.8-.1.2-.4.5-1 .5h-1v-4.8h2zM138.7 38.7c0-.1 0-.2-.1-.3 0 0-.1-.2-.4-.2-.2 0-.3.1-.4.2-.1.1-.1.3-.1.5v2.4c0 .2 0 .3.1.4.1.1.2.2.4.2s.3-.1.4-.2c0 0 .1-.2.1-.4v-.2h.7v.2c0 .5-.2.8-.3.9-.1.2-.4.3-.9.3s-.7-.2-.9-.4c-.2-.3-.2-.6-.2-.9v-2.5c0-.3 0-.7.4-.9.2-.2.5-.3.8-.3.3 0 .6.1.8.3.2.2.3.5.3.8v.4h-.7v-.3z"/><path d="M142.1 42.5h-.7v-4.2h-.6v.7c0 .8 0 1.2-.1 1.6 0 .5-.1.8-.1.9-.1.2-.1.5-.3.7-.3.3-.5.3-.8.3h-.2v-.7h.1c.1 0 .2 0 .3-.1.2-.1.2-.3.2-.3.1-.2.1-.9.1-1.2v-2.6h1.9v4.9zM143.1 37.6l.7 2.4c0-.3.1-.7.2-1l.3-1.4h.7l-.8 3.3c-.1.5-.2 1.2-.6 1.4-.2.1-.4.1-.6.1h-.2v-.7h.2c.1 0 .3 0 .3-.1.1-.1.1-.2.1-.3l.1-.4-1.1-3.4h.7z"/><path d="M147.5 39.7c.1 0 .2 0 .3-.1.1-.1.1-.3.1-.6v-.4c0-.3.1-.6.3-.7.2-.2.5-.2.6-.2h.1v.6h-.1c-.1 0-.1 0-.2.1s-.1.2-.1.5v.5c0 .2 0 .4-.1.5 0 .1-.1.2-.2.2l.7 2.5h-.8l-.6-2.2h-.4v2.2h-.7v-2.2h-.4l-.6 2.2h-.8l.7-2.5-.2-.2c-.1-.2-.1-.3-.1-.5l-.1-.5c0-.3-.1-.4-.1-.5-.1 0-.1-.1-.2-.1h-.1v-.6h.1c.2 0 .4 0 .6.2.2.2.2.5.3.7v.4c0 .3.1.5.1.6.1.1.2.1.3.1h.3v-2.1h.7v2.1h.6zM150 37.6v3l1.2-2.4v-.6h.6v4.9h-.6v-3l-1.2 2.4v.6h-.7v-4.9M153.1 41.8h.3c.1 0 .3 0 .5-.2.1-.2.1-.4.1-.5v-.2c0-.2 0-.4-.2-.5-.1-.1-.2-.1-.4-.1h-.4v1.5zm0-2.2h.3c.2 0 .4-.1.4-.2.1-.1.1-.3.1-.4v-.3c0-.1-.1-.2-.1-.3-.1-.1-.2-.2-.4-.2h-.3v1.4zm.3-2c.2 0 .6 0 .9.2.4.3.4.8.4 1.1 0 .3 0 .5-.2.8-.1.1-.2.2-.3.2.2.1.3.2.3.3.1.2.1.4.1.6v.4c0 .2 0 .7-.4 1-.1.1-.4.2-.8.2h-1.1v-4.8h1.1zM156.2 39l-.4 1.8h.7l-.3-1.8zm.7 3.5l-.2-1h-.9l-.2 1h-.7l1.1-4.8h.6l1.1 4.8h-.8zM158.5 37.6v2.1h.9v-2.1h.7v4.9h-.7v-2.2h-.9v2.2h-.7v-4.9M161.4 37.6v3l1.2-2.4v-.6h.6v4.9h-.6v-3l-1.2 2.4v.6h-.7v-4.9M163.8 37.6h2.1v.7h-1.4v1.4h1.2v.6h-1.2v1.5h1.4v.7h-2.1M133.6 44.2v.7h-.9v4.2h-.7v-4.2h-.8v-.7M135.4 45.4c0-.1 0-.3-.1-.4-.1-.1-.2-.1-.4-.1s-.3.1-.4.1c-.1.1-.1.3-.1.4v2.5c0 .1 0 .3.1.4.1.1.2.1.4.1s.3-.1.4-.1c.1-.1.1-.3.1-.4v-2.5zm-1.7.1c0-.4 0-.7.4-1 .2-.2.5-.3.8-.3.4 0 .6.1.8.3.3.3.4.7.4 1v2.3c0 .4 0 .7-.4 1-.2.2-.5.3-.8.3-.4 0-.6-.1-.8-.3-.3-.3-.4-.7-.4-1v-2.3zM137.4 48.4h.3c.1 0 .3 0 .5-.2.1-.2.1-.4.1-.5v-.2c0-.2 0-.4-.2-.5-.1-.1-.2-.1-.4-.1h-.4v1.5zm0-2.2h.3c.2 0 .4-.1.4-.2.1-.1.1-.3.1-.4v-.3c0-.1-.1-.2-.1-.3-.1-.1-.2-.2-.4-.2h-.3v1.4zm.2-2c.2 0 .6 0 .9.2.4.3.4.8.4 1.1 0 .3 0 .5-.2.8-.1.1-.2.2-.3.2.2.1.3.2.3.3.1.2.1.4.1.6v.4c0 .2 0 .7-.4 1-.2.1-.4.2-.8.2h-1v-4.8h1zM140.5 45.6l-.4 1.8h.7l-.3-1.8zm.7 3.5l-.2-1h-.9l-.2 1h-.7l1.1-4.8h.6l1.1 4.8h-.8zM142.8 46.5h.4c.1 0 .3 0 .5-.2.1-.2.1-.3.1-.5v-.3c0-.2 0-.4-.2-.6-.2-.1-.4-.1-.5-.1h-.2v1.7zm-.6-2.3h1c.3 0 .7 0 1 .3.3.3.4.7.4 1.1v.1c0 .3 0 .7-.3 1-.3.3-.7.4-1 .4h-.4V49h-.7v-4.8zM145.5 45.6l-.4 1.8h.7l-.3-1.8zm.6 3.5l-.2-1h-.9l-.2 1h-.7l1.1-4.8h.6l1.1 4.8h-.8zM149.2 48.4h.3c.1 0 .3 0 .5-.2.1-.1.1-.3.1-.5v-.3c0-.2 0-.4-.2-.5-.1-.1-.2-.1-.4-.1h-.4v1.6zm1.4-4.2v.7h-1.4v1.3h.3c.3 0 .6 0 1 .3.3.3.3.6.3.8v.6c0 .2 0 .5-.2.8-.1.2-.4.5-1 .5h-1.1v-4.8h2.1zM151.3 44.2h2v.7h-1.4v1.4h1.2v.6h-1.2v1.5h1.4v.7h-2M153.6 45.2c0-.2 0-.5.4-.8.2-.1.4-.2.8-.2.3 0 .6.1.8.2.1.1.4.3.4.8v.4c0 .3 0 .5-.2.8-.1.1-.2.2-.3.2.2.1.3.2.3.3.1.2.1.4.1.6v.5c0 .3 0 .6-.3.8-.3.2-.6.3-.9.3-.3 0-.6 0-.8-.3-.1 0-.3-.3-.3-.7v-.5h.7v.4c0 .1 0 .3.1.3.1.1.2.1.4.1s.3 0 .3-.1c.1-.1.1-.3.1-.4v-.4c0-.1 0-.4-.2-.6 0 0-.2-.1-.4-.1h-.2v-.6h.2c.2 0 .3-.1.4-.2.1-.1.1-.3.1-.4v-.3c0-.1 0-.3-.1-.4-.1-.1-.2-.1-.3-.1-.1 0-.2.1-.3.1-.1.1-.1.2-.1.3v.3h-.7v-.3zM160 44.2V49h-.7v-2c-.1.1-.3.1-.5.1-.5 0-.7-.2-.8-.3-.2-.2-.2-.6-.2-.9v-1.8h.7v1.6c0 .1 0 .4.1.6.1.1.2.1.3.1.1 0 .3 0 .4-.1v-2.2h.7zM160.6 44.2h2v.7h-1.3v1.4h1.2v.6h-1.2v1.5h1.3v.7h-2M163.8 44.2v2.1h.4c.1 0 .2 0 .3-.1.1-.1.1-.3.2-.6v-.4c0-.3.1-.6.3-.7.2-.2.5-.2.6-.2h.1v.6h-.1c-.1 0-.1 0-.2.1s-.1.2-.1.5v.5c0 .2 0 .4-.1.5 0 .1-.1.1-.1.2l.7 2.5h-.8l-.6-2.1h-.6v2.1h-.7v-4.8h.7z"/><path d="M167 45.6l-.4 1.8h.7l-.3-1.8zm.7 3.5l-.2-1h-.9l-.2 1h-.7l1.1-4.8h.6l1.1 4.8h-.8z"/><path fill="#4CBC38" d="M97.9 41.5c-1.2 0-2.1 1-2.1 2.1 0 1.2 1 2.1 2.1 2.1 1.2 0 2.1-.9 2.1-2.1 0-1.1-.9-2.1-2.1-2.1zm0 5.6c-1.9 0-3.5-1.6-3.5-3.5s1.6-3.5 3.5-3.5 3.5 1.6 3.5 3.5c0 2-1.6 3.5-3.5 3.5zM124.1 26.7c-.5 0-.9.4-.9.9s.4.9.9.9.9-.4.9-.9-.4-.9-.9-.9zm0 3.1c-1.2 0-2.3-1-2.3-2.3s1-2.3 2.3-2.3c1.2 0 2.3 1 2.3 2.3s-1 2.3-2.3 2.3zM117 26.4c-2.4 0-4.4 2-4.4 4.4 0 2.4 2 4.4 4.4 4.4 1.6 0 3.1-.9 3.9-2.4l-.5-.5c-.6.6-1.4 1-2.3 1-1.7 0-3.1-1.4-3.1-3.1 0-1.4.8-2.9 3-3.1v-.5c-.2-.2-.6-.2-1-.2zm0 10.1c-3.2 0-5.7-2.6-5.7-5.7 0-3.2 2.6-5.7 5.7-5.7.7 0 1.4.1 2.1.4.3.1.4.3.4.6 0 .7 0 1.7-.4 2.1-.1.1-.3.2-.5.2-1.4 0-2.2.6-2.2 1.8 0 .9.8 1.7 1.7 1.7.5 0 1.1-.3 1.4-.7.2-.3.5-.5.9-.5.2 0 .4.1.4.1.1 0 .1.1.2.1l1.1 1 .1.1c.2.2.2.6.1.9-1 2.3-3 3.6-5.3 3.6z"/><path fill="#4CBC38" d="M99.5 41.6c-.2 0-.4-.1-.6-.3-.2-.3-.1-.7.2-.9l12.7-8.5c.3-.2.7-.1.9.2.2.3.1.7-.2.9l-12.7 8.5c0 .1-.1.1-.3.1zM100.8 44.1c-.2 0-.4-.1-.6-.3-.2-.3-.1-.7.2-.9l13-8.7c.3-.2.7-.1.9.2.2.3.1.7-.2.9l-13 8.7c0 .1-.1.1-.3.1z"/><path d="M35.2 65.9h.4c.1 0 .3 0 .5-.2.1-.2.1-.3.1-.5v-.3c0-.2 0-.4-.2-.6-.2-.1-.4-.1-.5-.1h-.2v1.7zm-.7-2.3h1c.3 0 .7 0 1 .3.3.3.4.7.4 1.1v.1c0 .3 0 .7-.3 1-.3.3-.7.4-1 .4h-.4v1.9h-.7v-4.8zM37.9 64.9l-.4 1.8h.7l-.3-1.8zm.7 3.5l-.2-1h-.9l-.2 1h-.7l1.1-4.8h.6l1.1 4.8h-.8zM41.1 64.7c0-.1 0-.2-.1-.3 0-.1-.1-.2-.4-.2-.2 0-.3.1-.4.2-.1.1-.1.3-.1.5v2.4c0 .2 0 .3.1.4 0 .1.2.2.4.2s.3-.1.4-.2c0 0 .1-.2.1-.4v-.2h.7v.2c0 .5-.2.8-.3.9-.1.2-.4.3-.9.3s-.7-.2-.9-.4c-.2-.3-.2-.6-.2-.9v-2.5c0-.3 0-.7.4-.9.2-.2.5-.3.8-.3.3 0 .6.1.8.3.2.2.3.5.3.8v.3h-.7v-.2zM42.3 63.6h.7v4.2h.8v-4.2h.7v4.2h.7v-4.2h.7v4.8h-3.6M47.3 63.6v2.9l1.2-2.4v-.5h.6v4.8h-.6v-3l-1.2 2.4v.6h-.7v-4.8M50.5 65.9h.4c.1 0 .3 0 .5-.2.1-.2.1-.3.1-.5v-.3c0-.2 0-.4-.2-.6-.2-.1-.3-.1-.5-.1h-.2v1.7zm-.7-2.3h1c.3 0 .7 0 1 .3.3.3.4.7.4 1.1v.1c0 .3 0 .7-.3 1-.3.3-.7.4-1 .4h-.4v1.9h-.7v-4.8zM52.7 63.6h2v.6h-1.3v1.4h1.2v.7h-1.2v1.4h1.3v.7h-2M55.9 63.6v2h1v-2h.7v4.8h-.7v-2.1h-1v2.1h-.7v-4.8M58.9 63.6v2h1v-2h.7v4.8h-.7v-2.1h-1v2.1h-.6v-4.8M64.8 63.6v4.8h-.7v-4.8h.7zm-2.9 4.2h.3c.2 0 .6 0 .6-.7v-.3c0-.2 0-.4-.2-.5-.1-.1-.2-.1-.4-.1h-.4v1.6zm0-4.2v2h.3c.3 0 .7 0 1 .3.3.3.3.6.3.8v.6c0 .2 0 .5-.2.8-.1.2-.4.5-1 .5h-1v-4.8h.6zM67.6 62.5c0 .3-.1.5-.2.6-.1.1-.4.2-.6.2-.3 0-.5-.1-.6-.2-.1-.1-.2-.3-.2-.6v-.1h.6v.1c0 .1 0 .1.1.2s.1.1.2.1.1 0 .2-.1.1-.1.1-.2v-.1l.4.1zm-1.4 1.1v3l1.1-2.4v-.6h.7v4.8h-.7v-3l-1.1 2.4v.6h-.7v-4.8h.7zM36.1 71.3c0-.1 0-.2-.1-.3 0 0-.1-.2-.4-.2-.2 0-.3.1-.4.2-.1.1-.1.3-.1.5v2.4c0 .2 0 .3.1.4 0 .1.2.2.4.2.1 0 .3-.1.4-.2 0-.1.1-.2.1-.4v-.2h.7v.2c0 .5-.2.8-.3.9-.1.2-.4.3-.9.3s-.7-.2-.9-.4c-.2-.3-.2-.6-.2-.9v-2.5c0-.3 0-.7.4-.9.2-.2.5-.3.8-.3.3 0 .6.1.8.3.2.2.3.5.3.8v.3h-.7v-.2zM37.9 72.5h.4c.1 0 .3 0 .5-.2.1-.2.1-.3.1-.5v-.3c0-.2 0-.4-.2-.6-.2-.1-.4-.1-.5-.1H38v1.7zm-.7-2.3h1c.3 0 .7 0 1 .3.3.3.4.7.4 1.1v.1c0 .3 0 .7-.3 1-.3.3-.7.4-1 .4h-.4V75h-.7v-4.8zM41.6 71.3c0-.1 0-.3-.1-.4-.1-.1-.2-.1-.4-.1s-.3.1-.4.1c-.1.1-.1.3-.1.4v2.5c0 .1 0 .3.1.4.1.1.2.1.4.1s.3-.1.4-.1c.1-.1.1-.3.1-.4v-2.5zm-1.8.1c0-.4 0-.7.4-1 .2-.2.5-.3.9-.3s.6.1.8.3c.3.3.4.7.4 1v2.3c0 .4 0 .7-.4 1-.2.2-.5.3-.8.3-.4 0-.6-.1-.9-.3-.3-.3-.4-.7-.4-1v-2.3zM43.4 70.2v2.1h.4c.1 0 .2 0 .3-.1.1-.1.1-.3.2-.6v-.4c0-.3.1-.6.3-.7.2-.2.5-.2.6-.2h.1v.6h-.1c-.1 0-.1 0-.2.1s-.1.2-.1.5v.5c0 .2 0 .4-.1.5 0 .1-.1.2-.2.2l.7 2.5h-.8l-.5-2.3h-.6V75h-.7v-4.8h.7zM47.8 74.4h.3c.1 0 .3 0 .5-.2.1-.2.1-.4.1-.5v-.2c0-.2 0-.4-.2-.5-.1-.1-.2-.1-.4-.1h-.4v1.5zm0-2.2h.3c.2 0 .4-.1.4-.2.1-.1.1-.3.1-.4v-.3c0-.1-.1-.2-.1-.3-.1-.1-.2-.2-.4-.2h-.3v1.4zm.2-2c.2 0 .6 0 .9.2.4.3.4.8.4 1.1 0 .3 0 .5-.2.8-.1.1-.2.2-.3.2.2.1.3.2.3.3.1.2.1.4.1.6v.4c0 .2 0 .7-.4 1-.1.1-.4.2-.8.2h-1v-4.8h1zM51.5 71.3c0-.1 0-.3-.1-.4-.1-.1-.2-.1-.4-.1s-.3.1-.4.1c-.1.1-.1.3-.1.4v2.5c0 .1 0 .3.1.4.1.1.2.1.4.1s.3-.1.4-.1c.1-.1.1-.3.1-.4v-2.5zm-1.7.1c0-.4 0-.7.4-1 .2-.2.5-.3.8-.3.4 0 .6.1.9.3.3.3.4.7.4 1v2.3c0 .4 0 .7-.4 1-.2.2-.5.3-.9.3s-.6-.1-.8-.3c-.3-.3-.4-.7-.4-1v-2.3zM52.5 71.1c0-.2 0-.5.4-.8.2-.1.4-.2.8-.2.3 0 .6.1.8.2.1.1.4.3.4.8v.4c0 .3 0 .5-.2.8-.1.1-.2.2-.3.2.2.1.3.2.3.3.1.2.1.4.1.6v.6c0 .3 0 .6-.3.8-.3.2-.6.3-.9.3-.3 0-.6 0-.8-.3 0 0-.3-.3-.3-.7v-.4h.7v.3c0 .1 0 .3.1.3.1.1.2.1.4.1s.3 0 .3-.1c.1-.1.1-.3.1-.4v-.4c0-.1 0-.4-.2-.5 0 0-.2-.1-.4-.1h-.2v-.6h.2c.2 0 .3-.1.4-.2.1-.1.1-.3.1-.4v-.3c0-.1 0-.3-.1-.4-.1-.1-.2-.1-.3-.1-.1 0-.2.1-.3.1-.1.1-.1.2-.1.3v.3h-.7v-.5zM56 74.4h.3c.1 0 .3 0 .5-.2.1-.2.1-.4.1-.5v-.2c0-.2 0-.4-.2-.5-.1-.1-.2-.1-.4-.1H56v1.5zm0-2.2h.3c.2 0 .4-.1.4-.2.1-.1.1-.3.1-.4v-.3c0-.1-.1-.2-.1-.3-.1-.1-.2-.2-.5-.2H56v1.4zm.3-2c.2 0 .6 0 .9.2.4.3.4.8.4 1.1 0 .3 0 .5-.2.8-.1.1-.2.2-.3.2.2.1.3.2.3.3.1.2.1.4.1.6v.4c0 .2 0 .7-.4 1-.2.1-.4.2-.8.2h-1v-4.8h1zM58.8 72.5h.4c.1 0 .3 0 .5-.2.1-.2.1-.3.1-.5v-.3c0-.2 0-.4-.2-.6-.2-.1-.3-.1-.5-.1h-.2v1.7zm-.6-2.3h1c.3 0 .7 0 1 .3.3.3.4.7.4 1.1v.1c0 .3 0 .7-.3 1-.3.3-.7.4-1 .4h-.4V75h-.7v-4.8zM61.4 71.5l-.4 1.8h.7l-.3-1.8zm.7 3.5l-.2-1H61l-.2 1h-.7l1.1-4.8h.6l1.1 4.8h-.8zM64.7 70.2v.6h-.8V75h-.7v-4.2h-.9v-.6M65.6 71.5l-.4 1.8h.8l-.4-1.8zm.7 3.5l-.2-1h-.9l-.2 1h-.7l1.1-4.8h.6l1 4.8h-.7zM36.5 76.8v.6h-.8v4.2H35v-4.2h-.9v-.6M38.4 77.9c0-.1 0-.3-.1-.4-.1-.1-.2-.1-.4-.1s-.3.1-.4.1c-.1.1-.1.3-.1.4v2.5c0 .1 0 .3.1.4.1.1.2.1.4.1s.3-.1.4-.1c.1-.1.1-.3.1-.4v-2.5zm-1.7.1c0-.4 0-.7.4-1 .2-.2.5-.3.9-.3s.6.1.8.3c.3.3.4.7.4 1v2.3c0 .4 0 .7-.4 1-.2.2-.5.3-.8.3-.4 0-.6-.1-.9-.3-.3-.3-.4-.7-.4-1V78zM40.3 81h.3c.1 0 .3 0 .5-.2.1-.2.1-.4.1-.5V80c0-.2 0-.4-.2-.5-.1-.1-.2-.1-.4-.1h-.4V81zm0-2.2h.3c.2 0 .4-.1.4-.2.1-.1.1-.3.1-.4v-.3c0-.1-.1-.2-.1-.3-.1-.1-.2-.2-.4-.2h-.3v1.4zm.2-2c.2 0 .6 0 .9.2.4.3.4.8.4 1.1 0 .3 0 .5-.2.8-.1.1-.2.2-.3.2.2.1.3.2.3.3.1.2.1.4.1.6v.4c0 .2 0 .7-.4 1-.1.1-.4.2-.8.2h-1v-4.8h1zM43.4 78.1L43 80h.7l-.3-1.9zm.7 3.5l-.2-1H43l-.2 1H42l1.1-4.8h.6l1.1 4.8h-.7zM45.7 79.1h.3c.1 0 .3 0 .5-.2.1-.2.1-.3.1-.5v-.3c0-.2 0-.4-.2-.6-.2-.1-.4-.1-.5-.1h-.2v1.7zm-.7-2.3h1c.3 0 .7 0 1 .3.3.3.4.7.4 1.1v.1c0 .3 0 .7-.3 1-.3.3-.7.4-1 .4h-.4v1.9H45v-4.8zM48.3 78.1l-.4 1.9h.7l-.3-1.9zm.6 3.5l-.2-1h-.9l-.2 1h-.7l1.1-4.8h.6l1.1 4.8h-.8zM51.9 81h.3c.1 0 .3 0 .5-.2.1-.2.1-.4.1-.5V80c0-.2 0-.4-.2-.5-.1-.1-.2-.1-.4-.1h-.4V81zm0-2.2h.3c.2 0 .4-.1.4-.2.1-.1.1-.3.1-.4v-.3c0-.1-.1-.2-.1-.3-.1-.1-.2-.2-.4-.2h-.3v1.4zm.2-2c.2 0 .6 0 .9.2.4.3.4.8.4 1.1 0 .3 0 .5-.2.8 0 .1-.1.1-.2.2.2.1.3.2.3.3.1.2.1.4.1.6v.4c0 .2 0 .7-.4 1-.1.1-.4.2-.8.2h-1v-4.8h.9zM57.4 76.8v.6h-.9v4.2h-.7v-4.2H55v-.6M57.6 76.8h2v.6h-1.3v1.4h1.2v.7h-1.2v1.4h1.4v.7h-2.1M62.2 76.8v4.8h-.7v-2c-.1.1-.3.1-.5.1-.5 0-.7-.2-.8-.3-.2-.2-.2-.6-.2-.9v-1.8h.7v1.6c0 .1 0 .4.1.6.1.1.2.1.3.1.1 0 .3 0 .4-.1v-2.2h.7zM62.8 76.8h2v.6h-1.3v1.4h1.2v.7h-1.2v1.4h1.4v.7h-2.1M66 76.8v2h.9v-2h.7v4.8h-.7v-2.1H66v2.1h-.7v-4.8M68.9 76.8v2.9l1.1-2.4v-.5h.7v4.8H70v-3L68.9 81v.6h-.7v-4.8M71.3 76.8h2v.6H72v1.4h1.2v.7H72v1.4h1.3v.7h-2M35.4 84.1l-.8.5v-.7l.8-.5h.7v4.8h-.7M38.7 83.4h2.1v.6h-1.4v4.2h-.7M42.6 84.5c0-.1 0-.3-.1-.4-.1-.1-.2-.1-.4-.1s-.3.1-.4.1c-.1.1-.1.3-.1.4V87c0 .1 0 .3.1.4.1.1.2.1.4.1s.3-.1.4-.1c.1-.1.1-.3.1-.4v-2.5zm-1.7.1c0-.4 0-.7.4-1 .2-.2.5-.3.9-.3s.6.1.8.3c.3.3.4.7.4 1v2.3c0 .4 0 .7-.4 1-.2.2-.5.3-.8.3-.4 0-.6-.1-.9-.3-.3-.3-.4-.7-.4-1v-2.3zM44.9 84v.4c0 1.2-.1 1.8-.1 2.3-.1.3-.1.6-.3 1h1V84h-.6zm1.7 3.6V89h-.7v-.7h-1.8v.7h-.7v-1.4h.3c.2-.3.3-.7.4-1.2.1-.7.1-1.9.1-2.7v-.4h1.9v4.2h.5z"/><path d="M47.9 84.7l-.4 1.8h.7l-.3-1.8zm.6 3.5l-.2-1h-.9l-.2 1h-.7l1.1-4.8h.6l1.1 4.8h-.8z"/><path fill="#4CBC38" d="M12.1 79c-.2 0-.4-.1-.6-.3L10 76.6c-.2-.3-.1-.7.2-.9.3-.2.7-.1.9.2l1.1 1.6 1.6-1.1c.3-.2.7-.1.9.2.2.3.1.7-.2.9L12.4 79c0-.1-.2 0-.3 0z"/><path fill="#4CBC38" d="M12.3 78.1c-.4 0-.7-.3-.7-.7 0-2.9 2.4-5.3 5.3-5.3 1.7 0 3.2.8 4.2 2.1.2.3.2.7-.1 1-.3.2-.7.2-1-.1-.8-1-1.9-1.5-3.1-1.5-2.2 0-3.9 1.8-3.9 3.9 0 .3-.3.6-.7.6zM23.2 79.5c-.2 0-.4-.1-.6-.3l-1.1-1.6-1.5 1.2c-.3.2-.7.1-.9-.2-.2-.3-.1-.7.2-1l2.1-1.5c.1-.1.3-.1.5-.1s.3.1.4.3l1.5 2.1c.2.3.1.7-.2.9-.1.2-.2.2-.4.2z"/><path fill="#4CBC38" d="M16.9 82.9c-1.7 0-3.2-.8-4.2-2.1-.2-.3-.2-.7.1-1 .3-.2.7-.2 1 .1.8 1 1.9 1.5 3.1 1.5 2.2 0 3.9-1.8 3.9-3.9 0-.4.3-.7.7-.7.4 0 .7.3.7.7 0 3-2.4 5.4-5.3 5.4z"/><path fill="#4CBC38" d="M6.7 85.4c0 1.1.9 2 2 2h16.4c1.1 0 2-.9 2-2l-1.4-15.8v-.1c0-1.1-.9-2-2-2H10.1c-1.1 0-2 .9-2 2v.1L6.7 85.4zm18.4 3.4H8.7c-1.9 0-3.4-1.5-3.4-3.4v-.1l1.4-15.8c0-1.9 1.5-3.4 3.4-3.4h13.7c1.9 0 3.4 1.5 3.4 3.4l1.4 15.8v.1c-.1 1.9-1.6 3.4-3.5 3.4z"/><path fill="#4CBC38" d="M21.5 67.1c-.4 0-.7-.3-.7-.7v-3.3c0-.3-.2-.5-.5-.5h-6.9c-.3 0-.5.2-.5.5v3.3c0 .4-.3.7-.7.7-.4 0-.7-.3-.7-.7v-3.3c0-1 .8-1.8 1.8-1.8h6.9c1 0 1.8.8 1.8 1.8v3.3c.2.4-.1.7-.5.7z"/><circle fill="#4CBC38" cx="112.1" cy="81.2" r="1.2"/><circle fill="#4CBC38" cx="104.1" cy="73.4" r="1.2"/><path d="M131.8 64.5c0-.7.6-1 1.1-1 .6 0 1.2.3 1.2 1v2.7c0 .4 0 1.2-1.2 1.2-.9 0-1.1-.5-1.1-1V67h.7v.3c0 .3.2.5.5.5.5 0 .5-.4.5-.5v-1.1h-.9v-.6h.9v-1c0-.2-.2-.4-.5-.4s-.4.2-.4.5v.3h-.7v-.5zM135.3 63.6v2.1h.4c.1 0 .2 0 .3-.1.1-.1.1-.3.2-.6v-.4c0-.3.1-.6.3-.7.2-.2.5-.2.6-.2h.1v.6h-.1c-.1 0-.1 0-.2.1s-.1.2-.1.5v.5c0 .2 0 .4-.1.5 0 .1-.1.2-.2.2l.7 2.5h-.8l-.6-2.1h-.6v2.1h-.7v-4.8h.8zM139.3 64.7c0-.1 0-.3-.1-.4-.1-.1-.2-.1-.4-.1s-.3.1-.4.1c-.1.1-.1.3-.1.4v2.5c0 .1 0 .3.1.4.1.1.2.1.4.1s.3-.1.4-.1c.1-.1.1-.3.1-.4v-2.5zm-1.8.1c0-.4 0-.7.4-1 .2-.2.5-.3.8-.3s.6.1.8.3c.3.3.4.7.4 1v2.3c0 .4 0 .7-.4 1-.2.2-.5.3-.8.3s-.6-.1-.8-.3c-.3-.3-.4-.7-.4-1v-2.3zM141.2 63.6v2h.9v-2h.7v4.8h-.7v-2.1h-.9v2.1h-.7v-4.8M145 64.7c0-.1 0-.3-.1-.4-.1-.1-.2-.1-.4-.1s-.3.1-.4.1c-.1.1-.1.3-.1.4v2.5c0 .1 0 .3.1.4.1.1.2.1.4.1s.3-.1.4-.1c.1-.1.1-.3.1-.4v-2.5zm-1.7.1c0-.4 0-.7.4-1 .2-.2.5-.3.9-.3s.6.1.8.3c.3.3.4.7.4 1v2.3c0 .4 0 .7-.4 1-.2.2-.5.3-.8.3-.4 0-.6-.1-.9-.3-.3-.3-.4-.7-.4-1v-2.3zM146.2 63.6h.7l1 2.6.9-2.6h.7v4.8h-.7v-3l-.8 2.2h-.3l-.7-2.2h-.1v3h-.7M150.8 63.6v2.9l1.1-2.4v-.5h.7v4.8h-.7v-3l-1.1 2.4v.6h-.7v-4.8M154.4 64.2c-.1 0-.3 0-.4.1-.1.1-.2.3-.2.4v.3c0 .2 0 .3.1.4.1.1.3.2.4.2h.4v-1.5h-.3zm1 4.2h-.7v-2.1h-.4l-.6 2.1h-.7l.7-2.2c-.2-.1-.3-.2-.3-.3-.1-.2-.2-.5-.2-.7v-.4c0-.4.1-.6.3-.8.3-.4.8-.4 1.2-.4h.9v4.8zM158.1 67.8h.3c.1 0 .3 0 .5-.2.1-.2.1-.4.1-.5v-.2c0-.2 0-.4-.2-.5-.1-.1-.2-.1-.4-.1h-.3v1.5zm0-2.2h.3c.2 0 .4-.1.4-.2.1-.1.1-.3.1-.4v-.3c0-.1-.1-.2-.1-.3-.1-.1-.2-.2-.4-.2h-.3v1.4zm.2-2c.2 0 .6 0 .9.2.4.3.4.8.4 1.1 0 .3 0 .5-.2.8-.1.1-.2.2-.3.2.2.1.3.2.3.3.1.2.1.4.1.6v.4c0 .2 0 .7-.4 1-.1.1-.4.2-.8.2h-1v-4.8h1zM160.9 65.9h.4c.1 0 .3 0 .5-.2.1-.2.1-.3.1-.5v-.3c0-.2 0-.4-.2-.6-.2-.1-.4-.1-.5-.1h-.2v1.7zm-.7-2.3h1c.3 0 .7 0 1 .3.3.3.4.7.4 1.1v.1c0 .3 0 .7-.3 1-.3.3-.7.4-1 .4h-.4v1.9h-.7v-4.8zM162.9 63.6h2v.6h-1.3v1.4h1.2v.7h-1.2v1.4h1.4v.7h-2.1M165.4 63.6h.7l.9 2.6h.1l.9-2.6h.6v4.8h-.6v-3h-.1l-.7 2.2h-.4l-.7-2.2v3h-.7M169.2 63.6h2.1v.6h-1.4v1.4h1.2v.7h-1.2v1.4h1.4v.7h-2.1M172.4 63.6v2h.9v-2h.7v4.8h-.7v-2.1h-.9v2.1h-.7v-4.8M175.3 63.6v2.9l1.1-2.4v-.5h.7v4.8h-.7v-3l-1.1 2.4v.6h-.7v-4.8M144.3 71.3c0-.1 0-.3-.1-.4-.1-.1-.2-.1-.4-.1s-.3.1-.4.1c-.1.1-.1.3-.1.4v2.5c0 .1 0 .3.1.4.1.1.2.1.4.1s.3-.1.4-.1c.1-.1.1-.3.1-.4v-2.5zm-1.8.1c0-.4 0-.7.4-1 .2-.2.5-.3.9-.3s.6.1.8.3c.3.3.4.7.4 1v2.3c0 .4 0 .7-.4 1-.2.2-.5.3-.8.3-.4 0-.6-.1-.9-.3-.3-.3-.4-.7-.4-1v-2.3zM147.6 73.7h.2c.1 0 .3 0 .5-.2.1-.2.1-.3.1-.5v-1c0-.2 0-.4-.2-.6-.2-.1-.4-.1-.5-.1h-.1v2.4zm-.7-2.3c-.2 0-.4 0-.5.1-.2.2-.2.4-.2.6v1c0 .2 0 .3.1.5.2.2.3.2.5.2h.2l-.1-2.4zm.7-.7h.2c.3 0 .7 0 1 .3.3.3.3.7.3 1.1v.9c0 .3 0 .7-.3 1-.3.4-.8.4-.9.4h-.2v.6h-.7v-.7h-.2c-.2 0-.6 0-1-.4-.3-.3-.3-.7-.3-1v-.8c0-.4 0-.8.3-1.1.3-.3.7-.3 1-.3h.2v-.6h.7v.6zM151.3 71.3c0-.1 0-.3-.1-.4-.1-.1-.2-.1-.4-.1s-.3.1-.4.1c-.1.1-.1.3-.1.4v2.5c0 .1 0 .3.1.4.1.1.2.1.4.1s.3-.1.4-.1c.1-.1.1-.3.1-.4v-2.5zm-1.7.1c0-.4 0-.7.4-1 .2-.2.5-.3.8-.3s.6.1.8.3c.3.3.4.7.4 1v2.3c0 .4 0 .7-.4 1-.2.2-.5.3-.8.3s-.6-.1-.8-.3c-.3-.3-.4-.7-.4-1v-2.3zM153.3 72.5h.4c.1 0 .3 0 .5-.2.1-.2.1-.3.1-.5v-.3c0-.2 0-.4-.2-.6-.2-.1-.4-.1-.5-.1h-.2v1.7zm-.7-2.3h1c.3 0 .7 0 1 .3.3.3.3.7.3 1.1v.1c0 .3 0 .7-.3 1-.3.3-.7.4-1 .4h-.4V75h-.7v-4.8zM155.4 70.2h.7l1 2.6.9-2.6h.7V75h-.7v-3l-.7 2.2h-.4l-.7-2.2h-.1v3h-.7M161.7 75h-.7v-4.2h-.5v.7c0 .8 0 1.2-.1 1.6 0 .5-.1.8-.1.9-.1.2-.1.5-.3.7-.3.3-.5.3-.8.3h-.2v-.7h.1c.1 0 .2 0 .3-.1.2-.1.2-.3.2-.3.1-.2.1-.9.1-1.2v-2.6h1.9V75zM162.4 70.2h2v.6h-1.3v1.4h1.2v.7h-1.2v1.4h1.3v.7h-2M165.6 70.2v2h1v-2h.7V75h-.7v-2.1h-1V75h-.6v-4.8M168.6 70.2v2.9l1.2-2.4v-.5h.7V75h-.7v-3l-1.2 2.4v.6h-.6v-4.8M171.9 70.2v2.9l1.1-2.4v-.5h.7V75h-.7v-3l-1.1 2.4v.6h-.7v-4.8M134.3 70.2V75h-.7v-4.2h-.9V75h-.7v-4.8M135.8 72.5h.4c.1 0 .3 0 .5-.2.1-.2.1-.3.1-.5v-.3c0-.2 0-.4-.2-.6-.2-.1-.4-.1-.5-.1h-.2v1.7zm-.7-2.3h1c.3 0 .7 0 1 .3.3.3.4.8.4 1.1v.1c0 .3 0 .7-.3 1-.3.3-.7.4-1 .4h-.4V75h-.7v-4.8zM138.7 70.2v2.9l1.2-2.4v-.5h.7V75h-.7v-3l-1.2 2.5v.5h-.6v-4.8M132.4 76.8l.7 2.4c0-.3.1-.7.2-1l.3-1.4h.7l-.8 3.3c-.1.5-.2 1.2-.6 1.4-.2.1-.4.1-.6.1h-.3v-.7h.2c.1 0 .3 0 .3-.1.1-.1.1-.2.1-.3l.1-.4-1.1-3.4h.8zM136 77.9c0-.1 0-.2-.1-.3 0 0-.1-.2-.4-.2-.2 0-.3.1-.4.2-.1.1-.1.3-.1.5v2.4c0 .2 0 .3.1.4.1.1.2.2.4.2.1 0 .3-.1.4-.2 0-.1.1-.2.1-.4v-.2h.7v.2c0 .5-.2.8-.3.9-.1.2-.4.3-.9.3s-.7-.2-.9-.4c-.2-.3-.2-.6-.2-.9v-2.5c0-.3 0-.7.4-.9.2-.2.5-.3.8-.3.3 0 .6.1.8.3.2.2.3.5.3.8v.3h-.7v-.2zM139.5 81.6h-.7v-4.2h-.6v.7c0 .8 0 1.2-.1 1.6 0 .5-.1.8-.1.9-.1.2-.1.5-.3.7-.3.3-.5.3-.8.3h-.2v-.7h.1c.1 0 .2 0 .3-.1.2-.1.2-.3.2-.3.1-.2.1-.9.1-1.2v-2.6h1.9v4.9zM140.6 76.8l.7 2.4c0-.3.1-.7.2-1l.3-1.4h.7l-.8 3.3c-.1.5-.2 1.2-.6 1.4-.2.1-.4.1-.6.1h-.2v-.7h.2c.1 0 .3 0 .3-.1.1-.1.1-.2.1-.3l.1-.4-1.1-3.4h.7zM142.7 76.8h2.1v.6h-1.4v4.2h-.7"/><path fill="#4CBC38" d="M111 75.6V64.9h1.5v8.5l3.6-1 .4 1.5"/><path fill="#4CBC38" d="M112.1 60.6c-7.1 0-12.8 5.7-12.8 12.8 0 7.1 5.7 12.8 12.8 12.8 7.1 0 12.8-5.7 12.8-12.8.1-7.1-5.7-12.8-12.8-12.8zm0 1.3c6.3 0 11.5 5.1 11.5 11.5 0 6.3-5.1 11.5-11.5 11.5-6.3 0-11.5-5.1-11.5-11.5 0-6.3 5.2-11.5 11.5-11.5z"/><circle fill="#4CBC38" cx="120.3" cy="73.4" r="1.2"/><path fill="#686868" d="M.9 109.6h.3c.1 0 .3 0 .4-.2.1-.1.1-.3.1-.5v-.3c0-.2 0-.4-.2-.5-.1-.1-.3-.1-.5-.1H.9v1.6zm-.7-2.1h.9c.3 0 .6 0 .9.3.3.3.3.7.3 1v.1c0 .2 0 .6-.3.9-.3.3-.6.3-.9.3H.9v1.8H.2v-4.4zM4.3 108.6c0-.1 0-.3-.1-.4-.1-.1-.2-.1-.3-.1-.2 0-.3.1-.3.1-.1.1-.1.2-.1.4v2.3c0 .1 0 .3.1.4.1.1.2.1.3.1.2 0 .3-.1.3-.1.1-.1.1-.3.1-.4v-2.3zm-1.6.1c0-.3 0-.7.3-.9.2-.2.4-.3.8-.3s.6.1.8.3c.3.3.3.6.3.9v2.1c0 .3 0 .7-.3.9-.2.2-.4.3-.8.3s-.6-.1-.8-.3c-.3-.3-.3-.6-.3-.9v-2.1zM6.8 108.5c0-.1 0-.2-.1-.3 0 0-.1-.2-.3-.2-.2 0-.3.1-.3.1-.1.3-.1.4-.1.6v2.2c0 .1 0 .3.1.4 0 .1.1.2.3.2.1 0 .3-.1.4-.2 0 0 .1-.1.1-.4v-.2h.6v.2c0 .4-.2.7-.3.8-.2.2-.4.3-.8.3s-.7-.2-.8-.3c-.2-.3-.2-.6-.2-.8v-2.3c0-.3 0-.6.3-.9.2-.2.5-.3.7-.3.3 0 .6.1.8.3.2.2.3.4.3.7v.3h-.7v-.2zM9.8 107.5v.6H9v3.9h-.6v-3.9h-.8v-.6M11.4 108.6c0-.1 0-.3-.1-.4-.1-.1-.2-.1-.3-.1-.2 0-.3.1-.3.1-.1.1-.1.2-.1.4v2.3c0 .1 0 .3.1.4.1.1.2.1.3.1.2 0 .3-.1.3-.1.1-.1.1-.3.1-.4v-2.3zm-1.5.1c0-.3 0-.7.3-.9.2-.2.4-.3.8-.3.3 0 .6.1.8.3.3.3.3.6.3.9v2.1c0 .3 0 .7-.3.9-.2.2-.4.3-.8.3-.3 0-.6-.1-.8-.3-.3-.3-.3-.6-.3-.9v-2.1zM13.2 111.4h.3c.1 0 .3 0 .4-.2.1-.1.1-.4.1-.4v-.2c0-.2 0-.4-.2-.5-.1-.1-.2-.1-.3-.1h-.3v1.4zm0-2h.3c.2 0 .3-.1.4-.2.1-.1.1-.2.1-.4v-.3c0-.1-.1-.2-.1-.3-.1-.1-.2-.1-.4-.1h-.3v1.3zm.2-1.9c.2 0 .6 0 .8.2.4.3.4.8.4 1 0 .3 0 .5-.2.7l-.2.2c.2.1.2.2.3.3.1.2.1.3.1.6v.3c0 .2 0 .6-.4.9-.1.1-.4.2-.8.2h-1v-4.4h1zM16.6 108.5c0-.1 0-.2-.1-.3 0 0-.1-.2-.3-.2-.2 0-.3.1-.3.1-.1.1-.1.3-.1.4v2.2c0 .1 0 .3.1.4 0 .1.1.2.3.2.1 0 .3-.1.4-.2 0 0 .1-.1.1-.4v-.2h.6v.2c0 .4-.2.7-.3.8-.1.1-.4.3-.8.3s-.7-.2-.8-.3c-.2-.3-.2-.6-.2-.8v-2.3c0-.3 0-.6.3-.9.2-.2.5-.3.7-.3.3 0 .6.1.8.3.2.2.3.4.3.7v.3h-.6zM18.3 107.5v1.9h.4c.1 0 .2 0 .2-.1.1-.1.1-.3.1-.6v-.4c0-.2.1-.5.2-.7.2-.2.4-.2.6-.2h.2v.6c-.1 0-.1 0-.2.1s-.1.2-.1.5v.4c0 .2 0 .3-.1.5 0 .1-.1.1-.1.2l.7 2.3h-.7l-.5-2h-.5v2h-.6v-4.4h.4zM21.3 108.8l-.3 1.7h.7l-.4-1.7zm.7 3.2l-.2-.9H21l-.2.9h-.6l1-4.4h.6l1 4.4H22z"/><path fill="#686868" d="M24 108.1c-.1 0-.3 0-.4.1-.1.1-.1.2-.1.4v.3c0 .2 0 .3.1.4.1.1.3.1.4.1h.3V108H24zm.9 3.9h-.6v-1.9h-.4l-.6 1.9h-.7l.7-2.1c-.1-.1-.2-.2-.3-.2-.1-.2-.2-.4-.2-.7v-.3c0-.3.1-.6.2-.8.3-.4.8-.3 1.1-.3h.8v4.4zM28.4 108.6c0-.1 0-.3-.1-.4-.1-.1-.2-.1-.3-.1-.2 0-.3.1-.3.1-.1.1-.1.2-.1.4v2.3c0 .1 0 .3.1.4.1.1.2.1.3.1.2 0 .3-.1.3-.1.1-.1.1-.3.1-.4v-2.3zm-1.6.1c0-.3 0-.7.3-.9.2-.2.4-.3.8-.3.3 0 .6.1.8.3.3.3.3.6.3.9v2.1c0 .3 0 .7-.3.9-.2.2-.5.3-.8.3-.3 0-.6-.1-.8-.3-.3-.3-.3-.6-.3-.9v-2.1zM30.2 111.4h.3c.1 0 .3 0 .4-.2.1-.1.1-.3.1-.5v-.2c0-.2 0-.4-.2-.5-.1-.1-.2-.1-.3-.1h-.3v1.5zm1.3-3.9v.6h-1.3v1.2h.3c.2 0 .6 0 .9.3.3.3.3.6.3.7v.5c0 .2 0 .5-.2.7-.1.2-.4.4-.9.4h-1v-4.4h1.9zM34.3 112h-.6v-3.9h-.5v.6c0 .8 0 1.1-.1 1.5 0 .5-.1.7-.1.8 0 .2-.1.4-.3.6-.2.3-.5.3-.7.3h-.1v-.6h.1c.1 0 .2 0 .2-.1.1-.1.2-.2.2-.3.1-.2.1-.9.1-1.1v-2.4h1.8v4.6zM34.9 111.3h.7v.7h-.7zM36.8 111.3v.7l-.7.6v-1.3M.2 113.9h1.9v.6H.9v3.8H.2M1.4 117.6h.7v.7h-.7zM4.8 115.1l-.3 1.7h.7l-.4-1.7zm.7 3.2l-.2-1h-.9l-.2 1h-.6l1-4.4h.6l1 4.4h-.7zM7 113.9v1.9h.4c.1 0 .2 0 .2-.1.1-.1.1-.3.1-.6v-.4c0-.2.1-.5.3-.7.2-.2.4-.2.6-.2h.1v.6h-.1s-.1 0-.2.1-.1.2-.1.5v.4c0 .2 0 .3-.1.5 0 .1-.1.1-.1.2l.7 2.3H8l-.5-2H7v2h-.7V114H7zM10.5 114.9c0-.1 0-.2-.1-.3 0 0-.1-.2-.3-.2-.2 0-.3.1-.3.1-.1.1-.1.3-.1.4v2.2c0 .1 0 .3.1.4 0 .1.1.2.3.2.1 0 .3-.1.4-.2 0 0 .1-.1.1-.4v-.2h.6v.2c0 .4-.2.7-.3.8-.1.1-.4.3-.8.3s-.7-.2-.8-.3c-.3-.2-.3-.5-.3-.7v-2.3c0-.3 0-.6.3-.9.2-.2.5-.3.7-.3.3 0 .6.1.8.3.2.2.3.4.3.7v.3h-.6v-.1zM12.4 115.1l-.3 1.7h.7l-.4-1.7zm.7 3.2l-.2-1H12l-.2 1h-.6l1-4.4h.6l1 4.4h-.7zM15.8 112.9c0 .3-.1.4-.2.5-.1.1-.3.2-.6.2-.2 0-.5-.1-.6-.2-.1-.1-.2-.3-.2-.5v-.1h.5v.1c0 .1 0 .1.1.2.1 0 .1.1.2.1s.1 0 .2-.1.1-.1.1-.2v-.1l.5.1zm-1.3 1v2.7l1-2.2v-.5h.6v4.4h-.6v-2.7l-1 2.2v.5h-.6v-4.4h.6zM17.4 117.6v.7l-.7.6v-1.3M20.2 115.1l-.3 1.7h.7l-.4-1.7zm.6 3.2l-.2-1h-.8l-.2 1H19l1-4.4h.6l1 4.4h-.8zM22.3 113.9v1.9h.4c.1 0 .2 0 .2-.1.1-.1.1-.3.1-.6v-.4c0-.2.1-.5.3-.7.2-.2.4-.2.6-.2h.1v.6h-.1c-.1 0-.1 0-.2.1s-.1.2-.1.5v.4c0 .2 0 .3-.1.5 0 .1-.1.1-.1.2l.7 2.3h-.7l-.6-2h-.5v2h-.6V114h.6zM25.8 114.9c0-.1 0-.2-.1-.3 0 0-.1-.2-.3-.2-.2 0-.3.1-.3.1-.1.1-.1.3-.1.4v2.2c0 .1 0 .3.1.4 0 .1.1.2.3.2.1 0 .3-.1.4-.2 0 0 .1-.1.1-.4v-.2h.6v.2c0 .4-.2.7-.3.8-.1.1-.4.3-.8.3s-.7-.2-.8-.3c-.2-.3-.2-.6-.2-.8v-2.3c0-.3 0-.6.3-.9.2-.2.5-.3.7-.3.3 0 .6.1.8.3.2.2.3.4.3.7v.3h-.6zM27.8 115.1l-.3 1.7h.7l-.4-1.7zm.6 3.2l-.2-1h-.8l-.2 1h-.6l1-4.4h.6l1 4.4h-.8zM31.2 112.9c0 .3-.1.4-.2.5-.1.1-.3.2-.6.2s-.5-.1-.6-.2c-.1-.1-.2-.3-.2-.5v-.1h.5v.1c0 .1 0 .1.1.2.1 0 .1.1.2.1s.1 0 .2-.1.1-.1.1-.2v-.1l.5.1zm-1.3 1v2.7l1-2.2v-.5h.6v4.4h-.6v-2.7l-1 2.2v.5h-.6v-4.4h.6zM33.5 114.9c0-.1 0-.2-.1-.3 0 0-.1-.2-.3-.2-.2 0-.3.1-.3.1-.1.1-.1.3-.1.4v2.2c0 .1 0 .3.1.4 0 .1.1.2.3.2.1 0 .3-.1.4-.2 0 0 .1-.1.1-.4v-.2h.6v.2c0 .4-.2.7-.3.8-.1.1-.4.3-.8.3s-.7-.2-.8-.3c-.2-.3-.2-.6-.2-.8v-2.3c0-.3 0-.6.3-.9.2-.2.5-.3.7-.3.3 0 .6.1.8.3.2.2.3.4.3.7v.3h-.6zM35.2 113.9v1.9h.4c.1 0 .2 0 .2-.1.1-.1.1-.3.1-.6v-.4c0-.2.1-.5.3-.7.2-.2.4-.2.6-.2h.1v.6h-.1s-.1 0-.2.1-.1.2-.1.5v.4c0 .2 0 .3-.1.5 0 .1-.1.1-.1.2l.7 2.3h-.7l-.6-2h-.5v2h-.6V114h.6zM37.9 113.9v2.7l1.1-2.2v-.5h.6v4.4H39v-2.7l-1.1 2.2v.5h-.6v-4.4M42.1 112.9c0 .3-.1.4-.2.5-.1.1-.3.2-.6.2-.2 0-.5-.1-.6-.2-.1-.1-.2-.3-.2-.5v-.1h.5v.1c0 .1 0 .1.1.2.1 0 .1.1.2.1s.1 0 .2-.1.1-.1.1-.2v-.1l.5.1zm-1.3 1v2.7l1-2.2v-.5h.6v4.4h-.6v-2.7l-1 2.2v.5h-.6v-4.4h.6zM46.4 113.9v4.4h-.6v-3.9H45v3.9h-.7v-4.4M47.6 116h.3c.1 0 .3 0 .4-.2.1-.1.1-.3.1-.5v-.3c0-.2 0-.4-.2-.5-.1-.1-.3-.1-.5-.1h-.2v1.6zm-.6-2.1h.9c.3 0 .6 0 .9.3.3.3.3.7.3 1v.1c0 .2 0 .6-.3.9-.3.3-.6.4-.9.4h-.4v1.8H47v-4.5zM48.3 117.6h.7v.7h-.7zM50.2 117.6v.7l-.7.6v-1.3M52 114.8c0-.4.1-.6.3-.8.2-.2.5-.3.7-.3.3 0 .5.1.7.3.1.2.2.4.2.7v.2c0 .2 0 .2-.1.4l-.2.4-1 1.9h1.2v.6H52v-.6l1.1-2.1c0-.1.1-.2.1-.3v-.5c0-.1 0-.3-.1-.3 0 0-.1-.1-.2-.1-.2 0-.2.1-.3.2-.1.1-.1.2-.1.4v.2H52v-.3zM54.4 114.7c0-.2 0-.5.3-.7.2-.1.4-.2.6-.2.2 0 .5.1.7.2.2.1.3.4.3.7v.6c0 .2 0 .5-.4.7.4.2.4.5.4.8v.4c0 .4 0 .6-.3.9-.2.2-.5.3-.7.3-.2 0-.5 0-.7-.2-.1-.1-.3-.3-.3-.6v-.6h.6v.3c0 .1 0 .2.1.3 0 .1.1.1.3.1.2 0 .3-.1.3-.4v-.7c0-.1 0-.2-.1-.3-.1-.1-.2-.1-.3-.1H55v-.6h.1c.1 0 .2 0 .3-.1.1-.1.1-.2.1-.3v-.6c0-.1 0-.2-.1-.3 0 0-.1-.1-.3-.1-.1 0-.2 0-.2.1-.1.1-.1.2-.1.3v.3h-.6v-.2zM67.4 109.8h.3c.1 0 .3 0 .4-.2.1-.1.1-.3.1-.5v-.3c0-.2 0-.4-.2-.5-.1-.1-.3-.1-.5-.1h-.2v1.6zm-.7-2.1h.9c.3 0 .6 0 .9.3.3.3.3.7.3 1v.1c0 .2 0 .6-.3.9-.3.3-.6.3-.9.3h-.4v1.7h-.6v-4.3zM70.8 108.7c0-.1 0-.3-.1-.4-.1-.1-.2-.1-.3-.1-.2 0-.3.1-.3.1-.1.1-.1.3-.1.4v2.3c0 .1 0 .3.1.4.1.1.2.1.3.1.2 0 .3-.1.3-.1.1-.1.1-.3.1-.4v-2.3zm-1.5.1c0-.3 0-.7.3-.9.2-.2.5-.3.8-.3.3 0 .6.1.8.3.3.3.3.6.3.9v2.1c0 .3 0 .7-.3.9-.2.2-.4.3-.8.3-.3 0-.6-.1-.8-.3-.3-.3-.3-.6-.3-.9v-2.1zM73.5 108.7c0-.1 0-.2-.1-.3 0 0-.1-.2-.3-.2-.2 0-.3.1-.3.1-.1.1-.1.3-.1.4v2.2c0 .1 0 .3.1.4 0 .1.1.2.3.2.1 0 .3 0 .4-.2 0 0 .1-.1.1-.4v-.2h.6v.2c0 .4-.2.7-.3.8-.1.1-.4.3-.8.3s-.7-.2-.8-.3c-.2-.3-.2-.6-.2-.8v-2.3c0-.3 0-.6.3-.9.2-.2.5-.3.7-.3.3 0 .6.1.8.3.2.2.3.4.3.7v.3h-.6zM76.5 107.7v.6h-.7v3.8h-.7v-3.8h-.7v-.6M78.3 108.7c0-.1 0-.3-.1-.4-.1-.1-.2-.1-.3-.1-.2 0-.3.1-.3.1-.1.1-.1.3-.1.4v2.3c0 .1 0 .3.1.4.1.1.2.1.3.1.2 0 .3-.1.3-.1.1-.1.1-.3.1-.4v-2.3zm-1.5.1c0-.3 0-.7.3-.9.2-.2.4-.3.8-.3.3 0 .6.1.8.3.3.3.3.6.3.9v2.1c0 .3 0 .7-.3.9-.2.2-.4.3-.8.3-.3 0-.6-.1-.8-.3-.3-.3-.3-.6-.3-.9v-2.1zM80.2 111.5h.3c.1 0 .3 0 .4-.2.1-.1.1-.4.1-.5v-.2c0-.2 0-.4-.2-.5-.1-.1-.2-.1-.3-.1h-.3v1.5zm0-2h.3c.2 0 .3-.1.4-.2.1-.1.1-.2.1-.4v-.3c0-.1-.1-.2-.1-.3-.1-.1-.2-.1-.4-.1h-.3v1.3zm.2-1.8c.2 0 .6 0 .8.2.4.3.4.8.4 1 0 .3 0 .5-.2.7l-.2.2c.2.1.2.2.3.3.1.2.1.3.1.6v.3c0 .2 0 .6-.4.9-.1.1-.4.2-.8.2h-1v-4.4h1zM83.7 108.7c0-.1 0-.2-.1-.3 0 0-.1-.2-.3-.2-.2 0-.3.1-.3.1-.1.1-.1.3-.1.4v2.2c0 .1 0 .3.1.4 0 .1.1.2.3.2.1 0 .3 0 .4-.2 0 0 .1-.1.1-.4v-.2h.6v.2c0 .4-.1.7-.3.8-.1.1-.4.3-.8.3s-.7-.2-.8-.3c-.2-.3-.2-.6-.2-.8v-2.3c0-.3 0-.6.3-.9.2-.2.5-.3.7-.3.3 0 .6.1.8.3.2.2.3.4.3.7v.3h-.6zM85.5 107.7v1.9h.4c.1 0 .2 0 .2-.1.1-.1.1-.3.1-.6v-.4c0-.2.1-.5.3-.7.2-.2.4-.2.6-.2h.1v.6h-.1c-.1 0-.1 0-.2.1s-.1.2-.1.5v.4c0 .2 0 .3-.1.5 0 .1-.1.1-.1.2l.7 2.3h-.7l-.5-2h-.5v2H85v-4.4h.5zM88.6 108.9l-.3 1.7h.7l-.4-1.7zm.6 3.2l-.2-.9h-.8l-.2.9h-.6l1-4.4h.6l1 4.4h-.8zM91.4 108.2c-.1 0-.3 0-.4.1-.1.1-.1.2-.1.4v.3c0 .2 0 .3.1.4.1.1.3.1.4.1h.3v-1.4h-.3zm.9 3.9h-.6v-1.9h-.4l-.6 1.9H90l.7-2c-.2-.1-.2-.2-.3-.2-.1-.2-.2-.4-.2-.7v-.3c0-.3.1-.6.2-.8.3-.4.8-.3 1.1-.3h.8v4.3zM96.1 108.7c0-.1 0-.3-.1-.4-.1-.1-.2-.1-.3-.1-.2 0-.3.1-.3.1-.1.1-.1.3-.1.4v2.3c0 .1 0 .3.1.4.1.1.2.1.3.1.2 0 .3-.1.3-.1.1-.1.1-.3.1-.4v-2.3zm-1.6.1c0-.3 0-.7.3-.9.2-.2.4-.3.8-.3.3 0 .6.1.8.3.3.3.3.6.3.9v2.1c0 .3 0 .7-.3.9-.2.2-.4.3-.8.3-.3 0-.6-.1-.8-.3-.3-.3-.3-.6-.3-.9v-2.1zM97.9 111.5h.3c.1 0 .3 0 .4-.2.1-.1.1-.3.1-.5v-.2c0-.2 0-.4-.2-.5-.1-.1-.2-.1-.3-.1h-.3v1.5zm1.3-3.8v.6h-1.3v1.2h.3c.2 0 .6 0 .9.2.3.3.3.6.3.7v.5c0 .2 0 .5-.2.7-.1.2-.4.4-.9.4h-1v-4.4h1.9zM102.1 112.1h-.6v-3.9h-.5v.6c0 .8 0 1.1-.1 1.5 0 .5-.1.7-.1.8 0 .2-.1.4-.3.6-.2.3-.5.3-.7.3h-.1v-.6h.1c.1 0 .2 0 .2-.1.1-.1.2-.2.2-.3.1-.2.1-.9.1-1.1v-2.4h1.8v4.6zM103.7 108.9l-.3 1.7h.7l-.4-1.7zm.7 3.2l-.2-.9h-.8l-.2.9h-.6l1-4.4h.6l1 4.4h-.8zM106.8 108.7c0-.1 0-.2-.1-.3 0 0-.1-.2-.3-.2-.2 0-.3.1-.3.1-.1.1-.1.3-.1.4v2.2c0 .1 0 .3.1.4 0 .1.1.2.3.2.1 0 .3 0 .4-.2 0 0 .1-.1.1-.4v-.2h.6v.2c0 .4-.2.7-.3.8-.1.1-.4.3-.8.3s-.7-.2-.8-.3c-.2-.3-.2-.6-.2-.8v-2.3c0-.3 0-.6.3-.9.2-.2.5-.3.7-.3.3 0 .6.1.8.3.2.2.3.4.3.7v.3h-.6zM109.8 107.7v.6h-.8v3.8h-.6v-3.8h-.8v-.6M110.8 111.5h.3c.2 0 .5 0 .5-.7v-.2c0-.2 0-.4-.2-.5-.1-.1-.2-.1-.3-.1h-.3v1.5zm0-3.8v1.8h.3c.2 0 .6 0 .9.2.3.3.3.6.3.7v.5c0 .2 0 .5-.2.7-.1.2-.4.4-.9.4h-1v-4.4h.6zM113.5 111.4v.7l-.6.6v-1.3M116.7 108.9l-.3 1.7h.7l-.4-1.7zm.6 3.2l-.2-.9h-.8l-.2.9h-.6l1-4.4h.6l1 4.4h-.8zM119 107.7v1.9h.4c.1 0 .2 0 .2-.1.1-.1.1-.3.1-.6v-.4c0-.2.1-.5.3-.7.2-.2.4-.2.6-.2h.1v.6h-.1s-.1 0-.2.1-.1.2-.1.5v.4c0 .2 0 .3-.1.5 0 .1-.1.1-.1.2l.7 2.3h-.7l-.6-2h-.5v2h-.6v-4.4h.6zM122.6 108.7c0-.1 0-.2-.1-.3 0 0-.1-.2-.3-.2-.2 0-.3.1-.3.1-.1.1-.1.3-.1.4v2.2c0 .1 0 .3.1.4 0 .1.1.2.3.2.1 0 .3 0 .4-.2 0 0 .1-.1.1-.4v-.2h.6v.2c0 .4-.2.7-.3.8-.1.1-.4.3-.8.3s-.7-.2-.8-.3c-.2-.3-.2-.6-.2-.8v-2.3c0-.3 0-.6.3-.9.2-.2.5-.3.7-.3.3 0 .6.1.8.3.2.2.3.4.3.7v.3h-.6zM124.7 108.9l-.3 1.7h.7l-.4-1.7zm.6 3.2l-.2-.9h-.8l-.2.9h-.6l1-4.4h.6l1 4.4h-.8zM128.3 106.7c0 .3-.1.4-.2.5-.1.1-.3.2-.6.2-.2 0-.5-.1-.6-.2-.1-.1-.2-.2-.2-.5v-.1h.5v.1s0 .1.1.2.1.1.2.1.1 0 .2-.1.1-.1.1-.2v-.1l.5.1zm-1.3 1v2.7l1-2.2v-.5h.6v4.4h-.6v-2.7l-1 2.2v.5h-.6v-4.4h.6zM130.7 108.7c0-.1 0-.2-.1-.3 0 0-.1-.2-.3-.2-.2 0-.3.1-.3.1-.1.1-.1.3-.1.4v2.2c0 .1 0 .3.1.4 0 .1.1.2.3.2.1 0 .3 0 .4-.2 0 0 .1-.1.1-.4v-.2h.6v.2c0 .4-.1.7-.3.8-.1.1-.4.3-.8.3s-.7-.2-.8-.3c-.2-.3-.2-.6-.2-.8v-2.3c0-.3 0-.6.3-.9.2-.2.5-.3.7-.3.3 0 .6.1.8.3.2.2.3.4.3.7v.3h-.6zM132.6 107.7v1.9h.4c.1 0 .2 0 .2-.1.1-.1.1-.3.1-.6v-.4c0-.2.1-.5.3-.7.2-.2.4-.2.6-.2h.1v.6h-.1c-.1 0-.1 0-.2.1s-.1.2-.1.5v.4c0 .2 0 .3-.1.5 0 .1-.1.1-.1.2l.7 2.3h-.7l-.5-2h-.5v2h-.7v-4.4h.6zM135.5 107.7v2.7l1.1-2.2v-.5h.6v4.4h-.6v-2.7l-1.1 2.2v.5h-.6v-4.4M139.9 106.7c0 .3-.1.4-.2.5-.1.1-.3.2-.6.2-.2 0-.5-.1-.6-.2-.1-.1-.2-.2-.2-.5v-.1h.5v.1s0 .1.1.2.1.1.2.1.1 0 .2-.1.1-.1.1-.2v-.1l.5.1zm-1.3 1v2.7l1-2.2v-.5h.6v4.4h-.6v-2.7l-1 2.2v.5h-.6v-4.4h.6zM143.1 109.8h.3c.1 0 .3 0 .4-.2.1-.1.1-.3.1-.5v-.3c0-.2 0-.4-.2-.5-.1-.1-.3-.1-.5-.1h-.2v1.6zm-.6-2.1h.9c.3 0 .6 0 .9.3.3.3.3.7.3 1v.1c0 .2 0 .6-.3.9-.3.3-.6.3-.9.3h-.4v1.7h-.6v-4.3zM145.7 108.9l-.3 1.7h.7l-.4-1.7zm.6 3.2l-.2-.9h-.8l-.2.9h-.6l1-4.4h.6l1 4.4h-.8zM149.2 106.7c0 .3-.1.4-.2.5-.1.1-.3.2-.6.2-.2 0-.5-.1-.6-.2-.1-.1-.2-.2-.2-.5v-.1h.5v.1s0 .1.1.2.1.1.2.1.1 0 .2-.1.1-.1.1-.2v-.1l.5.1zm-1.3 1v2.7l1-2.2v-.5h.6v4.4h-.6v-2.7l-1 2.2v.5h-.6v-4.4h.6zM151.7 108.7c0-.1 0-.3-.1-.4-.1-.1-.2-.1-.3-.1-.2 0-.3.1-.3.1-.1.1-.1.3-.1.4v2.3c0 .1 0 .3.1.4.1.1.2.1.3.1.2 0 .3-.1.3-.1.1-.1.1-.3.1-.4v-2.3zm-1.6.1c0-.3 0-.7.3-.9.2-.2.4-.3.8-.3.3 0 .6.1.8.3.3.3.3.6.3.9v2.1c0 .3 0 .7-.3.9-.2.2-.4.3-.8.3-.3 0-.6-.1-.8-.3-.3-.3-.3-.6-.3-.9v-2.1zM153.5 107.7v1.9h.9v-1.9h.6v4.4h-.6v-2h-.9v2h-.6v-4.4M156.4 111.4v.7l-.7.6v-1.3M68.8 114v4.4h-.6v-3.9h-.8v3.9h-.7V114M69.3 117.7h.7v.7h-.7zM72.5 117.8h.3c.1 0 .3 0 .4-.2.1-.1.1-.4.1-.4v-.2c0-.2 0-.4-.2-.5-.1-.1-.2-.1-.3-.1h-.3v1.4zm0-2h.3c.2 0 .3-.1.4-.2.1-.1.1-.2.1-.4v-.2c0-.1 0-.2-.1-.3-.1-.1-.2-.1-.4-.1h-.3v1.2zm.2-1.8c.2 0 .6 0 .8.2.4.3.4.8.4 1 0 .3 0 .5-.2.7l-.2.2c.2.1.2.2.3.3.1.2.1.3.1.6v.3c0 .2 0 .6-.4.9-.1.1-.4.2-.8.2h-1V114h1zM74.5 114h1.8v.6h-1.2v1.3h1.1v.5h-1.1v1.4h1.3v.6h-1.9M77.4 116.1h.3c.1 0 .3 0 .4-.2.1-.1.1-.3.1-.5v-.3c0-.2 0-.4-.2-.5-.1-.1-.3-.1-.5-.1h-.2v1.6zm-.6-2.1h.9c.3 0 .6 0 .9.3.3.3.3.7.3 1v.1c0 .2 0 .6-.3.9-.3.3-.6.3-.9.3h-.4v1.7h-.6V114z"/><path fill="#686868" d="M79.6 114l.5 1.4.5-1.4h.7l-.9 2.1 1 2.3h-.7l-.6-1.6-.6 1.6h-.7l.9-2.3-.8-2.1M82.3 114v1.9h.8V114h.7v4.4h-.7v-2h-.8v2h-.6V114M84.3 114h1.9v.6H85v1.3h1.1v.5H85v1.4h1.2v.6h-1.9M88.6 114v.6h-.8v3.8h-.6v-3.8h-.8v-.6M88.8 114h1.9v.6h-1.3v1.3h1.1v.5h-1.1v1.4h1.3v.6h-1.9M91.1 114h.6l.9 2.4.9-2.4h.6v4.4h-.6v-2.8h-.1l-.6 2h-.4l-.6-2h-.1v2.8h-.6M94.7 114h1.8v.6h-1.2v1.3h1.1v.5h-1.1v1.4h1.3v.6h-1.9M97.6 116.1h.3c.1 0 .3 0 .4-.2.1-.1.1-.3.1-.5v-.3c0-.2 0-.4-.2-.5-.1-.1-.3-.1-.5-.1h-.2v1.6zM97 114h.9c.3 0 .6 0 .9.3.3.3.3.7.3 1v.1c0 .2 0 .6-.3.9-.3.3-.6.3-.9.3h-.4v1.7H97V114zM100.1 114v1.9h.9V114h.6v4.4h-.6v-2h-.9v2h-.6V114M102.8 114v2.7l1-2.2v-.5h.7v4.4h-.7v-2.7l-1 2.2v.5h-.6V114M105 114h.7v3.8h.8V114h.6v3.8h.4v1.3h-.6v-.7H105M108.3 114v1.9h.4c.1 0 .2 0 .2-.1.1-.1.1-.3.1-.6v-.4c0-.2.1-.5.3-.7.2-.2.4-.2.6-.2h.1v.6c-.1 0-.1 0-.2.1s-.1.2-.1.5v.4c0 .2 0 .3-.1.5 0 .1-.1.1-.1.2l.7 2.3h-.7l-.5-2h-.5v2h-.6V114h.4zM111.1 114v2.7l1-2.2v-.5h.6v4.4h-.6v-2.7l-1 2.2v.5h-.7V114M115.2 113c0 .2-.1.4-.2.5-.1.1-.3.2-.6.2-.2 0-.5-.1-.6-.2-.1-.1-.2-.3-.2-.5v-.1h.5v.1c0 .1 0 .1.1.2s.1.1.2.1.1 0 .2-.1.1-.1.1-.2v-.1l.5.1zm-1.3 1v2.7l1-2.2v-.5h.6v4.4h-.5v-2.7l-1 2.2v.5h-.6V114h.5zM116.8 117.7v.7l-.7.6v-1.3M119 114l.6 2.2c0-.2.1-.6.2-.9l.3-1.3h.6l-.8 3c-.1.5-.2 1.1-.6 1.3-.2.1-.4.1-.5.1h-.2v-.6h.2c.1 0 .2 0 .3-.1.1-.1.1-.2.1-.3l.1-.4-1-3.1h.7zM122.8 118.4h-.6v-3.8h-.5v.6c0 .8 0 1.1-.1 1.5 0 .5-.1.7-.1.8 0 .2-.1.4-.3.6-.2.3-.5.3-.7.3h-.1v-.6h.1c.1 0 .2 0 .2-.1.2-.1.2-.2.2-.3.1-.2.1-.9.1-1.1v-2.4h1.8v4.5zM123.3 117.7h.7v.7h-.7zM127.4 115c0-.1 0-.3-.1-.4-.1-.1-.2-.1-.3-.1-.2 0-.3.1-.3.1-.1.1-.1.3-.1.4v2.3c0 .1 0 .3.1.4.1.1.2.1.3.1.2 0 .3-.1.3-.1.1-.1.1-.3.1-.4V115zm-1.6.1c0-.3 0-.7.3-.9.2-.2.4-.3.8-.3.3 0 .6.1.8.3.3.3.3.6.3.9v2.1c0 .3 0 .7-.3.9-.2.2-.4.3-.8.3-.3 0-.6-.1-.8-.3-.3-.3-.3-.6-.3-.9v-2.1zM129.1 117.8h.3c.1 0 .3 0 .4-.2.1-.1.1-.3.1-.5v-.2c0-.2 0-.4-.2-.5-.1-.1-.2-.1-.3-.1h-.3v1.5zm1.3-3.8v.6h-1.3v1.2h.3c.2 0 .6 0 .9.3.3.2.3.6.3.7v.5c0 .2 0 .5-.2.7-.1.2-.4.4-1 .4h-1V114h2zM132.4 115c0-.1 0-.2-.1-.3 0 0-.1-.2-.3-.2-.2 0-.3.1-.3.1-.1.1-.1.3-.1.4v2.2c0 .1 0 .3.1.4 0 .1.1.2.3.2.1 0 .3-.1.4-.2 0 0 .1-.1.1-.4v-.2h.6v.2c0 .4-.1.7-.3.8-.1.1-.4.3-.8.3s-.7-.2-.8-.3c-.2-.3-.2-.6-.2-.8V115c0-.3 0-.6.3-.9.2-.2.5-.3.7-.3.3 0 .6.1.8.3.2.2.3.4.3.7v.3h-.6v-.1zM133.5 114h1.9v.6h-1.3v1.3h1.1v.5h-1.1v1.4h1.3v.6h-1.9M136.4 116.1h.3c.1 0 .3 0 .4-.2.1-.1.1-.3.1-.5v-.3c0-.2 0-.4-.2-.5-.1-.1-.3-.1-.5-.1h-.2v1.6zm-.6-2.1h.9c.3 0 .6 0 .9.3.3.3.3.7.3 1v.1c0 .2 0 .6-.3.9-.3.3-.6.3-.9.3h-.4v1.7h-.6V114zM138.9 117.8h.3c.1 0 .3 0 .4-.2.1-.1.1-.4.1-.4v-.2c0-.2 0-.4-.2-.5-.1-.1-.2-.1-.3-.1h-.3v1.4zm0-2h.3c.2 0 .3-.1.4-.2.1-.1.1-.2.1-.4v-.2c0-.1-.1-.2-.1-.3-.1-.1-.2-.1-.4-.1h-.3v1.2zm.3-1.8c.2 0 .6 0 .8.2.4.3.4.8.4 1 0 .3 0 .5-.2.7l-.2.2c.2.1.2.2.3.3.1.2.1.3.1.6v.3c0 .2 0 .6-.4.9-.1.1-.4.2-.8.2h-1V114h1zM141.8 115.2l-.3 1.7h.7l-.4-1.7zm.6 3.2l-.2-.9h-.8l-.2.9h-.6l1-4.4h.6l1 4.4h-.8zM144.9 114v.6h-.8v3.8h-.6v-3.8h-.8v-.6M146.6 115c0-.1 0-.3-.1-.4-.1-.1-.2-.1-.3-.1-.2 0-.3.1-.3.1-.1.1-.1.3-.1.4v2.3c0 .1 0 .3.1.4.1.1.2.1.3.1.2 0 .3-.1.3-.1.1-.1.1-.3.1-.4V115zm-1.6.1c0-.3 0-.7.3-.9.2-.2.4-.3.8-.3.3 0 .6.1.8.3.3.3.3.6.3.9v2.1c0 .3 0 .7-.3.9-.2.2-.4.3-.8.3-.3 0-.6-.1-.8-.3-.3-.3-.3-.6-.3-.9v-2.1zM148.2 116.1h.3c.1 0 .3 0 .4-.2.1-.1.1-.3.1-.5v-.3c0-.2 0-.4-.2-.5-.1-.1-.3-.1-.5-.1h-.2v1.6zm-.6-2.1h.9c.3 0 .6 0 .9.3.3.3.3.7.3 1v.1c0 .2 0 .6-.3.9-.3.3-.6.3-.9.3h-.4v1.7h-.6V114zM150.6 114v1.9h.9V114h.6v4.4h-.6v-2h-.9v2h-.6V114M153.6 115.2l-.3 1.7h.7l-.4-1.7zm.6 3.2l-.2-.9h-.8l-.2.9h-.6l1-4.4h.6l1 4.4h-.8z"/><path fill="#686868" d="M156.2 114.5c-.1 0-.3 0-.4.1-.1.1-.1.2-.1.4v.3c0 .2 0 .3.1.4.1.1.3.1.4.1h.3v-1.4h-.3zm.9 3.9h-.6v-1.9h-.4l-.6 1.9h-.7l.7-2c-.2-.1-.2-.2-.3-.2-.1-.2-.2-.4-.2-.7v-.3c0-.3.1-.6.2-.8.3-.4.8-.3 1.1-.3h.8v4.3zM158.3 117.7v.7l-.7.6v-1.3M161.1 114.5v.3c0 1.1-.1 1.7-.1 2.1-.1.3-.1.6-.3.9h.9v-3.3h-.5zm1.5 3.3v1.2h-.6v-.7h-1.6v.7h-.6v-1.2h.3c.1-.3.3-.7.3-1.1.1-.6.1-1.7.1-2.5v-.2h1.7v3.8h.4zM162.8 117.7h.7v.7h-.7zM166.1 114.6l-.7.5v-.6l.7-.5h.6v4.4h-.6M169.7 114v.6h-1.2v1.2c.1-.1.1-.1.2-.1s.2-.1.3-.1c.2 0 .4.1.5.2.1.1.2.3.2.5v1.2c0 .2 0 .5-.2.7-.1.1-.3.3-.7.3-.3 0-.5-.1-.7-.2-.2-.2-.3-.5-.3-.7v-.2h.6v.1c0 .1 0 .2.1.3 0 .1.1.1.3.1.1 0 .2 0 .3-.1.1-.1.1-.2.1-.3v-1c0-.1 0-.2-.1-.3-.1-.1-.1-.1-.2-.1s-.2 0-.2.1c0 0-.1.1-.1.2h-.6V114h1.7z"/></svg>