<svg version="1" xmlns="http://www.w3.org/2000/svg" viewBox="0 0 406.4 406.4"><g fill="#50B848"><circle cx="203.2" cy="326.8" r="18.4"/><circle cx="77.1" cy="203.2" r="18.4"/><path d="M209.3 204.4V69.8h-24.5v167.7l88.2-25.7-7.4-24.5"/><path d="M203.2 0C90.6 0 0 91.8 0 203.2s90.6 203.2 203.2 203.2 203.2-90.6 203.2-203.2C406.4 91.8 314.6 0 203.2 0zm0 384.3C102.8 384.3 22 303.6 22 203.2S102.8 22 203.2 22s181.2 80.8 181.2 181.2-80.8 181.1-181.2 181.1z"/><circle cx="331.7" cy="203.2" r="18.4"/></g></svg>