<svg version="1" xmlns="http://www.w3.org/2000/svg" viewBox="0 0 536.1 369.6"><path fill="#50B848" d="M58.8 369.6C26.9 369.6 0 343.9 0 310.9c0-31.8 25.7-58.8 58.8-58.8 31.8 0 58.8 25.7 58.8 58.8-.1 33-27 58.7-58.8 58.7m0-93c-19.6 0-35.5 15.9-35.5 35.5s15.9 35.5 35.5 35.5 35.5-15.9 35.5-35.5c-.1-19.6-16-35.5-35.5-35.5M498.2 79.6c-20.8 0-37.9-17.1-37.9-37.9s17.1-37.9 37.9-37.9c20.8 0 37.9 17.1 37.9 37.9 0 21.9-17.1 37.9-37.9 37.9m0-52.7c-8.6 0-14.7 7.3-14.7 14.7 0 8.6 7.3 14.7 14.7 14.7 8.6 0 14.7-7.3 14.7-14.7 0-7.3-7.4-14.7-14.7-14.7M378.2 192.2c-52.6 0-96.7-42.8-96.7-95.5S324.4 0 378.2 0c12.2 0 23.3 2.4 34.3 6.1 4.9 1.2 7.3 6.1 7.3 11 0 11 0 29.4-6.1 35.5-2.4 2.4-6.1 3.7-8.6 3.7-23.3 0-36.7 11-36.7 29.4 0 15.9 12.2 28.2 28.2 28.2 9.8 0 17.1-4.9 23.3-12.2 3.7-4.9 8.6-7.3 14.7-7.3 3.7 0 6.1 1.2 7.3 1.2 1.2 0 2.4 1.2 2.4 2.4l18.4 17.1s1.2 1.2 1.2 2.4c2.4 3.7 3.7 9.8 1.2 15.9-14.7 35.5-47.7 58.8-86.9 58.8m0-170.2c-40.4 0-73.4 33-73.4 73.4s33 73.4 73.4 73.4c26.9 0 52.6-15.9 64.9-40.4l-8.6-7.3c-9.8 11-23.3 17.1-37.9 17.1-28.2 0-51.4-23.3-51.4-51.4 0-22 13.5-49 51.4-52.6v-8.6c-4.9-2.3-11-3.6-18.4-3.6"/><path fill="#50B848" d="M85.7 277.8c-3.7 0-7.3-1.2-9.8-4.9-3.7-4.9-2.4-12.2 3.7-15.9l213-143.2c4.9-3.7 12.2-2.4 15.9 3.7 3.7 4.9 2.4 12.2-3.7 15.9l-213 142c-1.2 1.2-3.7 2.4-6.1 2.4M107.7 319.5c-3.7 0-7.3-1.2-9.8-4.9-3.7-4.9-2.4-12.2 3.7-15.9l217.9-146.9c4.9-3.7 12.2-2.4 15.9 3.7 3.7 4.9 2.4 12.2-3.7 15.9L113.8 318.2c-1.2 0-3.6 1.3-6.1 1.3"/></svg>