<svg version="1" xmlns="http://www.w3.org/2000/svg" viewBox="0 792 457 436.6"><path fill="#50B848" d="M367.4 1150.3H160.6c-4.9 0-9.8-3.7-11-8.6 0-2.4-53.9-209.3-71-277.8-14.7-56.3-58.8-49-64.9-49-6.1 2.4-12.2-2.4-13.5-8.6s2.4-11 8.6-13.5c1.2 0 69.8-13.5 90.6 64.9 15.9 61.2 58.8 228.9 69.8 269.3h198.3c6.1 0 11 4.9 11 11 0 7.4-4.9 12.3-11.1 12.3"/><path fill="#50B848" d="M365 1228.6c-28.2 0-50.2-22-50.2-50.2s22-50.2 50.2-50.2c28.2 0 50.2 22 50.2 50.2s-23.3 50.2-50.2 50.2m0-78.3c-14.7 0-26.9 12.2-26.9 26.9s12.2 26.9 26.9 26.9 26.9-12.2 26.9-26.9-12.2-26.9-26.9-26.9m-181.2 78.3c-28.2 0-50.2-22-50.2-50.2s22-50.2 50.2-50.2 50.2 22 50.2 50.2-22 50.2-50.2 50.2m0-78.3c-14.7 0-26.9 12.2-26.9 26.9s12.2 26.9 26.9 26.9 26.9-12.2 26.9-26.9c.1-14.7-12.2-26.9-26.9-26.9m-35.5-49c-4.9 0-9.8-3.7-11-8.6L82.2 881c-1.2-6.1 2.4-12.2 8.6-13.5 6.1-1.2 12.2 2.4 13.5 8.6l52.6 203.2h236.2L434.8 881c1.2-6.1 7.3-9.8 13.5-8.6s9.8 7.3 8.6 13.5l-42.8 206.9c-1.2 4.9-6.1 8.6-11 8.6H148.3z"/><path fill="#50B848" d="M270.7 1048.7c-40.4 0-75.9-24.5-91.8-62.4-2.4-6.1 0-12.2 6.1-14.7s12.2 0 14.7 6.1c12.2 29.4 39.2 47.7 71 47.7 41.6 0 75.9-34.3 75.9-75.9s-34.3-75.9-75.9-75.9c-26.9 0-51.4 13.5-64.9 36.7-3.7 4.9-9.8 7.3-15.9 3.7-4.9-3.7-7.3-9.8-3.7-15.9 17.1-29.4 50.2-49 84.5-49 53.9 0 99.1 44.1 99.1 99.1.1 56.4-44 100.5-99.1 100.5"/><path fill="#50B848" d="M245 921.4h-66.1v-64.9M272 975.3c-2.4 0-4.9-1.2-7.3-2.4-2.4-2.4-4.9-6.1-4.9-8.6v-58.8c0-6.1 4.9-11 11-11s11 4.9 11 11v44.1L310 941c6.1-1.2 12.2 1.2 14.7 7.3 1.2 6.1-1.2 12.2-7.3 14.7l-42.8 12.2H272"/></svg>