<svg version="1" xmlns="http://www.w3.org/2000/svg" xmlns:xlink="http://www.w3.org/1999/xlink" viewBox="0 0 428.4 571.2"><defs><path id="a" d="M214.2 525.3s183.6-207.1 183.6-309.1c0-103-82.6-185.6-183.6-185.6S30.6 113.2 30.6 216.2c0 102 183.6 309.1 183.6 309.1m0-401.9c51 0 91.8 41.8 91.8 92.8S265.2 309 214.2 309s-91.8-41.8-91.8-92.8 40.8-92.8 91.8-92.8m0 447.8l-22.4-25.5C171.4 523.3 0 326.4 0 216.2 0 96.9 95.9 0 214.2 0s214.2 96.9 214.2 216.2c0 110.2-171.4 307-191.8 329.5l-22.4 25.5zm0-417.2c-33.7 0-61.2 27.5-61.2 62.2s27.5 62.2 61.2 62.2 61.2-27.5 61.2-62.2-27.5-62.2-61.2-62.2z"/></defs><use xlink:href="#a" overflow="visible" fill="#4DB848"/></svg>