<svg version="1" xmlns="http://www.w3.org/2000/svg" viewBox="0 0 391.7 460.2"><path fill="#50B848" d="M113.8 296.2c-3.7 0-7.3-1.2-9.8-4.9l-24.5-35.5c-3.7-4.9-2.4-12.2 2.4-15.9 4.9-3.7 12.2-2.4 15.9 2.4l18.4 25.7 25.7-18.4c4.9-3.7 12.2-2.4 15.9 2.4 3.7 4.9 2.4 12.2-2.4 15.9L120 292.5c-1.3 2.5-3.7 3.7-6.2 3.7"/><path fill="#50B848" d="M117.5 281.5c-6.1 0-11-4.9-11-11 0-49 40.4-88.1 88.1-88.1 28.2 0 53.9 12.2 71 35.5 3.7 4.9 2.4 12.2-2.4 15.9-4.9 3.7-12.2 2.4-15.9-2.4-12.2-17.1-31.8-25.7-52.6-25.7-36.7 0-66.1 29.4-66.1 66.1-.1 4.8-5 9.7-11.1 9.7M299.9 304.8c-3.7 0-7.3-1.2-9.8-4.9L273 274.2l-25.7 18.4c-4.9 3.7-12.2 2.4-15.9-2.4-3.7-4.9-2.4-12.2 2.4-15.9l35.5-24.5c2.4-1.2 6.1-2.4 8.6-2.4s6.1 2.4 7.3 4.9l24.5 35.5c3.7 4.9 2.4 12.2-2.4 15.9-2.5 1.1-5 1.1-7.4 1.1"/><path fill="#50B848" d="M194.6 361.1c-28.2 0-53.9-12.2-71-35.5-3.7-4.9-2.4-12.2 2.4-15.9 4.9-3.7 12.2-2.4 15.9 2.4 12.2 15.9 31.8 25.7 52.6 25.7 36.7 0 66.1-29.4 66.1-66.1 0-6.1 4.9-11 11-11s11 4.9 11 11c.1 50.2-39 89.4-88 89.4"/><path fill="#50B848" d="M331.7 460.2H57.5C25.7 460.2 0 434.5 0 402.7v-1.2l23.3-263.2C23.3 106.5 49 82 80.8 82h230.1c31.8 0 56.3 25.7 57.5 56.3l23.3 264.4v1.2c-2.5 31.8-28.2 56.3-60 56.3M23.3 403.9c0 18.4 15.9 34.3 34.3 34.3H333c18.4 0 34.3-14.7 34.3-34.3L344 139.5v-1.2c0-18.4-15.9-34.3-34.3-34.3H79.6c-18.4 0-34.3 15.9-34.3 34.3v1.2l-22 264.4z"/><path fill="#50B848" d="M271.7 96.7c-6.1 0-11-4.9-11-11V30.6c0-4.9-3.7-7.3-7.3-7.3H137.1c-4.9 0-7.3 3.7-7.3 7.3v55.1c0 6.1-4.9 11-11 11s-11-4.9-11-11V30.6c0-17.1 13.5-30.6 30.6-30.6h116.3c17.1 0 30.6 13.5 30.6 30.6v55.1c-1.3 6.1-7.5 11-13.6 11"/></svg>