<svg version="1" xmlns="http://www.w3.org/2000/svg" viewBox="0 0 60 60"><path d="M5.4 34.8l4.3 4.3 3-2.9-1-1L9.8 37l-3.3-3.3M10.9 31l.8.7 1.5-1.5.9.9-1.5 1.5.9 1 1.9-1.9.9.8-3 3.1-4.4-4.4 3-3 .9.9M20.6 28.2l-3-.8c.3-.7.2-1.5-.4-2.1-.6-.6-1.7-.6-2.5.1l-2.2 2.2 4.4 4.4 1.1-1.1-3.5-3.5.7-.7c.3-.3.8-.3 1.1 0 .3.3.3.8 0 1.1l-.6.7 3.8 1.1 1.1-1.4zM18.6 21.3c1.4-1.4 3.2-1.2 4.4 0 1.3 1.3 1.4 3.1 0 4.5s-3.2 1.2-4.4 0c-1.2-1.4-1.3-3.2 0-4.5m.9.8c-.7.7-.5 1.5.4 2.4.8.8 1.7 1.1 2.4.4.7-.7.5-1.5-.4-2.4-.9-.8-1.7-1.1-2.4-.4M24.4 19l-.8-2.5 1.3-1.3 1 4.2 1.8 1.7-1.1 1.2-1.7-1.7-4.1-1.3 1.2-1.2 2.4.9M44.5 34l4.4-4.3-1.2-1.2-4.3 4.4M27.9 17.3l3.4-1.6-2.5 2.5 1 1 4.3-4.4-1.4-1.4-3.2 1.6 1.6-3.2-1.4-1.4-4.4 4.3 1 1 2.5-2.5-1.6 3.4M35.4 17.9l-.7.8 1.7 1.6-.9.9-1.7-1.6-1 .9 2.1 2-.9.9-3.1-3.1 4.3-4.4 3.1 3.2-.8.9M39.6 29.1l3 3 1-1-1.9-1.9 3.4-3.4-1.1-1.1M51.4 32.1L50 36.8l3-3.1 1 1.1-4.4 4.4-1.3-1.4 1.2-4.8-3 3-1-1 4.3-4.4M38.8 28.3l.8-3c.6.3 1.5.2 2.1-.4.6-.6.6-1.8-.1-2.5L39.3 20 35 24.4l1.1 1.1 3.5-3.5.8.9c.3.3.3.8 0 1.1-.3.3-.8.3-1.1 0l-.8-.8-.9 3.9 1.2 1.2z"/><path fill="#50B848" d="M10.5 40h38.3L29.7 20.8"/><path fill="#E4412B" d="M34.1 49.4c-.1 0-.2-.1-.2-.2-.1-.1 0-.3.1-.4 2.8-1.3 8.8-2.8 13.7-2 .1 0 .2.2.2.3 0 .1-.2.2-.3.2-4.9-.8-10.7.7-13.4 1.9 0 .2 0 .2-.1.2"/><path d="M12.9 45.6c-.9 1.5-1.3 2.2-1.3 2.5 0 .2.1.3.5.3 1.2-.1 3-1.2 2.9-2.6-.1-.6-.6-.9-2-.7-.5 0-.7.1-1.3.3-.1 0-.3.1-.3.2 0 0 .2.1.3.1-.4.2-.6.3-1 .4h-.2c-.1 0-.1-.1-.1-.2-.1-.7.1-1 .8-1.3.6-.3 1.2-.5 1.9-.5.6-.1 2-.1 2.2 1.5.2 2.1-2.4 3.5-3.7 3.6-.3 0-.5 0-.6-.6-.1-.7 1-2.2 1.7-3.5l.2.5zM17.2 47v.2c0 .2-.1.4-.2.6v.1s.1.1.2.1c.2 0 .1-.1.3-.1h.1c0 .1-.3.4-.6.5h-.1c-.3.4-.6.5-.8.6-.5.1-.8-.5-.8-.9-.1-.6.8-1.6 1.5-1.7.2 0 .4.1.4.2v.4m-.8.9v-.4c.1-.4.2-.5.2-.5l-.1-.1c-.1 0-.5.3-.6.5-.2.3-.4.5-.3.8 0 .3.3.3.4.3.2 0 .4-.2.5-.3-.1-.1-.1-.2-.1-.3"/><path d="M20.9 46.1c.1 0 .2.2.3.3 0 .2-.2.3-.3.5-.1.1-.3.4-.3.6 0 .2.2.2.2.2.1 0 .3-.1.4-.3.1-.2.2-.2.2-.2s.1 0 .1.1-.2.3-.2.4c-.2.3-.6.7-.9.8-.3 0-.4-.1-.4-.3 0-.4.3-.7.5-1.2-1 .7-1.4 1.6-1.6 1.6-.1 0-.1-.2-.2-.4 0-.1.1-.3.2-.6.2-.4.2-.6.2-.6 0-.5-.9 1.6-1.5 1.6-.2 0-.3-.2-.3-.4 0-.3.3-.9.5-.9h.1c0 .1-.1.2-.1.6 0 .1 0 .2.1.2s.4-.6.9-1.1c.2-.2.8-.9 1-.9.1 0 .2.1.2.4 0 .1-.1.2-.1.3-.3.4-.4.6-.3.8v.1c1-1.4 1.2-1.5 1.3-1.6M24.2 48.6c-.3.7-.6 1.4-.9 1.5 0 0-.2 0-.3-.5-.1-.9.3-1 1-1.5.1-.3.3-.7.4-1-.6.6-.9.9-1.1.9-.3 0-.7-.6-.7-.8-.1-.8 1.6-1.7 2.3-1.8.2 0 .4.1.4.6v.2l-.8 1.8 1.1-.6s.2-.1.2 0 0 .1-.1.1l-1.4.9-.1.2zm-.9-1.1c.3 0 1.6-1.2 1.6-1.5 0 0 0-.1-.1-.1-.2 0-.8.3-1.1.6-.3.2-.5.5-.5.8 0 .2 0 .2.1.2-.1 0 0 0 0 0m-.1 2v.1c.3-.1.3-.3.5-.8l.1-.3c-.7.3-.6 1-.6 1"/><path d="M25.8 47.9c-.1 0-.3-.2-.3-.4 0-.3.2-.9.4-.9h.1v.1c-.1.2 0 .3 0 .5 0 .1 0 .2.1.2s.4-.6.9-1.1c.1-.1.7-.7.9-.8.1 0 .2.2.2.3 0 .1-.1.2-.3.5-.1.2-.3.4-.2.6 0 .1.1.2.2.1.4 0 .3-.5.6-.5 0 0 .1 0 .1.1s-.3.5-.4.6c-.2.3-.4.5-.7.6-.2 0-.4-.1-.4-.5 0-.1 0-.4.4-1-1.1.6-.4 1.4-1.6 1.6"/><path d="M30.7 45.7v.2c0 .3 0 .3-.2.4-.1.1-.4.3-.3.6 0 .1.1.1.2.1s.2-.1.4-.2c.1-.1.1-.1.2-.1s.1 0 .1.1c0 .2-.8.8-1 .8-.2 0-.3-.1-.3-.2v-.2c0-.2.1-.5.2-.7-.1.1-.2.2-.3.2-.6 1.2-1.1 1.6-1.5 1.6-.1 0-.3 0-.3-.1s.3-.6.3-.7c.1.1.2.1.2.1.3 0 .6-.5.8-.8-.2.1-.4.2-.5.2-.2 0-.3.1-.4-.6 0-.2 0-.4.6-1 .3-.4.8-.7 1.1-.7.2 0 .3.2.4.6 0 .2-.1.4-.4.8.4-.2.6-.4.7-.4m-.8-.2c0-.1-.1-.1-.2-.1-.4 0-1.1.6-1.1.8 0 .1.1.1.3.1.2 0 .4 0 .6-.1.4-.5.4-.6.4-.7M35.1 43.4c-.9 1.5-1.3 2.2-1.3 2.5 0 .2.1.3.5.3 1.2-.1 3-1.2 2.9-2.6-.1-.6-.6-.8-2-.7-.5 0-.7.1-1.3.3-.1 0-.3.1-.3.2 0 0 .2.1.3.1-.4.2-.6.3-1 .4h-.2c-.1 0-.1-.1-.1-.2-.1-.7.1-1 .8-1.3.6-.3 1.2-.5 2-.5.6-.1 2-.1 2.2 1.5.2 2.1-2.4 3.5-3.7 3.6-.3 0-.5 0-.6-.6-.1-.7 1-2.2 1.7-3.5l.1.5zM39.3 44.8v.2c0 .2-.1.4-.2.6v.1s.1.1.2.1c.2 0 .1-.1.3-.1h.1c0 .1-.3.4-.6.5H39c-.3.4-.5.5-.8.6-.5.1-.8-.5-.8-.9-.1-.6.8-1.6 1.5-1.7.2 0 .4.1.4.2v.4m-.8 1v-.4c.1-.4.2-.5.2-.5l-.1-.1c-.1 0-.5.3-.6.5-.2.3-.4.5-.3.8 0 .3.3.3.4.3.2 0 .4-.2.6-.3-.1-.1-.2-.2-.2-.3"/><path d="M43.1 44c.1 0 .2.2.3.3 0 .2-.2.3-.3.5-.1.1-.3.4-.3.6 0 .2.2.2.2.2.1 0 .3-.1.4-.3.1-.2.2-.2.2-.2s.1 0 .1.1-.2.3-.2.4c-.2.3-.6.7-.9.8-.3 0-.4-.1-.4-.3 0-.4.3-.7.5-1.2-1 .7-1.4 1.6-1.6 1.6-.1 0-.1-.2-.2-.4 0-.1.1-.3.2-.6.2-.4.2-.6.2-.6 0-.4-.9 1.6-1.5 1.6-.2 0-.3-.2-.3-.4 0-.3.3-.9.5-.9h.1c0 .1-.1.2-.1.6 0 .1 0 .2.1.2s.4-.6.9-1.1c.2-.2.8-.9 1-.9.1 0 .2.1.2.4 0 .1-.1.2-.1.3-.3.4-.4.6-.3.8v.1c.9-1.4 1.2-1.6 1.3-1.6"/><path d="M45.9 44.1c0 .1-.1.2-.2.5-.1.2-.2.4-.2.6 0 .2.2.2.3.2.1 0 .2-.1.5-.3l.2-.2c0 .1-.1.2-.4.5-.3.3-.5.6-.8.6-.2 0-.4-.1-.4-.3 0-.3.1-.5.2-.9-.9 1.1-1.1 1.2-1.2 1.2-.2 0-.4-.5-.5-.8 0-.5.4-1 .8-1.3.4-.3 1-.7 1.3-.7.2 0 .3.1.3.2s-.1.2-.2.2c.2.3.3.4.3.5m-2 1.5c.1 0 .1 0 0 0 .5-.1 1.4-1.1 1.4-1.4 0-.1-.1-.1-.1-.1-.6.1-1.4.7-1.3 1.3-.1.1 0 .1 0 .2M46.7 45.7c0-.1.1-.6.3-.6.1 0 .4.1.4.3 0 .1-.1.6-.2.6-.2 0-.4-.1-.5-.3m1.8-3.9c.1 0 .4.1.4.2s-.1 0-.9 1.4c-.4.8-.4 1.3-.6 1.4-.1 0-.3-.1-.4-.4 0-.5.7-1.8 1.2-2.4 0-.1.1-.2.3-.2"/></svg>