<svg version="1" xmlns="http://www.w3.org/2000/svg" viewBox="0 0 495.7 404.9"><path d="M0 248.9l43.9 43.8 30.6-29.5L64.3 253l-19.4 18.3-33.7-33.6M56.1 210.1l8.2 7.2L79.6 202l9.1 9.1-15.3 15.3 9.2 10.2 19.4-19.3 9.2 8.1L80.6 257l-44.9-44.8 30.6-30.6 9.2 9.1M155 181.6l-30.6-8.2c3.1-7.1 2-15.3-4.1-21.4-6.1-6.1-17.3-6.1-25.5 1l-22.4 22.4 44.9 44.9 11.2-11.2-35.7-35.7 7.1-7.1c3.1-3.1 8.2-3.1 11.2 0 3.1 3.1 3.1 8.2 0 11.2l-6.1 7.1 38.8 11.2 11.2-14.2zM134.6 111.2c14.3-14.3 32.6-12.2 44.9 0 13.3 13.3 14.3 31.6 0 45.9-14.3 14.3-32.6 12.2-44.9 0-12.2-14.3-13.2-32.7 0-45.9m9.2 8.1c-7.1 7.1-5.1 15.3 4.1 24.5 8.2 8.2 17.3 11.2 24.5 4.1 7.1-7.1 5.1-15.3-4.1-24.5-9.2-8.1-17.3-11.2-24.5-4.1M193.8 87.7l-8.2-25.5L198.9 49l10.2 42.8 18.4 17.3-11.3 12.3-17.3-17.4-41.8-13.2 12.2-12.3M398.8 240.7l44.9-43.8-12.2-12.3-43.9 44.9M229.5 70.4l34.7-16.3-25.5 25.5 10.2 10.2 43.8-44.9-14.2-14.3-32.7 16.3 16.3-32.6L247.9 0 203 43.9l10.2 10.2 25.5-25.5-16.3 34.6M306 76.5l-7.1 8.2 17.3 16.3-9.2 9.2-17.3-16.4-10.2 9.2 21.4 20.4-9.2 9.2-31.6-31.6L304 56.1l31.6 32.6-8.2 9.2M348.8 190.7l30.6 30.6 10.2-10.2-19.3-19.3 34.6-34.7-11.2-11.2M469.2 221.3l-14.3 48 30.6-31.6 10.2 11.2-44.9 44.9-13.2-14.3 12.2-49-30.6 30.6-10.2-10.2 43.9-44.9M340.7 182.6l8.2-30.6c6.1 3.1 15.3 2 21.4-4.1 6.1-6.1 6.1-18.4-1-25.5l-23.5-24.5-43.9 44.9 11.2 11.2 35.7-35.7 8.2 9.2c3.1 3.1 3.1 8.2 0 11.2-3.1 3.1-8.2 3.1-11.2 0l-8.2-8.2-9.2 39.8 12.3 12.3z"/><path fill="#50B848" d="M52 301.9h390.7L247.9 106.1"/><path fill="#E4412B" d="M292.7 397.8c-1 0-2-1-2-2-1-1 0-3.1 1-4.1 28.6-13.3 89.8-28.6 139.7-20.4 1 0 2 2 2 3.1 0 1-2 2-3.1 2-50-8.2-109.1 7.1-136.7 19.4.2 2 .2 2-.9 2"/><path d="M76.5 359c-9.2 15.3-13.3 22.4-13.3 25.5 0 2 1 3.1 5.1 3.1 12.2-1 30.6-12.2 29.6-26.5-1-6.1-6.1-9.2-20.4-7.1-5.1 0-7.1 1-13.3 3.1-1 0-3.1 1-3.1 2 0 0 2 1 3.1 1-4.1 2-6.1 3.1-10.2 4.1h-2c-1 0-1-1-1-2-1-7.1 1-10.2 8.2-13.3 6.1-3.1 12.2-5.1 19.4-5.1 6.1-1 20.4-1 22.4 15.3 2 21.4-24.5 35.7-37.7 36.7-3.1 0-5.1 0-6.1-6.1-1-7.1 10.2-22.4 17.3-35.7l2 5zM120.4 373.3v2c0 2-1 4.1-2 6.1v1s1 1 2 1c2 0 1-1 3.1-1h1c0 1-3.1 4.1-6.1 5.1h-1c-3.1 4.1-6.1 5.1-8.2 6.1-5.1 1-8.2-5.1-8.2-9.2-1-6.1 8.2-16.3 15.3-17.3 2 0 4.1 1 4.1 2v4.2m-8.2 9.2v-4.1c1-4.1 2-5.1 2-5.1l-1-1c-1 0-5.1 3.1-6.1 5.1-2 3.1-4.1 5.1-3.1 8.2 0 3.1 3.1 3.1 4.1 3.1 2 0 4.1-2 5.1-3.1-1-1.1-1-2.1-1-3.1"/><path d="M158.1 364.1c1 0 2 2 3.1 3.1 0 2-2 3.1-3.1 5.1-1 1-3.1 4.1-3.1 6.1s2 2 2 2c1 0 3.1-1 4.1-3.1s2-2 2-2 1 0 1 1-2 3.1-2 4.1c-2 3.1-6.1 7.1-9.2 8.2-3.1 0-4.1-1-4.1-3.1 0-4.1 3.1-7.1 5.1-12.2-10.2 7.1-14.3 16.3-16.3 16.3-1 0-1-2-2-4.1 0-1 1-3.1 2-6.1 2-4.1 2-6.1 2-6.1 0-5.1-9.2 16.3-15.3 16.3-2 0-3.1-2-3.1-4.1 0-3.1 3.1-9.2 5.1-9.2h1c0 1-1 2-1 6.1 0 1 0 2 1 2s4.1-6.1 9.2-11.2c2-2 8.2-9.2 10.2-9.2 1 0 2 1 2 4.1 0 1-1 2-1 3.1-3.1 4.1-4.1 6.1-3.1 8.2v1c10.4-14.2 12.5-15.2 13.5-16.3M191.8 389.6c-3.1 7.1-6.1 14.3-9.2 15.3 0 0-2 0-3.1-5.1-1-9.2 3.1-10.2 10.2-15.3 1-3.1 3.1-7.1 4.1-10.2-6.1 6.1-9.2 9.2-11.2 9.2-3.1 0-7.1-6.1-7.1-8.2-1-8.2 16.3-17.3 23.5-18.4 2 0 4.1 1 4.1 6.1v2l-8.2 18.4 11.2-6.1s2-1 2 0 0 1-1 1l-14.3 9.2-1 2.1zm-9.2-11.2c3.1 0 16.3-12.2 16.3-15.3 0 0 0-1-1-1-2 0-8.2 3.1-11.2 6.1-3.1 2-5.1 5.1-5.1 8.2 0 2 0 2 1 2-1 0 0 0 0 0m-1 20.4v1c3.1-1 3.1-3.1 5.1-8.2l1-3.1c-7.2 3.2-6.1 10.3-6.1 10.3"/><path d="M208.1 382.5c-1 0-3.1-2-3.1-4.1 0-3.1 2-9.2 4.1-9.2h1v1c-1 2 0 3.1 0 5.1 0 1 0 2 1 2s4.1-6.1 9.2-11.2c1-1 7.1-7.1 9.2-8.2 1 0 2 2 2 3.1s-1 2-3.1 5.1c-1 2-3.1 4.1-2 6.1 0 1 1 2 2 1 4.1 0 3.1-5.1 6.1-5.1 0 0 1 0 1 1s-3.1 5.1-4.1 6.1c-2 3.1-4.1 5.1-7.1 6.1-2 0-4.1-1-4.1-5.1 0-1 0-4.1 4.1-10.2-11.1 6.3-4 14.5-16.2 16.5"/><path d="M258.1 360.1v2c0 3.1 0 3.1-2 4.1-1 1-4.1 3.1-3.1 6.1 0 1 1 1 2 1s2-1 4.1-2c1-1 1-1 2-1s1 0 1 1c0 2-8.2 8.2-10.2 8.2s-3.1-1-3.1-2v-2c0-2 1-5.1 2-7.1-1 1-2 2-3.1 2-6.1 12.2-11.2 16.3-15.3 16.3-1 0-3.1 0-3.1-1s3.1-6.1 3.1-7.1c1 1 2 1 2 1 3.1 0 6.1-5.1 8.2-8.2-2 1-4.1 2-5.1 2-2 0-3.1 1-4.1-6.1 0-2 0-4.1 6.1-10.2 3.1-4.1 8.2-7.1 11.2-7.1 2 0 3.1 2 4.1 6.1 0 2-1 4.1-4.1 8.2 4.3-2.2 6.3-4.2 7.4-4.2m-8.2-2.1c0-1-1-1-2-1-4.1 0-11.2 6.1-11.2 8.2 0 1 1 1 3.1 1 2 0 4.1 0 6.1-1 4-5.1 4-6.2 4-7.2M302.9 336.6c-9.2 15.3-13.3 22.4-13.3 25.5 0 2 1 3.1 5.1 3.1 12.2-1 30.6-12.2 29.6-26.5-1-6.1-6.1-8.2-20.4-7.1-5.1 0-7.1 1-13.3 3.1-1 0-3.1 1-3.1 2 0 0 2 1 3.1 1-4.1 2-6.1 3.1-10.2 4.1h-2c-1 0-1-1-1-2-1-7.1 1-10.2 8.2-13.3 6.1-3.1 12.2-5.1 20.4-5.1 6.1-1 20.4-1 22.4 15.3 2 21.4-24.5 35.7-37.7 36.7-3.1 0-5.1 0-6.1-6.1-1-7.1 10.2-22.4 17.3-35.7l1 5zM345.8 350.9v2c0 2-1 4.1-2 6.1v1s1 1 2 1c2 0 1-1 3.1-1h1c0 1-3.1 4.1-6.1 5.1h-1c-3.1 4.1-5.1 5.1-8.2 6.1-5.1 1-8.2-5.1-8.2-9.2-1-6.1 8.2-16.3 15.3-17.3 2 0 4.1 1 4.1 2v4.2m-8.2 10.2V357c1-4.1 2-5.1 2-5.1l-1-1c-1 0-5.1 3.1-6.1 5.1-2 3.1-4.1 5.1-3.1 8.2 0 3.1 3.1 3.1 4.1 3.1 2 0 4.1-2 6.1-3.1-1-1.1-2-2.1-2-3.1"/><path d="M384.5 342.7c1 0 2 2 3.1 3.1 0 2-2 3.1-3.1 5.1-1 1-3.1 4.1-3.1 6.1s2 2 2 2c1 0 3.1-1 4.1-3.1 1-2 2-2 2-2s1 0 1 1-2 3.1-2 4.1c-2 3.1-6.1 7.1-9.2 8.2-3.1 0-4.1-1-4.1-3.1 0-4.1 3.1-7.1 5.1-12.2-10.2 7.1-14.3 16.3-16.3 16.3-1 0-1-2-2-4.1 0-1 1-3.1 2-6.1 2-4.1 2-6.1 2-6.1 0-4.1-9.2 16.3-15.3 16.3-2 0-3.1-2-3.1-4.1 0-3.1 3.1-9.2 5.1-9.2h1c0 1-1 2-1 6.1 0 1 0 2 1 2s4.1-6.1 9.2-11.2c2-2 8.2-9.2 10.2-9.2 1 0 2 1 2 4.1 0 1-1 2-1 3.1-3.1 4.1-4.1 6.1-3.1 8.2v1c9.5-14.2 12.5-16.3 13.5-16.3"/><path d="M413.1 343.7c0 1-1 2-2 5.1-1 2-2 4.1-2 6.1s2 2 3.1 2 2-1 5.1-3.1l2-2c0 1-1 2-4.1 5.1-3.1 3.1-5.1 6.1-8.2 6.1-2 0-4.1-1-4.1-3.1 0-3.1 1-5.1 2-9.2-9.2 11.2-11.2 12.2-12.2 12.2-2 0-4.1-5.1-5.1-8.2 0-5.1 4.1-10.2 8.2-13.3 4.1-3.1 10.2-7.1 13.3-7.1 2 0 3.1 1 3.1 2s-1 2-2 2c1.9 3.4 2.9 4.4 2.9 5.4M392.7 359c1 0 1 0 0 0 5.1-1 14.3-11.2 14.3-14.3 0-1-1-1-1-1-6.1 1-14.3 7.1-13.3 13.3-1 1 0 1 0 2M421.3 360.1c0-1 1-6.1 3.1-6.1 1 0 4.1 1 4.1 3.1 0 1-1 6.1-2 6.1-2.2-.1-4.2-1.1-5.2-3.1m18.3-39.8c1 0 4.1 1 4.1 2s-1 0-9.2 14.3c-4.1 8.2-4.1 13.3-6.1 14.3-1 0-3.1-1-4.1-4.1 0-5.1 7.1-18.4 12.2-24.5.1-1 1.1-2 3.1-2"/></svg>