<?xml version="1.0" encoding="utf-8"?>
<!-- Generator: Adobe Illustrator 18.0.0, SVG Export Plug-In . SVG Version: 6.00 Build 0)  -->
<!DOCTYPE svg PUBLIC "-//W3C//DTD SVG 1.0//EN" "http://www.w3.org/TR/2001/REC-SVG-20010904/DTD/svg10.dtd">
<svg version="1.0" id="Layer_1" xmlns="http://www.w3.org/2000/svg" xmlns:xlink="http://www.w3.org/1999/xlink" x="0px" y="0px"
	 viewBox="0 0 100 100" enable-background="new 0 0 100 100" xml:space="preserve">
<g>
	<g>
		<path fill-rule="evenodd" clip-rule="evenodd" fill="#4EB748" d="M36,33.1l-6.5,10.1h13L36,33.1z M62.5,36.2v-5c0-1.7-1.3-3-3-3
			h-32c-1.7,0-3,1.3-3,3v21c0,1.7,1.3,3,3,3h32c1.7,0,3-1.3,3-3v-3h-2v2c0,1.1-0.9,2-2,2h-30c-1.1,0-2-0.9-2-2v-19c0-1.1,0.9-2,2-2
			h30c1.1,0,2,0.9,2,2v4H62.5z M30.5,49.3h24c0.6,0,1-0.4,1-1c0-0.6-0.4-1-1-1h-24c-0.6,0-1,0.4-1,1C29.5,48.8,29.9,49.3,30.5,49.3z
			"/>
	</g>
</g>
<path fill-rule="evenodd" clip-rule="evenodd" fill="#4EB748" d="M60.5,35.2"/>
<g>
	<g>
		<path fill-rule="evenodd" clip-rule="evenodd" d="M61.5,35.2h-14c-2.2,0-4,1.8-4,4c0,2.2,1.8,4,4,4h7.2c0.9,4,4.5,7,8.8,7
			c0.6,0,1-0.4,1-1c0-0.6-0.4-1-1-1c-3.9,0-7-3.1-7-7h-9c-1.1,0-2-0.9-2-2c0-1.1,0.9-2,2-2h14c7.2,0,12,5.8,12,13
			c0,7.2-4.8,13-12,13h-22c-1.1,0-2-0.9-2-2c0-1.1,0.9-2,2-2h10v-2h-14c-1.1,0-2-0.9-2-2h-2c0,2.2,1.8,4,4,4h0.6
			c-0.3,0.6-0.6,1.3-0.6,2c0,2.2,1.8,4,4,4h22c8.3,0,14-6.7,14-15C75.5,42,69.8,35.2,61.5,35.2z"/>
	</g>
</g>
</svg>
