<?xml version="1.0" encoding="utf-8"?>
<!-- Generator: Adobe Illustrator 18.1.1, SVG Export Plug-In . SVG Version: 6.00 Build 0)  -->
<svg version="1.0" id="Isolation_Mode" xmlns="http://www.w3.org/2000/svg" xmlns:xlink="http://www.w3.org/1999/xlink" x="0px"
	 y="0px" viewBox="0 0 50 50" enable-background="new 0 0 50 50" xml:space="preserve">
<g>
	<circle fill="#50B848" cx="25" cy="34.1" r="1.5"/>
	<circle fill="#50B848" cx="14.7" cy="24" r="1.5"/>
	<polygon fill="#50B848" points="25.5,24.1 25.5,13.1 23.5,13.1 23.5,26.8 30.7,24.7 30.1,22.7 	"/>
	<path fill="#50B848" d="M25,7.4C15.8,7.4,8.4,14.9,8.4,24c0,9.1,7.4,16.6,16.6,16.6S41.6,33.2,41.6,24C41.6,14.9,34.1,7.4,25,7.4z
		 M25,38.8c-8.2,0-14.8-6.6-14.8-14.8c0-8.2,6.6-14.8,14.8-14.8c8.2,0,14.8,6.6,14.8,14.8C39.8,32.2,33.2,38.8,25,38.8z"/>
	<circle fill="#50B848" cx="35.5" cy="24" r="1.5"/>
</g>
</svg>
