<?xml version="1.0" encoding="utf-8"?>
<!-- Generator: Adobe Illustrator 18.0.0, SVG Export Plug-In . SVG Version: 6.00 Build 0)  -->
<!DOCTYPE svg PUBLIC "-//W3C//DTD SVG 1.1//EN" "http://www.w3.org/Graphics/SVG/1.1/DTD/svg11.dtd">
<svg version="1.1" id="Isolation_Mode" xmlns="http://www.w3.org/2000/svg" xmlns:xlink="http://www.w3.org/1999/xlink" x="0px"
	 y="0px" viewBox="0 0 66 66" enable-background="new 0 0 66 66" xml:space="preserve">
<g>
	<circle fill="#50B848" cx="33" cy="53.1" r="3"/>
	<circle fill="#50B848" cx="12.5" cy="33" r="3"/>
	<polygon fill="#50B848" points="34,33.2 34,11.3 30,11.3 30,38.6 44.3,34.4 43.1,30.4 	"/>
	<path fill="#50B848" d="M33,0C14.7,0,0,14.9,0,33s14.7,33,33,33s33-14.7,33-33C66,14.9,51.1,0,33,0z M33,62.4
		C16.7,62.4,3.6,49.3,3.6,33S16.7,3.6,33,3.6S62.4,16.7,62.4,33S49.3,62.4,33,62.4z"/>
	<circle fill="#50B848" cx="53.9" cy="33" r="3"/>
</g>
</svg>
