<?xml version="1.0" encoding="utf-8"?>
<!-- Generator: Adobe Illustrator 18.0.0, SVG Export Plug-In . SVG Version: 6.00 Build 0)  -->
<!DOCTYPE svg PUBLIC "-//W3C//DTD SVG 1.1//EN" "http://www.w3.org/Graphics/SVG/1.1/DTD/svg11.dtd">
<svg version="1.1" id="Isolation_Mode" xmlns="http://www.w3.org/2000/svg" xmlns:xlink="http://www.w3.org/1999/xlink" x="0px"
	 y="0px" viewBox="0 0 88 61" enable-background="new 0 0 88 61" xml:space="preserve">
<path fill="#50B848" d="M9.7,60.7C4.4,60.7,0,56.5,0,51c0-5.2,4.2-9.7,9.7-9.7c5.2,0,9.7,4.2,9.7,9.7C19.3,56.5,14.9,60.7,9.7,60.7
	 M9.7,45.4c-3.2,0-5.8,2.6-5.8,5.8c0,3.2,2.6,5.8,5.8,5.8s5.8-2.6,5.8-5.8C15.5,48,12.9,45.4,9.7,45.4"/>
<path fill="#50B848" d="M81.8,13.1c-3.4,0-6.2-2.8-6.2-6.2s2.8-6.2,6.2-6.2S88,3.4,88,6.8C88,10.4,85.2,13.1,81.8,13.1 M81.8,4.4
	c-1.4,0-2.4,1.2-2.4,2.4c0,1.4,1.2,2.4,2.4,2.4c1.4,0,2.4-1.2,2.4-2.4C84.2,5.6,83,4.4,81.8,4.4"/>
<path fill="#50B848" d="M62.1,31.5c-8.6,0-15.9-7-15.9-15.7S53.2,0,62.1,0c2,0,3.8,0.4,5.6,1c0.8,0.2,1.2,1,1.2,1.8
	c0,1.8,0,4.8-1,5.8c-0.4,0.4-1,0.6-1.4,0.6c-3.8,0-6,1.8-6,4.8c0,2.6,2,4.6,4.6,4.6c1.6,0,2.8-0.8,3.8-2c0.6-0.8,1.4-1.2,2.4-1.2
	c0.6,0,1,0.2,1.2,0.2c0.2,0,0.4,0.2,0.4,0.4l3,2.8c0,0,0.2,0.2,0.2,0.4c0.4,0.6,0.6,1.6,0.2,2.6C73.9,27.7,68.5,31.5,62.1,31.5
	 M62.1,3.6c-6.6,0-12,5.4-12,12s5.4,12,12,12c4.4,0,8.6-2.6,10.7-6.6l-1.4-1.2c-1.6,1.8-3.8,2.8-6.2,2.8c-4.6,0-8.4-3.8-8.4-8.4
	c0-3.6,2.2-8,8.4-8.6c0-0.4,0-0.8,0-1.4C64.3,3.8,63.3,3.6,62.1,3.6"/>
<path fill="#50B848" d="M14.1,45.6c-0.6,0-1.2-0.2-1.6-0.8c-0.6-0.8-0.4-2,0.6-2.6l35-23.5c0.8-0.6,2-0.4,2.6,0.6
	c0.6,0.8,0.4,2-0.6,2.6l-35,23.3C14.9,45.4,14.5,45.6,14.1,45.6"/>
<path fill="#50B848" d="M17.7,52.4c-0.6,0-1.2-0.2-1.6-0.8c-0.6-0.8-0.4-2,0.6-2.6l35.8-24.1c0.8-0.6,2-0.4,2.6,0.6
	c0.6,0.8,0.4,2-0.6,2.6L18.7,52.2C18.5,52.2,18.1,52.4,17.7,52.4"/>
</svg>
