<?xml version="1.0" encoding="utf-8"?>
<!-- Generator: Adobe Illustrator 18.0.0, SVG Export Plug-In . SVG Version: 6.00 Build 0)  -->
<!DOCTYPE svg PUBLIC "-//W3C//DTD SVG 1.0//EN" "http://www.w3.org/TR/2001/REC-SVG-20010904/DTD/svg10.dtd">
<svg version="1.0" id="Isolation_Mode" xmlns="http://www.w3.org/2000/svg" xmlns:xlink="http://www.w3.org/1999/xlink" x="0px"
	 y="0px" viewBox="0 0 536.1 369.6" enable-background="new 0 0 536.1 369.6" xml:space="preserve">
<path fill="#50B848" d="M58.8,369.6C26.9,369.6,0,343.9,0,310.9c0-31.8,25.7-58.8,58.8-58.8c31.8,0,58.8,25.7,58.8,58.8
	C117.5,343.9,90.6,369.6,58.8,369.6 M58.8,276.6c-19.6,0-35.5,15.9-35.5,35.5c0,19.6,15.9,35.5,35.5,35.5s35.5-15.9,35.5-35.5
	C94.2,292.5,78.3,276.6,58.8,276.6"/>
<path fill="#50B848" d="M498.2,79.6c-20.8,0-37.9-17.1-37.9-37.9s17.1-37.9,37.9-37.9c20.8,0,37.9,17.1,37.9,37.9
	C536.1,63.6,519,79.6,498.2,79.6 M498.2,26.9c-8.6,0-14.7,7.3-14.7,14.7c0,8.6,7.3,14.7,14.7,14.7c8.6,0,14.7-7.3,14.7-14.7
	C512.9,34.3,505.5,26.9,498.2,26.9"/>
<path fill="#50B848" d="M378.2,192.2c-52.6,0-96.7-42.8-96.7-95.5S324.4,0,378.2,0c12.2,0,23.3,2.4,34.3,6.1c4.9,1.2,7.3,6.1,7.3,11
	c0,11,0,29.4-6.1,35.5c-2.4,2.4-6.1,3.7-8.6,3.7c-23.3,0-36.7,11-36.7,29.4c0,15.9,12.2,28.2,28.2,28.2c9.8,0,17.1-4.9,23.3-12.2
	c3.7-4.9,8.6-7.3,14.7-7.3c3.7,0,6.1,1.2,7.3,1.2c1.2,0,2.4,1.2,2.4,2.4l18.4,17.1c0,0,1.2,1.2,1.2,2.4c2.4,3.7,3.7,9.8,1.2,15.9
	C450.4,168.9,417.4,192.2,378.2,192.2 M378.2,22c-40.4,0-73.4,33-73.4,73.4s33,73.4,73.4,73.4c26.9,0,52.6-15.9,64.9-40.4l-8.6-7.3
	c-9.8,11-23.3,17.1-37.9,17.1c-28.2,0-51.4-23.3-51.4-51.4c0-22,13.5-49,51.4-52.6c0-2.4,0-4.9,0-8.6C391.7,23.3,385.6,22,378.2,22"
	/>
<path fill="#50B848" d="M85.7,277.8c-3.7,0-7.3-1.2-9.8-4.9c-3.7-4.9-2.4-12.2,3.7-15.9l213-143.2c4.9-3.7,12.2-2.4,15.9,3.7
	c3.7,4.9,2.4,12.2-3.7,15.9l-213,142C90.6,276.6,88.1,277.8,85.7,277.8"/>
<path fill="#50B848" d="M107.7,319.5c-3.7,0-7.3-1.2-9.8-4.9c-3.7-4.9-2.4-12.2,3.7-15.9l217.9-146.9c4.9-3.7,12.2-2.4,15.9,3.7
	c3.7,4.9,2.4,12.2-3.7,15.9L113.8,318.2C112.6,318.2,110.2,319.5,107.7,319.5"/>
</svg>
