<?xml version="1.0" encoding="utf-8"?>
<!-- Generator: Adobe Illustrator 18.1.1, SVG Export Plug-In . SVG Version: 6.00 Build 0)  -->
<svg version="1.0" id="Isolation_Mode" xmlns="http://www.w3.org/2000/svg" xmlns:xlink="http://www.w3.org/1999/xlink" x="0px"
	 y="0px" viewBox="0 0 50 50" enable-background="new 0 0 50 50" xml:space="preserve">
<path fill="#50B848" d="M7.9,40.1c-2.6,0-4.8-2.1-4.8-4.8c0-2.6,2.1-4.8,4.8-4.8c2.6,0,4.8,2.1,4.8,4.8C12.7,38,10.5,40.1,7.9,40.1
	 M7.9,32.5c-1.6,0-2.9,1.3-2.9,2.9c0,1.6,1.3,2.9,2.9,2.9c1.6,0,2.9-1.3,2.9-2.9C10.8,33.8,9.5,32.5,7.9,32.5"/>
<path fill="#50B848" d="M43.8,16.4c-1.7,0-3.1-1.4-3.1-3.1c0-1.7,1.4-3.1,3.1-3.1s3.1,1.4,3.1,3.1C46.9,15.1,45.5,16.4,43.8,16.4
	 M43.8,12.1c-0.7,0-1.2,0.6-1.2,1.2c0,0.7,0.6,1.2,1.2,1.2c0.7,0,1.2-0.6,1.2-1.2C45,12.7,44.4,12.1,43.8,12.1"/>
<path fill="#50B848" d="M34,25.6c-4.3,0-7.9-3.5-7.9-7.8c0-4.3,3.5-7.9,7.9-7.9c1,0,1.9,0.2,2.8,0.5c0.4,0.1,0.6,0.5,0.6,0.9
	c0,0.9,0,2.4-0.5,2.9c-0.2,0.2-0.5,0.3-0.7,0.3c-1.9,0-3,0.9-3,2.4c0,1.3,1,2.3,2.3,2.3c0.8,0,1.4-0.4,1.9-1
	c0.3-0.4,0.7-0.6,1.2-0.6c0.3,0,0.5,0.1,0.6,0.1c0.1,0,0.2,0.1,0.2,0.2l1.5,1.4c0,0,0.1,0.1,0.1,0.2c0.2,0.3,0.3,0.8,0.1,1.3
	C39.9,23.7,37.2,25.6,34,25.6 M34,11.7c-3.3,0-6,2.7-6,6c0,3.3,2.7,6,6,6c2.2,0,4.3-1.3,5.3-3.3l-0.7-0.6c-0.8,0.9-1.9,1.4-3.1,1.4
	c-2.3,0-4.2-1.9-4.2-4.2c0-1.8,1.1-4,4.2-4.3c0-0.2,0-0.4,0-0.7C35.1,11.8,34.6,11.7,34,11.7"/>
<path fill="#50B848" d="M10.1,32.6c-0.3,0-0.6-0.1-0.8-0.4c-0.3-0.4-0.2-1,0.3-1.3L27,19.2c0.4-0.3,1-0.2,1.3,0.3
	c0.3,0.4,0.2,1-0.3,1.3L10.6,32.4C10.5,32.5,10.3,32.6,10.1,32.6"/>
<path fill="#50B848" d="M11.9,36c-0.3,0-0.6-0.1-0.8-0.4c-0.3-0.4-0.2-1,0.3-1.3l17.8-12c0.4-0.3,1-0.2,1.3,0.3
	c0.3,0.4,0.2,1-0.3,1.3l-17.8,12C12.3,35.9,12.1,36,11.9,36"/>
</svg>
