<?xml version="1.0" encoding="utf-8"?>
<!-- Generator: Adobe Illustrator 18.0.0, SVG Export Plug-In . SVG Version: 6.00 Build 0)  -->
<!DOCTYPE svg PUBLIC "-//W3C//DTD SVG 1.0//EN" "http://www.w3.org/TR/2001/REC-SVG-20010904/DTD/svg10.dtd">
<svg version="1.0" id="Isolation_Mode" xmlns="http://www.w3.org/2000/svg" xmlns:xlink="http://www.w3.org/1999/xlink" x="0px"
	 y="0px" viewBox="0 0 74 71" enable-background="new 0 0 74 71" xml:space="preserve">
<path fill="#50B848" d="M59.5,58H26c-0.8,0-1.6-0.6-1.8-1.4c0-0.4-8.7-33.9-11.5-45C10.3,2.5,3.2,3.7,2.2,3.7c-1,0.4-2-0.4-2.2-1.4
	c-0.2-1,0.4-1.8,1.4-2.2c0.2,0,11.3-2.2,14.7,10.5c2.6,9.9,9.5,37.1,11.3,43.6h32.1c1,0,1.8,0.8,1.8,1.8C61.3,57.2,60.5,58,59.5,58"
	/>
<path fill="#50B848" d="M59.1,70.7c-4.6,0-8.1-3.6-8.1-8.1s3.6-8.1,8.1-8.1s8.1,3.6,8.1,8.1S63.5,70.7,59.1,70.7 M59.1,58
	c-2.4,0-4.4,2-4.4,4.4c0,2.4,2,4.4,4.4,4.4s4.4-2,4.4-4.4C63.5,60,61.5,58,59.1,58"/>
<path fill="#50B848" d="M29.8,70.7c-4.6,0-8.1-3.6-8.1-8.1s3.6-8.1,8.1-8.1s8.1,3.6,8.1,8.1C37.9,67.1,34.3,70.7,29.8,70.7 M29.8,58
	c-2.4,0-4.4,2-4.4,4.4c0,2.4,2,4.4,4.4,4.4s4.4-2,4.4-4.4C34.1,60,32.1,58,29.8,58"/>
<path fill="#50B848" d="M24,50.1c-0.8,0-1.6-0.6-1.8-1.4l-8.9-34.3c-0.2-1,0.4-2,1.4-2.2s2,0.4,2.2,1.4l8.5,32.9h38.3l6.7-32.1
	c0.2-1,1.2-1.6,2.2-1.4c1,0.2,1.6,1.2,1.4,2.2L67,48.7c-0.2,0.8-1,1.4-1.8,1.4H24z"/>
<path fill="#50B848" d="M43.8,41.6c-6.5,0-12.3-4-14.9-10.1c-0.4-1,0-2,1-2.4c1-0.4,2,0,2.4,1c2,4.8,6.3,7.7,11.5,7.7
	c6.7,0,12.3-5.5,12.3-12.3s-5.5-12.3-12.3-12.3c-4.4,0-8.3,2.2-10.5,5.9c-0.6,0.8-1.6,1.2-2.6,0.6c-0.8-0.6-1.2-1.6-0.6-2.6
	c2.8-4.8,8.1-7.9,13.7-7.9c8.7,0,16.1,7.1,16.1,16.1C59.9,34.4,52.8,41.6,43.8,41.6"/>
<polygon fill="#50B848" points="39.7,21 29,21 29,10.4 "/>
<path fill="#50B848" d="M44,29.7c-0.4,0-0.8-0.2-1.2-0.4c-0.4-0.4-0.8-1-0.8-1.4v-9.5c0-1,0.8-1.8,1.8-1.8s1.8,0.8,1.8,1.8v7.1
	l4.6-1.4c1-0.2,2,0.2,2.4,1.2c0.2,1-0.2,2-1.2,2.4l-6.9,2C44.2,29.7,44,29.7,44,29.7"/>
</svg>
