<?xml version="1.0" encoding="utf-8"?>
<!-- Generator: Adobe Illustrator 18.1.1, SVG Export Plug-In . SVG Version: 6.00 Build 0)  -->
<svg version="1.0" id="Isolation_Mode" xmlns="http://www.w3.org/2000/svg" xmlns:xlink="http://www.w3.org/1999/xlink" x="0px"
	 y="0px" viewBox="0 0 50 50" enable-background="new 0 0 50 50" xml:space="preserve">
<path fill="#50B848" d="M35.7,36.6H18.8c-0.4,0-0.8-0.3-0.9-0.7c0-0.2-4.4-17.1-5.8-22.7c-1.2-4.6-4.8-4-5.3-4
	C6.3,9.4,5.8,9,5.7,8.5C5.6,8,5.9,7.6,6.4,7.4c0.1,0,5.7-1.1,7.4,5.3c1.3,5,4.8,18.7,5.7,22h16.2c0.5,0,0.9,0.4,0.9,0.9
	C36.6,36.2,36.2,36.6,35.7,36.6"/>
<path fill="#50B848" d="M35.5,43c-2.3,0-4.1-1.8-4.1-4.1c0-2.3,1.8-4.1,4.1-4.1c2.3,0,4.1,1.8,4.1,4.1C39.6,41.2,37.7,43,35.5,43
	 M35.5,36.6c-1.2,0-2.2,1-2.2,2.2c0,1.2,1,2.2,2.2,2.2c1.2,0,2.2-1,2.2-2.2C37.7,37.6,36.7,36.6,35.5,36.6"/>
<path fill="#50B848" d="M20.7,43c-2.3,0-4.1-1.8-4.1-4.1c0-2.3,1.8-4.1,4.1-4.1c2.3,0,4.1,1.8,4.1,4.1C24.8,41.2,23,43,20.7,43
	 M20.7,36.6c-1.2,0-2.2,1-2.2,2.2c0,1.2,1,2.2,2.2,2.2c1.2,0,2.2-1,2.2-2.2C22.9,37.6,21.9,36.6,20.7,36.6"/>
<path fill="#50B848" d="M17.8,32.6c-0.4,0-0.8-0.3-0.9-0.7l-4.5-17.3c-0.1-0.5,0.2-1,0.7-1.1c0.5-0.1,1,0.2,1.1,0.7l4.3,16.6l19.3,0
	l3.4-16.2c0.1-0.5,0.6-0.8,1.1-0.7c0.5,0.1,0.8,0.6,0.7,1.1l-3.5,16.9c-0.1,0.4-0.5,0.7-0.9,0.7L17.8,32.6z"/>
<path fill="#50B848" d="M27.8,28.3c-3.3,0-6.2-2-7.5-5.1c-0.2-0.5,0-1,0.5-1.2c0.5-0.2,1,0,1.2,0.5c1,2.4,3.2,3.9,5.8,3.9
	c3.4,0,6.2-2.8,6.2-6.2c0-3.4-2.8-6.2-6.2-6.2c-2.2,0-4.2,1.1-5.3,3c-0.3,0.4-0.8,0.6-1.3,0.3c-0.4-0.3-0.6-0.8-0.3-1.3
	c1.4-2.4,4.1-4,6.9-4c4.4,0,8.1,3.6,8.1,8.1C35.9,24.7,32.3,28.3,27.8,28.3"/>
<polygon fill="#50B848" points="25.7,17.9 20.3,17.9 20.3,12.6 "/>
<path fill="#50B848" d="M27.9,22.3c-0.2,0-0.4-0.1-0.6-0.2c-0.2-0.2-0.4-0.5-0.4-0.7v-4.8c0-0.5,0.4-0.9,0.9-0.9
	c0.5,0,0.9,0.4,0.9,0.9v3.6l2.3-0.7c0.5-0.1,1,0.1,1.2,0.6c0.1,0.5-0.1,1-0.6,1.2l-3.5,1C28,22.3,27.9,22.3,27.9,22.3"/>
</svg>
