<?xml version="1.0" encoding="utf-8"?>
<!-- Generator: Adobe Illustrator 18.0.0, SVG Export Plug-In . SVG Version: 6.00 Build 0)  -->
<!DOCTYPE svg PUBLIC "-//W3C//DTD SVG 1.0//EN" "http://www.w3.org/TR/2001/REC-SVG-20010904/DTD/svg10.dtd">
<svg version="1.0" id="Layer_1" xmlns="http://www.w3.org/2000/svg" xmlns:xlink="http://www.w3.org/1999/xlink" x="0px" y="0px"
	 viewBox="0 0 428.4 571.2" enable-background="new 0 0 428.4 571.2" xml:space="preserve">
<g>
	<g>
		<defs>
			<path id="SVGID_1_" d="M214.2,525.3L214.2,525.3L214.2,525.3 M214.2,525.3c0,0,183.6-207.1,183.6-309.1
				c0-103-82.6-185.6-183.6-185.6S30.6,113.2,30.6,216.2C30.6,318.2,214.2,525.3,214.2,525.3 M214.2,123.4c51,0,91.8,41.8,91.8,92.8
				s-40.8,92.8-91.8,92.8s-91.8-41.8-91.8-92.8S163.2,123.4,214.2,123.4 M214.2,571.2l-22.4-25.5l0,0l0,0
				C171.4,523.3,0,326.4,0,216.2C0,96.9,95.9,0,214.2,0s214.2,96.9,214.2,216.2c0,110.2-171.4,307-191.8,329.5L214.2,571.2
				L214.2,571.2L214.2,571.2z M214.2,154c-33.7,0-61.2,27.5-61.2,62.2s27.5,62.2,61.2,62.2s61.2-27.5,61.2-62.2S247.9,154,214.2,154
				L214.2,154L214.2,154z"/>
		</defs>
		<use xlink:href="#SVGID_1_"  overflow="visible" fill="#4DB848"/>
		<clipPath id="SVGID_2_">
			<use xlink:href="#SVGID_1_"  overflow="visible"/>
		</clipPath>
	</g>
</g>
</svg>
