<?xml version="1.0" encoding="utf-8"?>
<!-- Generator: Adobe Illustrator 18.0.0, SVG Export Plug-In . SVG Version: 6.00 Build 0)  -->
<!DOCTYPE svg PUBLIC "-//W3C//DTD SVG 1.1//EN" "http://www.w3.org/Graphics/SVG/1.1/DTD/svg11.dtd">
<svg version="1.1" id="Layer_1" xmlns="http://www.w3.org/2000/svg" xmlns:xlink="http://www.w3.org/1999/xlink" x="0px" y="0px"
	 viewBox="0 0 42 56" enable-background="new 0 0 42 56" xml:space="preserve">
<g>
	<g>
		<g>
			<path id="SVGID_1_" fill="#4DB848" d="M21,51.5L21,51.5L21,51.5 M21,51.5c0,0,18-20.3,18-30.3C39,11.1,30.9,3,21,3S3,11.1,3,21.2
				C3,31.2,21,51.5,21,51.5 M21,12.1c5,0,9,4.1,9,9.1s-4,9.1-9,9.1s-9-4.1-9-9.1S16,12.1,21,12.1 M21,56l-2.2-2.5l0,0l0,0
				C16.8,51.3,0,32,0,21.2C0,9.5,9.4,0,21,0s21,9.5,21,21.2C42,32,25.2,51.3,23.2,53.5L21,56L21,56L21,56z M21,15.1
				c-3.3,0-6,2.7-6,6.1s2.7,6.1,6,6.1s6-2.7,6-6.1S24.3,15.1,21,15.1L21,15.1L21,15.1z"/>
		</g>
	</g>
</g>
</svg>
