<?xml version="1.0" encoding="utf-8"?>
<!-- Generator: Adobe Illustrator 18.0.0, SVG Export Plug-In . SVG Version: 6.00 Build 0)  -->
<!DOCTYPE svg PUBLIC "-//W3C//DTD SVG 1.0//EN" "http://www.w3.org/TR/2001/REC-SVG-20010904/DTD/svg10.dtd">
<svg version="1.0" id="Isolation_Mode" xmlns="http://www.w3.org/2000/svg" xmlns:xlink="http://www.w3.org/1999/xlink" x="0px"
	 y="0px" viewBox="0 0 391.7 460.2" enable-background="new 0 0 391.7 460.2" xml:space="preserve">
<path fill="#50B848" d="M113.8,296.2c-3.7,0-7.3-1.2-9.8-4.9l-24.5-35.5c-3.7-4.9-2.4-12.2,2.4-15.9c4.9-3.7,12.2-2.4,15.9,2.4
	l18.4,25.7l25.7-18.4c4.9-3.7,12.2-2.4,15.9,2.4c3.7,4.9,2.4,12.2-2.4,15.9L120,292.5C118.7,295,116.3,296.2,113.8,296.2"/>
<path fill="#50B848" d="M117.5,281.5c-6.1,0-11-4.9-11-11c0-49,40.4-88.1,88.1-88.1c28.2,0,53.9,12.2,71,35.5
	c3.7,4.9,2.4,12.2-2.4,15.9c-4.9,3.7-12.2,2.4-15.9-2.4c-12.2-17.1-31.8-25.7-52.6-25.7c-36.7,0-66.1,29.4-66.1,66.1
	C128.5,276.6,123.6,281.5,117.5,281.5"/>
<path fill="#50B848" d="M299.9,304.8c-3.7,0-7.3-1.2-9.8-4.9L273,274.2l-25.7,18.4c-4.9,3.7-12.2,2.4-15.9-2.4
	c-3.7-4.9-2.4-12.2,2.4-15.9l35.5-24.5c2.4-1.2,6.1-2.4,8.6-2.4s6.1,2.4,7.3,4.9l24.5,35.5c3.7,4.9,2.4,12.2-2.4,15.9
	C304.8,304.8,302.3,304.8,299.9,304.8"/>
<path fill="#50B848" d="M194.6,361.1c-28.2,0-53.9-12.2-71-35.5c-3.7-4.9-2.4-12.2,2.4-15.9c4.9-3.7,12.2-2.4,15.9,2.4
	c12.2,15.9,31.8,25.7,52.6,25.7c36.7,0,66.1-29.4,66.1-66.1c0-6.1,4.9-11,11-11c6.1,0,11,4.9,11,11
	C282.7,321.9,243.6,361.1,194.6,361.1"/>
<path fill="#50B848" d="M331.7,460.2H57.5C25.7,460.2,0,434.5,0,402.7v-1.2l23.3-263.2C23.3,106.5,49,82,80.8,82h230.1
	c31.8,0,56.3,25.7,57.5,56.3l23.3,264.4v1.2C389.2,435.7,363.5,460.2,331.7,460.2 M23.3,403.9c0,18.4,15.9,34.3,34.3,34.3h275.4
	c18.4,0,34.3-14.7,34.3-34.3l-23.3-264.4v-1.2c0-18.4-15.9-34.3-34.3-34.3H79.6c-18.4,0-34.3,15.9-34.3,34.3v1.2L23.3,403.9z"/>
<path fill="#50B848" d="M271.7,96.7c-6.1,0-11-4.9-11-11V30.6c0-4.9-3.7-7.3-7.3-7.3H137.1c-4.9,0-7.3,3.7-7.3,7.3v55.1
	c0,6.1-4.9,11-11,11c-6.1,0-11-4.9-11-11V30.6c0-17.1,13.5-30.6,30.6-30.6h116.3c17.1,0,30.6,13.5,30.6,30.6v55.1
	C284,91.8,277.8,96.7,271.7,96.7"/>
</svg>
