<?xml version="1.0" encoding="utf-8"?>
<!-- Generator: Adobe Illustrator 18.0.0, SVG Export Plug-In . SVG Version: 6.00 Build 0)  -->
<!DOCTYPE svg PUBLIC "-//W3C//DTD SVG 1.1//EN" "http://www.w3.org/Graphics/SVG/1.1/DTD/svg11.dtd">
<svg version="1.1" id="Isolation_Mode" xmlns="http://www.w3.org/2000/svg" xmlns:xlink="http://www.w3.org/1999/xlink" x="0px"
	 y="0px" viewBox="0 0 64 76" enable-background="new 0 0 64 76" xml:space="preserve">
<path fill="#50B848" d="M18.6,48.4c-0.6,0-1.2-0.2-1.6-0.8l-4-5.8c-0.6-0.8-0.4-2,0.4-2.6c0.8-0.6,2-0.4,2.6,0.4l3,4.2l4.2-3
	c0.8-0.6,2-0.4,2.6,0.4c0.6,0.8,0.4,2-0.4,2.6l-5.8,4C19.4,48.2,19,48.4,18.6,48.4"/>
<path fill="#50B848" d="M19.2,46c-1,0-1.8-0.8-1.8-1.8c0-8,6.6-14.4,14.4-14.4c4.6,0,8.8,2,11.6,5.8c0.6,0.8,0.4,2-0.4,2.6
	c-0.8,0.6-2,0.4-2.6-0.4c-2-2.8-5.2-4.2-8.6-4.2c-6,0-10.8,4.8-10.8,10.8C21,45.2,20.2,46,19.2,46"/>
<path fill="#50B848" d="M49,49.8c-0.6,0-1.2-0.2-1.6-0.8l-2.8-4.2l-4.2,3c-0.8,0.6-2,0.4-2.6-0.4c-0.6-0.8-0.4-2,0.4-2.6l5.8-4
	c0.4-0.2,1-0.4,1.4-0.4c0.4,0,1,0.4,1.2,0.8l4,5.8c0.6,0.8,0.4,2-0.4,2.6C49.8,49.8,49.4,49.8,49,49.8"/>
<path fill="#50B848" d="M31.8,59c-4.6,0-8.8-2-11.6-5.8c-0.6-0.8-0.4-2,0.4-2.6c0.8-0.6,2-0.4,2.6,0.4c2,2.6,5.2,4.2,8.6,4.2
	c6,0,10.8-4.8,10.8-10.8c0-1,0.8-1.8,1.8-1.8s1.8,0.8,1.8,1.8C46.2,52.6,39.8,59,31.8,59"/>
<path fill="#50B848" d="M54.2,75.2H9.4C4.2,75.2,0,71,0,65.8v-0.2l3.8-43c0-5.2,4.2-9.2,9.4-9.2h37.6c5.2,0,9.2,4.2,9.4,9.2L64,65.8
	V66C63.6,71.2,59.4,75.2,54.2,75.2 M3.8,66c0,3,2.6,5.6,5.6,5.6h45c3,0,5.6-2.4,5.6-5.6l-3.8-43.2v-0.2c0-3-2.6-5.6-5.6-5.6H13
	c-3,0-5.6,2.6-5.6,5.6v0.2L3.8,66z"/>
<path fill="#50B848" d="M44.4,15.8c-1,0-1.8-0.8-1.8-1.8V5c0-0.8-0.6-1.2-1.2-1.2h-19c-0.8,0-1.2,0.6-1.2,1.2v9c0,1-0.8,1.8-1.8,1.8
	c-1,0-1.8-0.8-1.8-1.8V5c0-2.8,2.2-5,5-5h19c2.8,0,5,2.2,5,5v9C46.4,15,45.4,15.8,44.4,15.8"/>
</svg>
