<?xml version="1.0" encoding="utf-8"?>
<!-- Generator: Adobe Illustrator 18.0.0, SVG Export Plug-In . SVG Version: 6.00 Build 0)  -->
<!DOCTYPE svg PUBLIC "-//W3C//DTD SVG 1.0//EN" "http://www.w3.org/TR/2001/REC-SVG-20010904/DTD/svg10.dtd">
<svg version="1.0" id="Isolation_Mode" xmlns="http://www.w3.org/2000/svg" xmlns:xlink="http://www.w3.org/1999/xlink" x="0px"
	 y="0px" viewBox="0 0 495.7 404.9" enable-background="new 0 0 495.7 404.9" xml:space="preserve">
<g>
	<polyline points="0,248.9 43.9,292.7 74.5,263.2 64.3,253 44.9,271.3 11.2,237.7 	"/>
	<polygon points="56.1,210.1 64.3,217.3 79.6,202 88.7,211.1 73.4,226.4 82.6,236.6 102,217.3 111.2,225.4 80.6,257 35.7,212.2 
		66.3,181.6 75.5,190.7 	"/>
	<path d="M155,181.6l-30.6-8.2l0,0c3.1-7.1,2-15.3-4.1-21.4c-6.1-6.1-17.3-6.1-25.5,1l0,0l-22.4,22.4l44.9,44.9l11.2-11.2
		l-35.7-35.7l7.1-7.1c3.1-3.1,8.2-3.1,11.2,0c3.1,3.1,3.1,8.2,0,11.2l-6.1,7.1l38.8,11.2L155,181.6z"/>
	<path d="M134.6,111.2c14.3-14.3,32.6-12.2,44.9,0c13.3,13.3,14.3,31.6,0,45.9c-14.3,14.3-32.6,12.2-44.9,0
		C122.4,142.8,121.4,124.4,134.6,111.2 M143.8,119.3c-7.1,7.1-5.1,15.3,4.1,24.5c8.2,8.2,17.3,11.2,24.5,4.1
		c7.1-7.1,5.1-15.3-4.1-24.5C159.1,115.3,151,112.2,143.8,119.3"/>
	<polygon points="193.8,87.7 185.6,62.2 198.9,49 209.1,91.8 227.5,109.1 216.2,121.4 198.9,104 157.1,90.8 169.3,78.5 	"/>
	<polygon points="398.8,240.7 443.7,196.9 431.5,184.6 387.6,229.5 	"/>
	<polygon points="229.5,70.4 264.2,54.1 238.7,79.6 248.9,89.8 292.7,44.9 278.5,30.6 245.8,46.9 245.8,46.9 262.1,14.3 247.9,0 
		203,43.9 213.2,54.1 238.7,28.6 222.4,63.2 	"/>
	<polygon points="306,76.5 298.9,84.7 316.2,101 307,110.2 289.7,93.8 279.5,103 300.9,123.4 291.7,132.6 260.1,101 304,56.1 
		335.6,88.7 327.4,97.9 	"/>
	<polygon points="348.8,190.7 379.4,221.3 389.6,211.1 370.3,191.8 404.9,157.1 393.7,145.9 	"/>
	<polygon points="469.2,221.3 454.9,269.3 454.9,269.3 485.5,237.7 495.7,248.9 450.8,293.8 437.6,279.5 449.8,230.5 449.8,230.5 
		419.2,261.1 409,250.9 452.9,206 	"/>
	<path d="M340.7,182.6l8.2-30.6l0,0c6.1,3.1,15.3,2,21.4-4.1c6.1-6.1,6.1-18.4-1-25.5l0,0l-23.5-24.5l-43.9,44.9l11.2,11.2
		l35.7-35.7l8.2,9.2c3.1,3.1,3.1,8.2,0,11.2c-3.1,3.1-8.2,3.1-11.2,0l-8.2-8.2l-9.2,39.8L340.7,182.6z"/>
	<polygon fill="#50B848" points="52,301.9 442.7,301.9 247.9,106.1 	"/>
	<path fill="#E4412B" d="M292.7,397.8c-1,0-2-1-2-2c-1-1,0-3.1,1-4.1c28.6-13.3,89.8-28.6,139.7-20.4c1,0,2,2,2,3.1c0,1-2,2-3.1,2
		c-50-8.2-109.1,7.1-136.7,19.4C293.8,397.8,293.8,397.8,292.7,397.8"/>
	<path d="M76.5,359c-9.2,15.3-13.3,22.4-13.3,25.5c0,2,1,3.1,5.1,3.1c12.2-1,30.6-12.2,29.6-26.5c-1-6.1-6.1-9.2-20.4-7.1
		c-5.1,0-7.1,1-13.3,3.1c-1,0-3.1,1-3.1,2l0,0c0,0,2,1,3.1,1c-4.1,2-6.1,3.1-10.2,4.1c-1,0-1,0-2,0c-1,0-1-1-1-2
		c-1-7.1,1-10.2,8.2-13.3c6.1-3.1,12.2-5.1,19.4-5.1c6.1-1,20.4-1,22.4,15.3c2,21.4-24.5,35.7-37.7,36.7c-3.1,0-5.1,0-6.1-6.1
		c-1-7.1,10.2-22.4,17.3-35.7L76.5,359z"/>
	<path d="M120.4,373.3c0,1,0,2,0,2c0,2-1,4.1-2,6.1c0,0,0,0,0,1c0,0,1,1,2,1c2,0,1-1,3.1-1c1,0,1,0,1,0c0,1-3.1,4.1-6.1,5.1h-1
		c-3.1,4.1-6.1,5.1-8.2,6.1c-5.1,1-8.2-5.1-8.2-9.2c-1-6.1,8.2-16.3,15.3-17.3c2,0,4.1,1,4.1,2c0,0,0,1,0,2
		C120.4,369.2,120.4,371.3,120.4,373.3 M112.2,382.5c0-2,0-3.1,0-4.1c1-4.1,2-5.1,2-5.1l-1-1c-1,0-5.1,3.1-6.1,5.1
		c-2,3.1-4.1,5.1-3.1,8.2c0,3.1,3.1,3.1,4.1,3.1c2,0,4.1-2,5.1-3.1C112.2,384.5,112.2,383.5,112.2,382.5"/>
	<path d="M158.1,364.1c1,0,2,2,3.1,3.1c0,2-2,3.1-3.1,5.1c-1,1-3.1,4.1-3.1,6.1c0,2,2,2,2,2c1,0,3.1-1,4.1-3.1s2-2,2-2s1,0,1,1
		s-2,3.1-2,4.1c-2,3.1-6.1,7.1-9.2,8.2c-3.1,0-4.1-1-4.1-3.1c0-4.1,3.1-7.1,5.1-12.2c-10.2,7.1-14.3,16.3-16.3,16.3c-1,0-1-2-2-4.1
		c0-1,1-3.1,2-6.1c2-4.1,2-6.1,2-6.1c0-5.1-9.2,16.3-15.3,16.3c-2,0-3.1-2-3.1-4.1c0-3.1,3.1-9.2,5.1-9.2h1c0,1-1,2-1,6.1
		c0,1,0,2,1,2s4.1-6.1,9.2-11.2c2-2,8.2-9.2,10.2-9.2c1,0,2,1,2,4.1c0,1-1,2-1,3.1c-3.1,4.1-4.1,6.1-3.1,8.2v1
		C155,366.2,157.1,365.2,158.1,364.1"/>
	<path d="M191.8,389.6c-3.1,7.1-6.1,14.3-9.2,15.3c0,0-2,0-3.1-5.1c-1-9.2,3.1-10.2,10.2-15.3c1-3.1,3.1-7.1,4.1-10.2
		c-6.1,6.1-9.2,9.2-11.2,9.2c-3.1,0-7.1-6.1-7.1-8.2c-1-8.2,16.3-17.3,23.5-18.4c2,0,4.1,1,4.1,6.1c0,2,0,2,0,2l-8.2,18.4l11.2-6.1
		c0,0,2-1,2,0c0,1,0,1-1,1l-14.3,9.2L191.8,389.6z M182.6,378.4c3.1,0,16.3-12.2,16.3-15.3c0,0,0-1-1-1c-2,0-8.2,3.1-11.2,6.1
		c-3.1,2-5.1,5.1-5.1,8.2C181.6,378.4,181.6,378.4,182.6,378.4C181.6,378.4,182.6,378.4,182.6,378.4 M181.6,398.8v1
		c3.1-1,3.1-3.1,5.1-8.2l1-3.1C180.5,391.7,181.6,398.8,181.6,398.8"/>
	<path d="M208.1,382.5c-1,0-3.1-2-3.1-4.1c0-3.1,2-9.2,4.1-9.2c1,0,1,0,1,0s0,0,0,1c-1,2,0,3.1,0,5.1c0,1,0,2,1,2s4.1-6.1,9.2-11.2
		c1-1,7.1-7.1,9.2-8.2c1,0,2,2,2,3.1s-1,2-3.1,5.1c-1,2-3.1,4.1-2,6.1c0,1,1,2,2,1c4.1,0,3.1-5.1,6.1-5.1c0,0,1,0,1,1
		c0,1-3.1,5.1-4.1,6.1c-2,3.1-4.1,5.1-7.1,6.1c-2,0-4.1-1-4.1-5.1c0-1,0-4.1,4.1-10.2C213.2,372.3,220.3,380.5,208.1,382.5"/>
	<path d="M258.1,360.1L258.1,360.1c0,1,0,2,0,2c0,3.1,0,3.1-2,4.1c-1,1-4.1,3.1-3.1,6.1c0,1,1,1,2,1s2-1,4.1-2c1-1,1-1,2-1
		c1,0,1,0,1,1c0,2-8.2,8.2-10.2,8.2s-3.1-1-3.1-2c0-1,0-1,0-2c0-2,1-5.1,2-7.1c-1,1-2,2-3.1,2c-6.1,12.2-11.2,16.3-15.3,16.3
		c-1,0-3.1,0-3.1-1s3.1-6.1,3.1-7.1c1,1,2,1,2,1c3.1,0,6.1-5.1,8.2-8.2c-2,1-4.1,2-5.1,2c-2,0-3.1,1-4.1-6.1c0-2,0-4.1,6.1-10.2
		c3.1-4.1,8.2-7.1,11.2-7.1c2,0,3.1,2,4.1,6.1c0,2-1,4.1-4.1,8.2C255,362.1,257,360.1,258.1,360.1 M249.9,358c0-1-1-1-2-1
		c-4.1,0-11.2,6.1-11.2,8.2c0,1,1,1,3.1,1c2,0,4.1,0,6.1-1C249.9,360.1,249.9,359,249.9,358"/>
	<path d="M302.9,336.6c-9.2,15.3-13.3,22.4-13.3,25.5c0,2,1,3.1,5.1,3.1c12.2-1,30.6-12.2,29.6-26.5c-1-6.1-6.1-8.2-20.4-7.1
		c-5.1,0-7.1,1-13.3,3.1c-1,0-3.1,1-3.1,2l0,0c0,0,2,1,3.1,1c-4.1,2-6.1,3.1-10.2,4.1c-1,0-1,0-2,0c-1,0-1-1-1-2
		c-1-7.1,1-10.2,8.2-13.3c6.1-3.1,12.2-5.1,20.4-5.1c6.1-1,20.4-1,22.4,15.3c2,21.4-24.5,35.7-37.7,36.7c-3.1,0-5.1,0-6.1-6.1
		c-1-7.1,10.2-22.4,17.3-35.7L302.9,336.6z"/>
	<path d="M345.8,350.9c0,1,0,2,0,2c0,2-1,4.1-2,6.1c0,0,0,0,0,1c0,0,1,1,2,1c2,0,1-1,3.1-1c1,0,1,0,1,0c0,1-3.1,4.1-6.1,5.1h-1
		c-3.1,4.1-5.1,5.1-8.2,6.1c-5.1,1-8.2-5.1-8.2-9.2c-1-6.1,8.2-16.3,15.3-17.3c2,0,4.1,1,4.1,2c0,0,0,1,0,2
		C345.8,347.8,345.8,349.9,345.8,350.9 M337.6,361.1c0-2,0-3.1,0-4.1c1-4.1,2-5.1,2-5.1l-1-1c-1,0-5.1,3.1-6.1,5.1
		c-2,3.1-4.1,5.1-3.1,8.2c0,3.1,3.1,3.1,4.1,3.1c2,0,4.1-2,6.1-3.1C338.6,363.1,337.6,362.1,337.6,361.1"/>
	<path d="M384.5,342.7c1,0,2,2,3.1,3.1c0,2-2,3.1-3.1,5.1c-1,1-3.1,4.1-3.1,6.1c0,2,2,2,2,2c1,0,3.1-1,4.1-3.1c1-2,2-2,2-2s1,0,1,1
		s-2,3.1-2,4.1c-2,3.1-6.1,7.1-9.2,8.2c-3.1,0-4.1-1-4.1-3.1c0-4.1,3.1-7.1,5.1-12.2c-10.2,7.1-14.3,16.3-16.3,16.3c-1,0-1-2-2-4.1
		c0-1,1-3.1,2-6.1c2-4.1,2-6.1,2-6.1c0-4.1-9.2,16.3-15.3,16.3c-2,0-3.1-2-3.1-4.1c0-3.1,3.1-9.2,5.1-9.2h1c0,1-1,2-1,6.1
		c0,1,0,2,1,2s4.1-6.1,9.2-11.2c2-2,8.2-9.2,10.2-9.2c1,0,2,1,2,4.1c0,1-1,2-1,3.1c-3.1,4.1-4.1,6.1-3.1,8.2v1
		C380.5,344.8,383.5,342.7,384.5,342.7"/>
	<path d="M413.1,343.7c0,1-1,2-2,5.1c-1,2-2,4.1-2,6.1c0,2,2,2,3.1,2s2-1,5.1-3.1c1-1,2-2,2-2l0,0c0,1-1,2-4.1,5.1
		c-3.1,3.1-5.1,6.1-8.2,6.1c-2,0-4.1-1-4.1-3.1c0-3.1,1-5.1,2-9.2c-9.2,11.2-11.2,12.2-12.2,12.2c-2,0-4.1-5.1-5.1-8.2
		c0-5.1,4.1-10.2,8.2-13.3c4.1-3.1,10.2-7.1,13.3-7.1c2,0,3.1,1,3.1,2c0,1-1,2-2,2C412.1,341.7,413.1,342.7,413.1,343.7 M392.7,359
		C393.7,359,393.7,359,392.7,359c5.1-1,14.3-11.2,14.3-14.3c0-1-1-1-1-1c-6.1,1-14.3,7.1-13.3,13.3C391.7,358,392.7,358,392.7,359"
		/>
	<path d="M421.3,360.1c0-1,1-6.1,3.1-6.1c1,0,4.1,1,4.1,3.1c0,1-1,6.1-2,6.1C424.3,363.1,422.3,362.1,421.3,360.1 M439.6,320.3
		c1,0,4.1,1,4.1,2c0,1-1,0-9.2,14.3c-4.1,8.2-4.1,13.3-6.1,14.3c-1,0-3.1-1-4.1-4.1c0-5.1,7.1-18.4,12.2-24.5
		C436.6,321.3,437.6,320.3,439.6,320.3"/>
</g>
</svg>
